M48
; DRILL file {KiCad 5.1.9-73d0e3b20d~88~ubuntu18.04.1} date Sun Mar 21 00:17:28 2021
; FORMAT={-:-/ absolute / inch / decimal}
; #@! TF.CreationDate,2021-03-21T00:17:28-07:00
; #@! TF.GenerationSoftware,Kicad,Pcbnew,5.1.9-73d0e3b20d~88~ubuntu18.04.1
; #@! TF.FileFunction,Plated,1,2,PTH
FMAT,2
INCH
T1C0.0157
T2C0.0315
T3C0.0360
T4C0.0591
T5C0.0709
%
G90
G05
T1
X2.68Y-2.7
X2.73Y-3.06
X2.74Y-2.95
X3.02Y-2.82
X3.02Y-3.09
X3.16Y-2.93
X3.2Y-2.72
X3.35Y-2.74
X3.36Y-3.03
X3.41Y-2.6
X3.44Y-3.17
X3.48Y-2.82
X3.52Y-2.92
X3.56Y-2.61
X3.6Y-2.77
X3.62Y-2.82
X3.66Y-2.6
X3.77Y-3.23
T3
X3.3799Y-3.3201
X3.4701Y-3.3201
X3.51Y-3.5098
X3.55Y-3.5799
X3.59Y-3.5098
X3.63Y-3.5799
X3.67Y-3.5098
X3.71Y-3.5799
X3.75Y-3.5098
X3.79Y-3.5799
X3.8299Y-3.3201
X3.9201Y-3.3201
T4
X2.923Y-2.3189
X3.0211Y-2.3189
X3.12Y-2.122
X3.218Y-2.3189
X3.317Y-2.3189
X3.4329Y-2.3189
X3.5311Y-2.3189
X3.6299Y-2.122
X3.7279Y-2.3189
X3.8269Y-2.3189
T5
X3.331Y-3.5449
X3.969Y-3.5449
T2
G00X2.9388Y-3.36
M15
G01X3.0412Y-3.36
M16
G05
G00X2.9467Y-3.5883
M15
G01X3.0333Y-3.5883
M16
G05
G00X3.179Y-3.5214
M15
G01X3.179Y-3.4348
M16
G05
T0
M30
