M48
; DRILL file {KiCad (5.1.9)-1} date 03/06/21 14:53:10
; FORMAT={-:-/ absolute / inch / decimal}
; #@! TF.CreationDate,2021-03-06T14:53:10-08:00
; #@! TF.GenerationSoftware,Kicad,Pcbnew,(5.1.9)-1
; #@! TF.FileFunction,Plated,1,2,PTH
FMAT,2
INCH
T1C0.0157
T2C0.0315
T3C0.0360
T4C0.0709
%
G90
G05
T1
X2.75Y-3.05
X2.85Y-2.84
X3.16Y-2.84
X3.55Y-2.65
X3.56Y-3.14
X3.63Y-2.59
X3.68Y-3.02
X3.72Y-2.57
X3.75Y-2.48
X3.76Y-3.09
X3.92Y-3.15
X4.0Y-3.37
X4.02Y-2.95
X4.06Y-3.12
X4.11Y-3.2
X4.1169Y-2.82
T3
X3.3799Y-3.3201
X3.4701Y-3.3201
X3.51Y-3.5098
X3.55Y-3.5799
X3.59Y-3.5098
X3.63Y-3.5799
X3.67Y-3.5098
X3.71Y-3.5799
X3.75Y-3.5098
X3.79Y-3.5799
X3.8299Y-3.3201
X3.9201Y-3.3201
T4
X3.331Y-3.5449
X3.969Y-3.5449
T2
G00X2.9092Y-2.3484
M15
G01X2.9368Y-2.3484
M16
G05
G00X2.9388Y-3.36
M15
G01X3.0412Y-3.36
M16
G05
G00X2.9467Y-3.5883
M15
G01X3.0333Y-3.5883
M16
G05
G00X3.0074Y-2.3484
M15
G01X3.0349Y-2.3484
M16
G05
G00X3.12Y-2.1378
M15
G01X3.12Y-2.1654
M16
G05
G00X3.179Y-3.5214
M15
G01X3.179Y-3.4348
M16
G05
G00X3.2042Y-2.3484
M15
G01X3.2318Y-2.3484
M16
G05
G00X3.3032Y-2.3484
M15
G01X3.3308Y-2.3484
M16
G05
G00X3.4192Y-2.3484
M15
G01X3.4468Y-2.3484
M16
G05
G00X3.5174Y-2.3484
M15
G01X3.5449Y-2.3484
M16
G05
G00X3.63Y-2.1378
M15
G01X3.63Y-2.1654
M16
G05
G00X3.7142Y-2.3484
M15
G01X3.7418Y-2.3484
M16
G05
G00X3.8132Y-2.3484
M15
G01X3.8408Y-2.3484
M16
G05
T0
M30
