%TF.GenerationSoftware,KiCad,Pcbnew,(5.1.9)-1*%
%TF.CreationDate,2021-03-06T14:53:08-08:00*%
%TF.ProjectId,ir-repeater-booster,69722d72-6570-4656-9174-65722d626f6f,1.0.0*%
%TF.SameCoordinates,Original*%
%TF.FileFunction,Copper,L2,Bot*%
%TF.FilePolarity,Positive*%
%FSLAX46Y46*%
G04 Gerber Fmt 4.6, Leading zero omitted, Abs format (unit mm)*
G04 Created by KiCad (PCBNEW (5.1.9)-1) date 2021-03-06 14:53:08*
%MOMM*%
%LPD*%
G01*
G04 APERTURE LIST*
%TA.AperFunction,ComponentPad*%
%ADD10R,4.400000X1.800000*%
%TD*%
%TA.AperFunction,ComponentPad*%
%ADD11O,4.000000X1.800000*%
%TD*%
%TA.AperFunction,ComponentPad*%
%ADD12O,1.800000X4.000000*%
%TD*%
%TA.AperFunction,ComponentPad*%
%ADD13O,1.200000X2.000000*%
%TD*%
%TA.AperFunction,ComponentPad*%
%ADD14O,2.000000X1.200000*%
%TD*%
%TA.AperFunction,ComponentPad*%
%ADD15C,1.499000*%
%TD*%
%TA.AperFunction,ComponentPad*%
%ADD16C,2.642000*%
%TD*%
%TA.AperFunction,ComponentPad*%
%ADD17R,1.499000X1.499000*%
%TD*%
%TA.AperFunction,ViaPad*%
%ADD18C,0.800000*%
%TD*%
%TA.AperFunction,Conductor*%
%ADD19C,0.500000*%
%TD*%
%TA.AperFunction,Conductor*%
%ADD20C,0.300000*%
%TD*%
%TA.AperFunction,Conductor*%
%ADD21C,0.270000*%
%TD*%
%TA.AperFunction,Conductor*%
%ADD22C,0.100000*%
%TD*%
G04 APERTURE END LIST*
D10*
%TO.P,J1,1*%
%TO.N,Net-(D1-Pad2)*%
X75946000Y-85344000D03*
D11*
%TO.P,J1,2*%
%TO.N,GND*%
X75946000Y-91144000D03*
D12*
%TO.P,J1,3*%
X80746000Y-88344000D03*
%TD*%
D13*
%TO.P,TX1,5*%
%TO.N,/TXD*%
X87198000Y-59650000D03*
%TO.P,TX1,4*%
%TO.N,N/C*%
X89691000Y-59650000D03*
%TO.P,TX1,3*%
X94691000Y-59650000D03*
%TO.P,TX1,2*%
%TO.N,+5V*%
X97206000Y-59650000D03*
D14*
%TO.P,TX1,1*%
%TO.N,GND*%
X92202000Y-54650000D03*
%TD*%
D13*
%TO.P,RX1,5*%
%TO.N,/RXD*%
X74244000Y-59650000D03*
%TO.P,RX1,4*%
%TO.N,N/C*%
X76737000Y-59650000D03*
%TO.P,RX1,3*%
X81737000Y-59650000D03*
%TO.P,RX1,2*%
X84252000Y-59650000D03*
D14*
%TO.P,RX1,1*%
%TO.N,GND*%
X79248000Y-54650000D03*
%TD*%
D15*
%TO.P,J2,10*%
%TO.N,/YLED_A*%
X97279000Y-84331000D03*
%TO.P,J2,9*%
%TO.N,/YLED_C*%
X99571000Y-84331000D03*
%TO.P,J2,12*%
%TO.N,/GLED_A*%
X85849000Y-84331000D03*
%TO.P,J2,11*%
%TO.N,GND*%
X88141000Y-84331000D03*
%TO.P,J2,6*%
X91186000Y-89149000D03*
D16*
%TO.P,J2,SH*%
X84607000Y-90040000D03*
X100813000Y-90040000D03*
D15*
%TO.P,J2,7*%
%TO.N,+12V*%
X90170000Y-90929000D03*
%TO.P,J2,2*%
%TO.N,/B*%
X95250000Y-89149000D03*
%TO.P,J2,4*%
%TO.N,N/C*%
X93218000Y-89149000D03*
%TO.P,J2,3*%
%TO.N,GND*%
X94234000Y-90929000D03*
%TO.P,J2,5*%
%TO.N,N/C*%
X92202000Y-90929000D03*
D17*
%TO.P,J2,1*%
%TO.N,/A*%
X96266000Y-90929000D03*
D15*
%TO.P,J2,8*%
%TO.N,+12V*%
X89154000Y-89149000D03*
%TD*%
D18*
%TO.N,GND*%
X69850000Y-77470000D03*
X72390000Y-72136000D03*
X94488000Y-65278000D03*
X103124000Y-79248000D03*
X104394000Y-81280000D03*
X95504000Y-78486000D03*
X93472000Y-76708000D03*
X104570000Y-71628000D03*
%TO.N,+5V*%
X80264000Y-72136000D03*
X95250000Y-62992000D03*
%TO.N,/YLED_C*%
X99568000Y-80010000D03*
%TO.N,/YLED_A*%
X90424000Y-79756000D03*
%TO.N,/B*%
X101600000Y-85598000D03*
%TO.N,/!RE*%
X90170000Y-67310000D03*
X92202000Y-65786000D03*
X102108000Y-74930000D03*
%TD*%
D19*
%TO.N,+5V*%
X89408000Y-62992000D02*
X95250000Y-62992000D01*
X80264000Y-72136000D02*
X89408000Y-62992000D01*
D20*
%TO.N,/YLED_C*%
X99571000Y-80013000D02*
X99568000Y-80010000D01*
X99571000Y-84331000D02*
X99571000Y-80013000D01*
%TO.N,/YLED_A*%
X94999000Y-84331000D02*
X90424000Y-79756000D01*
X97279000Y-84331000D02*
X94999000Y-84331000D01*
%TO.N,/B*%
X95250000Y-89149000D02*
X98049000Y-89149000D01*
X98049000Y-89149000D02*
X101600000Y-85598000D01*
D21*
%TO.N,/!RE*%
X90678000Y-67310000D02*
X92202000Y-65786000D01*
X90170000Y-67310000D02*
X90678000Y-67310000D01*
X90170000Y-67310000D02*
X90170000Y-69850000D01*
X95250000Y-74930000D02*
X102108000Y-74930000D01*
X90170000Y-69850000D02*
X95250000Y-74930000D01*
%TD*%
%TO.N,GND*%
X107948350Y-50528754D02*
X108435410Y-50675806D01*
X108884632Y-50914661D01*
X109278910Y-51236226D01*
X109603213Y-51628241D01*
X109845201Y-52075789D01*
X109995649Y-52561809D01*
X110051001Y-53088442D01*
X110051000Y-94212527D01*
X109999246Y-94740350D01*
X109852194Y-95227410D01*
X109613338Y-95676634D01*
X109291774Y-96070910D01*
X108899759Y-96395213D01*
X108452211Y-96637201D01*
X107966190Y-96787649D01*
X107439569Y-96843000D01*
X64791473Y-96843000D01*
X64263650Y-96791246D01*
X63776590Y-96644194D01*
X63327366Y-96405338D01*
X62933090Y-96083774D01*
X62608787Y-95691759D01*
X62366799Y-95244211D01*
X62216351Y-94758190D01*
X62161000Y-94231569D01*
X62161000Y-92260101D01*
X64559000Y-92260101D01*
X64559000Y-92651899D01*
X64635436Y-93036170D01*
X64785371Y-93398145D01*
X65003043Y-93723914D01*
X65280086Y-94000957D01*
X65605855Y-94218629D01*
X65967830Y-94368564D01*
X66352101Y-94445000D01*
X66743899Y-94445000D01*
X67128170Y-94368564D01*
X67490145Y-94218629D01*
X67815914Y-94000957D01*
X68092957Y-93723914D01*
X68310629Y-93398145D01*
X68363444Y-93270638D01*
X84346000Y-93270638D01*
X84346000Y-93667362D01*
X84423397Y-94056462D01*
X84575216Y-94422987D01*
X84795624Y-94752850D01*
X85076150Y-95033376D01*
X85406013Y-95253784D01*
X85772538Y-95405603D01*
X86161638Y-95483000D01*
X86558362Y-95483000D01*
X86947462Y-95405603D01*
X87313987Y-95253784D01*
X87643850Y-95033376D01*
X87924376Y-94752850D01*
X88144784Y-94422987D01*
X88296603Y-94056462D01*
X88374000Y-93667362D01*
X88374000Y-93270638D01*
X97046000Y-93270638D01*
X97046000Y-93667362D01*
X97123397Y-94056462D01*
X97275216Y-94422987D01*
X97495624Y-94752850D01*
X97776150Y-95033376D01*
X98106013Y-95253784D01*
X98472538Y-95405603D01*
X98861638Y-95483000D01*
X99258362Y-95483000D01*
X99647462Y-95405603D01*
X100013987Y-95253784D01*
X100343850Y-95033376D01*
X100624376Y-94752850D01*
X100844784Y-94422987D01*
X100996603Y-94056462D01*
X101074000Y-93667362D01*
X101074000Y-93270638D01*
X100996603Y-92881538D01*
X100844784Y-92515013D01*
X100674457Y-92260101D01*
X103675000Y-92260101D01*
X103675000Y-92651899D01*
X103751436Y-93036170D01*
X103901371Y-93398145D01*
X104119043Y-93723914D01*
X104396086Y-94000957D01*
X104721855Y-94218629D01*
X105083830Y-94368564D01*
X105468101Y-94445000D01*
X105859899Y-94445000D01*
X106244170Y-94368564D01*
X106606145Y-94218629D01*
X106931914Y-94000957D01*
X107208957Y-93723914D01*
X107426629Y-93398145D01*
X107576564Y-93036170D01*
X107653000Y-92651899D01*
X107653000Y-92260101D01*
X107576564Y-91875830D01*
X107426629Y-91513855D01*
X107208957Y-91188086D01*
X106931914Y-90911043D01*
X106606145Y-90693371D01*
X106244170Y-90543436D01*
X105859899Y-90467000D01*
X105468101Y-90467000D01*
X105083830Y-90543436D01*
X104721855Y-90693371D01*
X104396086Y-90911043D01*
X104119043Y-91188086D01*
X103901371Y-91513855D01*
X103751436Y-91875830D01*
X103675000Y-92260101D01*
X100674457Y-92260101D01*
X100624376Y-92185150D01*
X100343850Y-91904624D01*
X100013987Y-91684216D01*
X99647462Y-91532397D01*
X99258362Y-91455000D01*
X98861638Y-91455000D01*
X98472538Y-91532397D01*
X98106013Y-91684216D01*
X97776150Y-91904624D01*
X97495624Y-92185150D01*
X97275216Y-92515013D01*
X97123397Y-92881538D01*
X97046000Y-93270638D01*
X88374000Y-93270638D01*
X88296603Y-92881538D01*
X88144784Y-92515013D01*
X87924376Y-92185150D01*
X87643850Y-91904624D01*
X87313987Y-91684216D01*
X86947462Y-91532397D01*
X86558362Y-91455000D01*
X86161638Y-91455000D01*
X85772538Y-91532397D01*
X85406013Y-91684216D01*
X85076150Y-91904624D01*
X84795624Y-92185150D01*
X84575216Y-92515013D01*
X84423397Y-92881538D01*
X84346000Y-93270638D01*
X68363444Y-93270638D01*
X68460564Y-93036170D01*
X68537000Y-92651899D01*
X68537000Y-92260101D01*
X68460564Y-91875830D01*
X68310629Y-91513855D01*
X68276194Y-91462318D01*
X73596923Y-91462318D01*
X73609580Y-91527336D01*
X73708123Y-91761184D01*
X73850394Y-91971314D01*
X74030925Y-92149651D01*
X74242779Y-92289341D01*
X74477815Y-92385016D01*
X74727000Y-92433000D01*
X75827000Y-92433000D01*
X75827000Y-91263000D01*
X76065000Y-91263000D01*
X76065000Y-92433000D01*
X77165000Y-92433000D01*
X77414185Y-92385016D01*
X77649221Y-92289341D01*
X77861075Y-92149651D01*
X78041606Y-91971314D01*
X78183877Y-91761184D01*
X78282420Y-91527336D01*
X78295077Y-91462318D01*
X78233157Y-91267290D01*
X83548002Y-91267290D01*
X83695722Y-91496721D01*
X83997424Y-91646513D01*
X84322552Y-91734566D01*
X84658611Y-91757498D01*
X84992686Y-91714428D01*
X85311940Y-91607011D01*
X85518278Y-91496721D01*
X85665998Y-91267290D01*
X84607000Y-90208291D01*
X83548002Y-91267290D01*
X78233157Y-91267290D01*
X78231794Y-91263000D01*
X76065000Y-91263000D01*
X75827000Y-91263000D01*
X73660206Y-91263000D01*
X73596923Y-91462318D01*
X68276194Y-91462318D01*
X68092957Y-91188086D01*
X67815914Y-90911043D01*
X67688163Y-90825682D01*
X73596923Y-90825682D01*
X73660206Y-91025000D01*
X75827000Y-91025000D01*
X75827000Y-89855000D01*
X76065000Y-89855000D01*
X76065000Y-91025000D01*
X78231794Y-91025000D01*
X78295077Y-90825682D01*
X78282420Y-90760664D01*
X78183877Y-90526816D01*
X78041606Y-90316686D01*
X77861075Y-90138349D01*
X77649221Y-89998659D01*
X77414185Y-89902984D01*
X77165000Y-89855000D01*
X76065000Y-89855000D01*
X75827000Y-89855000D01*
X74727000Y-89855000D01*
X74477815Y-89902984D01*
X74242779Y-89998659D01*
X74030925Y-90138349D01*
X73850394Y-90316686D01*
X73708123Y-90526816D01*
X73609580Y-90760664D01*
X73596923Y-90825682D01*
X67688163Y-90825682D01*
X67490145Y-90693371D01*
X67128170Y-90543436D01*
X66743899Y-90467000D01*
X66352101Y-90467000D01*
X65967830Y-90543436D01*
X65605855Y-90693371D01*
X65280086Y-90911043D01*
X65003043Y-91188086D01*
X64785371Y-91513855D01*
X64635436Y-91875830D01*
X64559000Y-92260101D01*
X62161000Y-92260101D01*
X62161000Y-88463000D01*
X79457000Y-88463000D01*
X79457000Y-89563000D01*
X79504984Y-89812185D01*
X79600659Y-90047221D01*
X79740349Y-90259075D01*
X79918686Y-90439606D01*
X80128816Y-90581877D01*
X80362664Y-90680420D01*
X80427682Y-90693077D01*
X80627000Y-90629794D01*
X80627000Y-88463000D01*
X80865000Y-88463000D01*
X80865000Y-90629794D01*
X81064318Y-90693077D01*
X81129336Y-90680420D01*
X81363184Y-90581877D01*
X81573314Y-90439606D01*
X81751651Y-90259075D01*
X81862071Y-90091611D01*
X82889502Y-90091611D01*
X82932572Y-90425686D01*
X83039989Y-90744940D01*
X83150279Y-90951278D01*
X83379710Y-91098998D01*
X84438709Y-90040000D01*
X84775291Y-90040000D01*
X85834290Y-91098998D01*
X86063721Y-90951278D01*
X86213513Y-90649576D01*
X86301566Y-90324448D01*
X86324498Y-89988389D01*
X86281428Y-89654314D01*
X86174011Y-89335060D01*
X86063721Y-89128722D01*
X85921059Y-89036868D01*
X88015500Y-89036868D01*
X88015500Y-89261132D01*
X88059252Y-89481088D01*
X88145074Y-89688282D01*
X88269669Y-89874752D01*
X88428248Y-90033331D01*
X88614718Y-90157926D01*
X88821912Y-90243748D01*
X89041868Y-90287500D01*
X89229374Y-90287500D01*
X89161074Y-90389718D01*
X89075252Y-90596912D01*
X89031500Y-90816868D01*
X89031500Y-91041132D01*
X89075252Y-91261088D01*
X89161074Y-91468282D01*
X89285669Y-91654752D01*
X89444248Y-91813331D01*
X89630718Y-91937926D01*
X89837912Y-92023748D01*
X90057868Y-92067500D01*
X90282132Y-92067500D01*
X90502088Y-92023748D01*
X90709282Y-91937926D01*
X90895752Y-91813331D01*
X91054331Y-91654752D01*
X91178926Y-91468282D01*
X91186000Y-91451204D01*
X91193074Y-91468282D01*
X91317669Y-91654752D01*
X91476248Y-91813331D01*
X91662718Y-91937926D01*
X91869912Y-92023748D01*
X92089868Y-92067500D01*
X92314132Y-92067500D01*
X92534088Y-92023748D01*
X92741282Y-91937926D01*
X92927752Y-91813331D01*
X92992565Y-91748518D01*
X93582774Y-91748518D01*
X93661490Y-91919449D01*
X93865717Y-92012109D01*
X94084098Y-92063146D01*
X94308238Y-92070598D01*
X94529526Y-92034179D01*
X94739457Y-91955289D01*
X94806510Y-91919449D01*
X94885226Y-91748518D01*
X94234000Y-91097291D01*
X93582774Y-91748518D01*
X92992565Y-91748518D01*
X93086331Y-91654752D01*
X93210926Y-91468282D01*
X93217416Y-91452614D01*
X93243551Y-91501510D01*
X93414482Y-91580226D01*
X94065709Y-90929000D01*
X94051566Y-90914858D01*
X94219858Y-90746566D01*
X94234000Y-90760709D01*
X94248142Y-90746566D01*
X94416434Y-90914858D01*
X94402291Y-90929000D01*
X95053518Y-91580226D01*
X95125618Y-91547023D01*
X95125618Y-91678500D01*
X95133129Y-91754757D01*
X95155372Y-91828084D01*
X95191493Y-91895662D01*
X95240105Y-91954895D01*
X95299338Y-92003507D01*
X95366916Y-92039628D01*
X95440243Y-92061871D01*
X95516500Y-92069382D01*
X97015500Y-92069382D01*
X97091757Y-92061871D01*
X97165084Y-92039628D01*
X97232662Y-92003507D01*
X97291895Y-91954895D01*
X97340507Y-91895662D01*
X97376628Y-91828084D01*
X97398871Y-91754757D01*
X97406382Y-91678500D01*
X97406382Y-91267290D01*
X99754002Y-91267290D01*
X99901722Y-91496721D01*
X100203424Y-91646513D01*
X100528552Y-91734566D01*
X100864611Y-91757498D01*
X101198686Y-91714428D01*
X101517940Y-91607011D01*
X101724278Y-91496721D01*
X101871998Y-91267290D01*
X100813000Y-90208291D01*
X99754002Y-91267290D01*
X97406382Y-91267290D01*
X97406382Y-90179500D01*
X97398871Y-90103243D01*
X97395343Y-90091611D01*
X99095502Y-90091611D01*
X99138572Y-90425686D01*
X99245989Y-90744940D01*
X99356279Y-90951278D01*
X99585710Y-91098998D01*
X100644709Y-90040000D01*
X100981291Y-90040000D01*
X102040290Y-91098998D01*
X102269721Y-90951278D01*
X102419513Y-90649576D01*
X102507566Y-90324448D01*
X102530498Y-89988389D01*
X102487428Y-89654314D01*
X102380011Y-89335060D01*
X102269721Y-89128722D01*
X102040290Y-88981002D01*
X100981291Y-90040000D01*
X100644709Y-90040000D01*
X99585710Y-88981002D01*
X99356279Y-89128722D01*
X99206487Y-89430424D01*
X99118434Y-89755552D01*
X99095502Y-90091611D01*
X97395343Y-90091611D01*
X97376628Y-90029916D01*
X97340507Y-89962338D01*
X97291895Y-89903105D01*
X97232662Y-89854493D01*
X97165084Y-89818372D01*
X97091757Y-89796129D01*
X97015500Y-89788618D01*
X96191884Y-89788618D01*
X96258926Y-89688282D01*
X96259043Y-89688000D01*
X98022531Y-89688000D01*
X98049000Y-89690607D01*
X98154662Y-89680200D01*
X98256264Y-89649380D01*
X98349901Y-89599330D01*
X98431974Y-89531974D01*
X98448853Y-89511407D01*
X99147550Y-88812710D01*
X99754002Y-88812710D01*
X100813000Y-89871709D01*
X101871998Y-88812710D01*
X101724278Y-88583279D01*
X101422576Y-88433487D01*
X101097448Y-88345434D01*
X100761389Y-88322502D01*
X100427314Y-88365572D01*
X100108060Y-88472989D01*
X99901722Y-88583279D01*
X99754002Y-88812710D01*
X99147550Y-88812710D01*
X101573261Y-86387000D01*
X101677710Y-86387000D01*
X101830143Y-86356680D01*
X101973732Y-86297203D01*
X102102958Y-86210857D01*
X102212857Y-86100958D01*
X102299203Y-85971732D01*
X102358680Y-85828143D01*
X102389000Y-85675710D01*
X102389000Y-85520290D01*
X102358680Y-85367857D01*
X102299203Y-85224268D01*
X102212857Y-85095042D01*
X102102958Y-84985143D01*
X101973732Y-84898797D01*
X101830143Y-84839320D01*
X101677710Y-84809000D01*
X101522290Y-84809000D01*
X101369857Y-84839320D01*
X101226268Y-84898797D01*
X101097042Y-84985143D01*
X100987143Y-85095042D01*
X100900797Y-85224268D01*
X100841320Y-85367857D01*
X100811000Y-85520290D01*
X100811000Y-85624739D01*
X97825740Y-88610000D01*
X96259043Y-88610000D01*
X96258926Y-88609718D01*
X96134331Y-88423248D01*
X95975752Y-88264669D01*
X95789282Y-88140074D01*
X95582088Y-88054252D01*
X95362132Y-88010500D01*
X95137868Y-88010500D01*
X94917912Y-88054252D01*
X94710718Y-88140074D01*
X94524248Y-88264669D01*
X94365669Y-88423248D01*
X94241074Y-88609718D01*
X94234000Y-88626796D01*
X94226926Y-88609718D01*
X94102331Y-88423248D01*
X93943752Y-88264669D01*
X93757282Y-88140074D01*
X93550088Y-88054252D01*
X93330132Y-88010500D01*
X93105868Y-88010500D01*
X92885912Y-88054252D01*
X92678718Y-88140074D01*
X92492248Y-88264669D01*
X92333669Y-88423248D01*
X92209074Y-88609718D01*
X92202584Y-88625386D01*
X92176449Y-88576490D01*
X92005518Y-88497774D01*
X91354291Y-89149000D01*
X91368434Y-89163142D01*
X91200142Y-89331434D01*
X91186000Y-89317291D01*
X91171858Y-89331434D01*
X91003566Y-89163142D01*
X91017709Y-89149000D01*
X90366482Y-88497774D01*
X90195551Y-88576490D01*
X90171301Y-88629938D01*
X90162926Y-88609718D01*
X90038331Y-88423248D01*
X89944565Y-88329482D01*
X90534774Y-88329482D01*
X91186000Y-88980709D01*
X91837226Y-88329482D01*
X91758510Y-88158551D01*
X91554283Y-88065891D01*
X91335902Y-88014854D01*
X91111762Y-88007402D01*
X90890474Y-88043821D01*
X90680543Y-88122711D01*
X90613490Y-88158551D01*
X90534774Y-88329482D01*
X89944565Y-88329482D01*
X89879752Y-88264669D01*
X89693282Y-88140074D01*
X89486088Y-88054252D01*
X89266132Y-88010500D01*
X89041868Y-88010500D01*
X88821912Y-88054252D01*
X88614718Y-88140074D01*
X88428248Y-88264669D01*
X88269669Y-88423248D01*
X88145074Y-88609718D01*
X88059252Y-88816912D01*
X88015500Y-89036868D01*
X85921059Y-89036868D01*
X85834290Y-88981002D01*
X84775291Y-90040000D01*
X84438709Y-90040000D01*
X83379710Y-88981002D01*
X83150279Y-89128722D01*
X83000487Y-89430424D01*
X82912434Y-89755552D01*
X82889502Y-90091611D01*
X81862071Y-90091611D01*
X81891341Y-90047221D01*
X81987016Y-89812185D01*
X82035000Y-89563000D01*
X82035000Y-88812710D01*
X83548002Y-88812710D01*
X84607000Y-89871709D01*
X85665998Y-88812710D01*
X85518278Y-88583279D01*
X85216576Y-88433487D01*
X84891448Y-88345434D01*
X84555389Y-88322502D01*
X84221314Y-88365572D01*
X83902060Y-88472989D01*
X83695722Y-88583279D01*
X83548002Y-88812710D01*
X82035000Y-88812710D01*
X82035000Y-88463000D01*
X80865000Y-88463000D01*
X80627000Y-88463000D01*
X79457000Y-88463000D01*
X62161000Y-88463000D01*
X62161000Y-87125000D01*
X79457000Y-87125000D01*
X79457000Y-88225000D01*
X80627000Y-88225000D01*
X80627000Y-86058206D01*
X80865000Y-86058206D01*
X80865000Y-88225000D01*
X82035000Y-88225000D01*
X82035000Y-87125000D01*
X81987016Y-86875815D01*
X81891341Y-86640779D01*
X81751651Y-86428925D01*
X81573314Y-86248394D01*
X81363184Y-86106123D01*
X81129336Y-86007580D01*
X81064318Y-85994923D01*
X80865000Y-86058206D01*
X80627000Y-86058206D01*
X80427682Y-85994923D01*
X80362664Y-86007580D01*
X80128816Y-86106123D01*
X79918686Y-86248394D01*
X79740349Y-86428925D01*
X79600659Y-86640779D01*
X79504984Y-86875815D01*
X79457000Y-87125000D01*
X62161000Y-87125000D01*
X62161000Y-84444000D01*
X73355118Y-84444000D01*
X73355118Y-86244000D01*
X73362629Y-86320257D01*
X73384872Y-86393584D01*
X73420993Y-86461162D01*
X73469605Y-86520395D01*
X73528838Y-86569007D01*
X73596416Y-86605128D01*
X73669743Y-86627371D01*
X73746000Y-86634882D01*
X78146000Y-86634882D01*
X78222257Y-86627371D01*
X78295584Y-86605128D01*
X78363162Y-86569007D01*
X78422395Y-86520395D01*
X78471007Y-86461162D01*
X78507128Y-86393584D01*
X78529371Y-86320257D01*
X78536882Y-86244000D01*
X78536882Y-84444000D01*
X78529371Y-84367743D01*
X78507128Y-84294416D01*
X78471007Y-84226838D01*
X78464467Y-84218868D01*
X84710500Y-84218868D01*
X84710500Y-84443132D01*
X84754252Y-84663088D01*
X84840074Y-84870282D01*
X84964669Y-85056752D01*
X85123248Y-85215331D01*
X85309718Y-85339926D01*
X85516912Y-85425748D01*
X85736868Y-85469500D01*
X85961132Y-85469500D01*
X86181088Y-85425748D01*
X86388282Y-85339926D01*
X86574752Y-85215331D01*
X86639565Y-85150518D01*
X87489774Y-85150518D01*
X87568490Y-85321449D01*
X87772717Y-85414109D01*
X87991098Y-85465146D01*
X88215238Y-85472598D01*
X88436526Y-85436179D01*
X88646457Y-85357289D01*
X88713510Y-85321449D01*
X88792226Y-85150518D01*
X88141000Y-84499291D01*
X87489774Y-85150518D01*
X86639565Y-85150518D01*
X86733331Y-85056752D01*
X86857926Y-84870282D01*
X86943748Y-84663088D01*
X86987500Y-84443132D01*
X86987500Y-84405238D01*
X86999402Y-84405238D01*
X87035821Y-84626526D01*
X87114711Y-84836457D01*
X87150551Y-84903510D01*
X87321482Y-84982226D01*
X87972709Y-84331000D01*
X88309291Y-84331000D01*
X88960518Y-84982226D01*
X89131449Y-84903510D01*
X89224109Y-84699283D01*
X89275146Y-84480902D01*
X89282598Y-84256762D01*
X89246179Y-84035474D01*
X89167289Y-83825543D01*
X89131449Y-83758490D01*
X88960518Y-83679774D01*
X88309291Y-84331000D01*
X87972709Y-84331000D01*
X87321482Y-83679774D01*
X87150551Y-83758490D01*
X87057891Y-83962717D01*
X87006854Y-84181098D01*
X86999402Y-84405238D01*
X86987500Y-84405238D01*
X86987500Y-84218868D01*
X86943748Y-83998912D01*
X86857926Y-83791718D01*
X86733331Y-83605248D01*
X86639565Y-83511482D01*
X87489774Y-83511482D01*
X88141000Y-84162709D01*
X88792226Y-83511482D01*
X88713510Y-83340551D01*
X88509283Y-83247891D01*
X88290902Y-83196854D01*
X88066762Y-83189402D01*
X87845474Y-83225821D01*
X87635543Y-83304711D01*
X87568490Y-83340551D01*
X87489774Y-83511482D01*
X86639565Y-83511482D01*
X86574752Y-83446669D01*
X86388282Y-83322074D01*
X86181088Y-83236252D01*
X85961132Y-83192500D01*
X85736868Y-83192500D01*
X85516912Y-83236252D01*
X85309718Y-83322074D01*
X85123248Y-83446669D01*
X84964669Y-83605248D01*
X84840074Y-83791718D01*
X84754252Y-83998912D01*
X84710500Y-84218868D01*
X78464467Y-84218868D01*
X78422395Y-84167605D01*
X78363162Y-84118993D01*
X78295584Y-84082872D01*
X78222257Y-84060629D01*
X78146000Y-84053118D01*
X73746000Y-84053118D01*
X73669743Y-84060629D01*
X73596416Y-84082872D01*
X73528838Y-84118993D01*
X73469605Y-84167605D01*
X73420993Y-84226838D01*
X73384872Y-84294416D01*
X73362629Y-84367743D01*
X73355118Y-84444000D01*
X62161000Y-84444000D01*
X62161000Y-79678290D01*
X89635000Y-79678290D01*
X89635000Y-79833710D01*
X89665320Y-79986143D01*
X89724797Y-80129732D01*
X89811143Y-80258958D01*
X89921042Y-80368857D01*
X90050268Y-80455203D01*
X90193857Y-80514680D01*
X90346290Y-80545000D01*
X90450740Y-80545000D01*
X94599151Y-84693412D01*
X94616026Y-84713974D01*
X94698099Y-84781330D01*
X94791736Y-84831380D01*
X94862517Y-84852851D01*
X94893337Y-84862200D01*
X94903482Y-84863199D01*
X94972531Y-84870000D01*
X94972538Y-84870000D01*
X94998999Y-84872606D01*
X95025460Y-84870000D01*
X96269957Y-84870000D01*
X96270074Y-84870282D01*
X96394669Y-85056752D01*
X96553248Y-85215331D01*
X96739718Y-85339926D01*
X96946912Y-85425748D01*
X97166868Y-85469500D01*
X97391132Y-85469500D01*
X97611088Y-85425748D01*
X97818282Y-85339926D01*
X98004752Y-85215331D01*
X98163331Y-85056752D01*
X98287926Y-84870282D01*
X98373748Y-84663088D01*
X98417500Y-84443132D01*
X98417500Y-84218868D01*
X98432500Y-84218868D01*
X98432500Y-84443132D01*
X98476252Y-84663088D01*
X98562074Y-84870282D01*
X98686669Y-85056752D01*
X98845248Y-85215331D01*
X99031718Y-85339926D01*
X99238912Y-85425748D01*
X99458868Y-85469500D01*
X99683132Y-85469500D01*
X99903088Y-85425748D01*
X100110282Y-85339926D01*
X100296752Y-85215331D01*
X100455331Y-85056752D01*
X100579926Y-84870282D01*
X100665748Y-84663088D01*
X100709500Y-84443132D01*
X100709500Y-84218868D01*
X100665748Y-83998912D01*
X100579926Y-83791718D01*
X100455331Y-83605248D01*
X100296752Y-83446669D01*
X100110282Y-83322074D01*
X100110000Y-83321957D01*
X100110000Y-80583815D01*
X100180857Y-80512958D01*
X100267203Y-80383732D01*
X100326680Y-80240143D01*
X100357000Y-80087710D01*
X100357000Y-79932290D01*
X100326680Y-79779857D01*
X100267203Y-79636268D01*
X100180857Y-79507042D01*
X100070958Y-79397143D01*
X99941732Y-79310797D01*
X99798143Y-79251320D01*
X99645710Y-79221000D01*
X99490290Y-79221000D01*
X99337857Y-79251320D01*
X99194268Y-79310797D01*
X99065042Y-79397143D01*
X98955143Y-79507042D01*
X98868797Y-79636268D01*
X98809320Y-79779857D01*
X98779000Y-79932290D01*
X98779000Y-80087710D01*
X98809320Y-80240143D01*
X98868797Y-80383732D01*
X98955143Y-80512958D01*
X99032001Y-80589816D01*
X99032000Y-83321957D01*
X99031718Y-83322074D01*
X98845248Y-83446669D01*
X98686669Y-83605248D01*
X98562074Y-83791718D01*
X98476252Y-83998912D01*
X98432500Y-84218868D01*
X98417500Y-84218868D01*
X98373748Y-83998912D01*
X98287926Y-83791718D01*
X98163331Y-83605248D01*
X98004752Y-83446669D01*
X97818282Y-83322074D01*
X97611088Y-83236252D01*
X97391132Y-83192500D01*
X97166868Y-83192500D01*
X96946912Y-83236252D01*
X96739718Y-83322074D01*
X96553248Y-83446669D01*
X96394669Y-83605248D01*
X96270074Y-83791718D01*
X96269957Y-83792000D01*
X95222261Y-83792000D01*
X91213000Y-79782740D01*
X91213000Y-79678290D01*
X91182680Y-79525857D01*
X91123203Y-79382268D01*
X91036857Y-79253042D01*
X90926958Y-79143143D01*
X90797732Y-79056797D01*
X90654143Y-78997320D01*
X90501710Y-78967000D01*
X90346290Y-78967000D01*
X90193857Y-78997320D01*
X90050268Y-79056797D01*
X89921042Y-79143143D01*
X89811143Y-79253042D01*
X89724797Y-79382268D01*
X89665320Y-79525857D01*
X89635000Y-79678290D01*
X62161000Y-79678290D01*
X62161000Y-72058290D01*
X79475000Y-72058290D01*
X79475000Y-72213710D01*
X79505320Y-72366143D01*
X79564797Y-72509732D01*
X79651143Y-72638958D01*
X79761042Y-72748857D01*
X79890268Y-72835203D01*
X80033857Y-72894680D01*
X80186290Y-72925000D01*
X80341710Y-72925000D01*
X80494143Y-72894680D01*
X80637732Y-72835203D01*
X80766958Y-72748857D01*
X80876857Y-72638958D01*
X80963203Y-72509732D01*
X81022680Y-72366143D01*
X81043820Y-72259861D01*
X86071391Y-67232290D01*
X89381000Y-67232290D01*
X89381000Y-67387710D01*
X89411320Y-67540143D01*
X89470797Y-67683732D01*
X89557143Y-67812958D01*
X89646000Y-67901815D01*
X89646001Y-69824261D01*
X89643466Y-69850000D01*
X89653583Y-69952722D01*
X89683546Y-70051496D01*
X89732202Y-70142527D01*
X89781276Y-70202323D01*
X89781281Y-70202328D01*
X89797685Y-70222316D01*
X89817673Y-70238720D01*
X94861280Y-75282328D01*
X94877684Y-75302316D01*
X94897672Y-75318720D01*
X94897676Y-75318724D01*
X94957472Y-75367798D01*
X95006129Y-75393805D01*
X95048504Y-75416455D01*
X95147278Y-75446418D01*
X95224261Y-75454000D01*
X95224271Y-75454000D01*
X95250000Y-75456534D01*
X95275729Y-75454000D01*
X101516185Y-75454000D01*
X101605042Y-75542857D01*
X101734268Y-75629203D01*
X101877857Y-75688680D01*
X102030290Y-75719000D01*
X102185710Y-75719000D01*
X102338143Y-75688680D01*
X102481732Y-75629203D01*
X102610958Y-75542857D01*
X102720857Y-75432958D01*
X102807203Y-75303732D01*
X102866680Y-75160143D01*
X102897000Y-75007710D01*
X102897000Y-74852290D01*
X102866680Y-74699857D01*
X102807203Y-74556268D01*
X102720857Y-74427042D01*
X102610958Y-74317143D01*
X102481732Y-74230797D01*
X102338143Y-74171320D01*
X102185710Y-74141000D01*
X102030290Y-74141000D01*
X101877857Y-74171320D01*
X101734268Y-74230797D01*
X101605042Y-74317143D01*
X101516185Y-74406000D01*
X95467048Y-74406000D01*
X90694000Y-69632953D01*
X90694000Y-67901815D01*
X90768160Y-67827655D01*
X90780722Y-67826418D01*
X90879496Y-67796455D01*
X90970527Y-67747798D01*
X91050316Y-67682316D01*
X91066724Y-67662323D01*
X92154048Y-66575000D01*
X92279710Y-66575000D01*
X92432143Y-66544680D01*
X92575732Y-66485203D01*
X92704958Y-66398857D01*
X92814857Y-66288958D01*
X92901203Y-66159732D01*
X92960680Y-66016143D01*
X92991000Y-65863710D01*
X92991000Y-65708290D01*
X92960680Y-65555857D01*
X92901203Y-65412268D01*
X92814857Y-65283042D01*
X92704958Y-65173143D01*
X92575732Y-65086797D01*
X92432143Y-65027320D01*
X92279710Y-64997000D01*
X92124290Y-64997000D01*
X91971857Y-65027320D01*
X91828268Y-65086797D01*
X91699042Y-65173143D01*
X91589143Y-65283042D01*
X91502797Y-65412268D01*
X91443320Y-65555857D01*
X91413000Y-65708290D01*
X91413000Y-65833952D01*
X90599136Y-66647817D01*
X90543732Y-66610797D01*
X90400143Y-66551320D01*
X90247710Y-66521000D01*
X90092290Y-66521000D01*
X89939857Y-66551320D01*
X89796268Y-66610797D01*
X89667042Y-66697143D01*
X89557143Y-66807042D01*
X89470797Y-66936268D01*
X89411320Y-67079857D01*
X89381000Y-67232290D01*
X86071391Y-67232290D01*
X89672682Y-63631000D01*
X94786168Y-63631000D01*
X94876268Y-63691203D01*
X95019857Y-63750680D01*
X95172290Y-63781000D01*
X95327710Y-63781000D01*
X95480143Y-63750680D01*
X95623732Y-63691203D01*
X95752958Y-63604857D01*
X95862857Y-63494958D01*
X95949203Y-63365732D01*
X96008680Y-63222143D01*
X96039000Y-63069710D01*
X96039000Y-62914290D01*
X96008680Y-62761857D01*
X95949203Y-62618268D01*
X95862857Y-62489042D01*
X95752958Y-62379143D01*
X95623732Y-62292797D01*
X95480143Y-62233320D01*
X95327710Y-62203000D01*
X95172290Y-62203000D01*
X95019857Y-62233320D01*
X94876268Y-62292797D01*
X94786168Y-62353000D01*
X89439382Y-62353000D01*
X89408000Y-62349909D01*
X89376618Y-62353000D01*
X89282734Y-62362247D01*
X89162282Y-62398785D01*
X89051273Y-62458121D01*
X88953973Y-62537973D01*
X88933964Y-62562354D01*
X80140139Y-71356180D01*
X80033857Y-71377320D01*
X79890268Y-71436797D01*
X79761042Y-71523143D01*
X79651143Y-71633042D01*
X79564797Y-71762268D01*
X79505320Y-71905857D01*
X79475000Y-72058290D01*
X62161000Y-72058290D01*
X62161000Y-59201417D01*
X73255000Y-59201417D01*
X73255000Y-60098584D01*
X73269311Y-60243878D01*
X73325863Y-60430305D01*
X73417699Y-60602117D01*
X73541289Y-60752712D01*
X73691884Y-60876302D01*
X73863696Y-60968138D01*
X74050123Y-61024690D01*
X74244000Y-61043785D01*
X74437878Y-61024690D01*
X74624305Y-60968138D01*
X74796117Y-60876302D01*
X74946712Y-60752712D01*
X75070302Y-60602117D01*
X75162138Y-60430305D01*
X75218690Y-60243877D01*
X75233000Y-60098583D01*
X75233000Y-59201417D01*
X75748000Y-59201417D01*
X75748000Y-60098584D01*
X75762311Y-60243878D01*
X75818863Y-60430305D01*
X75910699Y-60602117D01*
X76034289Y-60752712D01*
X76184884Y-60876302D01*
X76356696Y-60968138D01*
X76543123Y-61024690D01*
X76737000Y-61043785D01*
X76930878Y-61024690D01*
X77117305Y-60968138D01*
X77289117Y-60876302D01*
X77439712Y-60752712D01*
X77563302Y-60602117D01*
X77655138Y-60430305D01*
X77711690Y-60243877D01*
X77726000Y-60098583D01*
X77726000Y-59552592D01*
X78259000Y-59552592D01*
X78259000Y-59747408D01*
X78297007Y-59938481D01*
X78371560Y-60118467D01*
X78479794Y-60280451D01*
X78617549Y-60418206D01*
X78779533Y-60526440D01*
X78959519Y-60600993D01*
X79150592Y-60639000D01*
X79345408Y-60639000D01*
X79536481Y-60600993D01*
X79716467Y-60526440D01*
X79878451Y-60418206D01*
X80016206Y-60280451D01*
X80124440Y-60118467D01*
X80198993Y-59938481D01*
X80237000Y-59747408D01*
X80237000Y-59552592D01*
X80198993Y-59361519D01*
X80132677Y-59201417D01*
X80748000Y-59201417D01*
X80748000Y-60098584D01*
X80762311Y-60243878D01*
X80818863Y-60430305D01*
X80910699Y-60602117D01*
X81034289Y-60752712D01*
X81184884Y-60876302D01*
X81356696Y-60968138D01*
X81543123Y-61024690D01*
X81737000Y-61043785D01*
X81930878Y-61024690D01*
X82117305Y-60968138D01*
X82289117Y-60876302D01*
X82439712Y-60752712D01*
X82563302Y-60602117D01*
X82655138Y-60430305D01*
X82711690Y-60243877D01*
X82726000Y-60098583D01*
X82726000Y-59201417D01*
X83263000Y-59201417D01*
X83263000Y-60098584D01*
X83277311Y-60243878D01*
X83333863Y-60430305D01*
X83425699Y-60602117D01*
X83549289Y-60752712D01*
X83699884Y-60876302D01*
X83871696Y-60968138D01*
X84058123Y-61024690D01*
X84252000Y-61043785D01*
X84445878Y-61024690D01*
X84632305Y-60968138D01*
X84804117Y-60876302D01*
X84954712Y-60752712D01*
X85078302Y-60602117D01*
X85170138Y-60430305D01*
X85226690Y-60243877D01*
X85241000Y-60098583D01*
X85241000Y-59201417D01*
X86209000Y-59201417D01*
X86209000Y-60098584D01*
X86223311Y-60243878D01*
X86279863Y-60430305D01*
X86371699Y-60602117D01*
X86495289Y-60752712D01*
X86645884Y-60876302D01*
X86817696Y-60968138D01*
X87004123Y-61024690D01*
X87198000Y-61043785D01*
X87391878Y-61024690D01*
X87578305Y-60968138D01*
X87750117Y-60876302D01*
X87900712Y-60752712D01*
X88024302Y-60602117D01*
X88116138Y-60430305D01*
X88172690Y-60243877D01*
X88187000Y-60098583D01*
X88187000Y-59201417D01*
X88702000Y-59201417D01*
X88702000Y-60098584D01*
X88716311Y-60243878D01*
X88772863Y-60430305D01*
X88864699Y-60602117D01*
X88988289Y-60752712D01*
X89138884Y-60876302D01*
X89310696Y-60968138D01*
X89497123Y-61024690D01*
X89691000Y-61043785D01*
X89884878Y-61024690D01*
X90071305Y-60968138D01*
X90243117Y-60876302D01*
X90393712Y-60752712D01*
X90517302Y-60602117D01*
X90609138Y-60430305D01*
X90665690Y-60243877D01*
X90680000Y-60098583D01*
X90680000Y-59552592D01*
X91213000Y-59552592D01*
X91213000Y-59747408D01*
X91251007Y-59938481D01*
X91325560Y-60118467D01*
X91433794Y-60280451D01*
X91571549Y-60418206D01*
X91733533Y-60526440D01*
X91913519Y-60600993D01*
X92104592Y-60639000D01*
X92299408Y-60639000D01*
X92490481Y-60600993D01*
X92670467Y-60526440D01*
X92832451Y-60418206D01*
X92970206Y-60280451D01*
X93078440Y-60118467D01*
X93152993Y-59938481D01*
X93191000Y-59747408D01*
X93191000Y-59552592D01*
X93152993Y-59361519D01*
X93086677Y-59201417D01*
X93702000Y-59201417D01*
X93702000Y-60098584D01*
X93716311Y-60243878D01*
X93772863Y-60430305D01*
X93864699Y-60602117D01*
X93988289Y-60752712D01*
X94138884Y-60876302D01*
X94310696Y-60968138D01*
X94497123Y-61024690D01*
X94691000Y-61043785D01*
X94884878Y-61024690D01*
X95071305Y-60968138D01*
X95243117Y-60876302D01*
X95393712Y-60752712D01*
X95517302Y-60602117D01*
X95609138Y-60430305D01*
X95665690Y-60243877D01*
X95680000Y-60098583D01*
X95680000Y-59201417D01*
X96217000Y-59201417D01*
X96217000Y-60098584D01*
X96231311Y-60243878D01*
X96287863Y-60430305D01*
X96379699Y-60602117D01*
X96503289Y-60752712D01*
X96653884Y-60876302D01*
X96825696Y-60968138D01*
X97012123Y-61024690D01*
X97206000Y-61043785D01*
X97399878Y-61024690D01*
X97586305Y-60968138D01*
X97758117Y-60876302D01*
X97908712Y-60752712D01*
X98032302Y-60602117D01*
X98124138Y-60430305D01*
X98180690Y-60243877D01*
X98195000Y-60098583D01*
X98195000Y-59201416D01*
X98180690Y-59056122D01*
X98124138Y-58869695D01*
X98032302Y-58697883D01*
X97908712Y-58547288D01*
X97758117Y-58423698D01*
X97586304Y-58331862D01*
X97399877Y-58275310D01*
X97206000Y-58256215D01*
X97012122Y-58275310D01*
X96825695Y-58331862D01*
X96653883Y-58423698D01*
X96503288Y-58547288D01*
X96379698Y-58697883D01*
X96287862Y-58869696D01*
X96231310Y-59056123D01*
X96217000Y-59201417D01*
X95680000Y-59201417D01*
X95680000Y-59201416D01*
X95665690Y-59056122D01*
X95609138Y-58869695D01*
X95517302Y-58697883D01*
X95393712Y-58547288D01*
X95243117Y-58423698D01*
X95071304Y-58331862D01*
X94884877Y-58275310D01*
X94691000Y-58256215D01*
X94497122Y-58275310D01*
X94310695Y-58331862D01*
X94138883Y-58423698D01*
X93988288Y-58547288D01*
X93864698Y-58697883D01*
X93772862Y-58869696D01*
X93716310Y-59056123D01*
X93702000Y-59201417D01*
X93086677Y-59201417D01*
X93078440Y-59181533D01*
X92970206Y-59019549D01*
X92832451Y-58881794D01*
X92670467Y-58773560D01*
X92490481Y-58699007D01*
X92299408Y-58661000D01*
X92104592Y-58661000D01*
X91913519Y-58699007D01*
X91733533Y-58773560D01*
X91571549Y-58881794D01*
X91433794Y-59019549D01*
X91325560Y-59181533D01*
X91251007Y-59361519D01*
X91213000Y-59552592D01*
X90680000Y-59552592D01*
X90680000Y-59201416D01*
X90665690Y-59056122D01*
X90609138Y-58869695D01*
X90517302Y-58697883D01*
X90393712Y-58547288D01*
X90243117Y-58423698D01*
X90071304Y-58331862D01*
X89884877Y-58275310D01*
X89691000Y-58256215D01*
X89497122Y-58275310D01*
X89310695Y-58331862D01*
X89138883Y-58423698D01*
X88988288Y-58547288D01*
X88864698Y-58697883D01*
X88772862Y-58869696D01*
X88716310Y-59056123D01*
X88702000Y-59201417D01*
X88187000Y-59201417D01*
X88187000Y-59201416D01*
X88172690Y-59056122D01*
X88116138Y-58869695D01*
X88024302Y-58697883D01*
X87900712Y-58547288D01*
X87750117Y-58423698D01*
X87578304Y-58331862D01*
X87391877Y-58275310D01*
X87198000Y-58256215D01*
X87004122Y-58275310D01*
X86817695Y-58331862D01*
X86645883Y-58423698D01*
X86495288Y-58547288D01*
X86371698Y-58697883D01*
X86279862Y-58869696D01*
X86223310Y-59056123D01*
X86209000Y-59201417D01*
X85241000Y-59201417D01*
X85241000Y-59201416D01*
X85226690Y-59056122D01*
X85170138Y-58869695D01*
X85078302Y-58697883D01*
X84954712Y-58547288D01*
X84804117Y-58423698D01*
X84632304Y-58331862D01*
X84445877Y-58275310D01*
X84252000Y-58256215D01*
X84058122Y-58275310D01*
X83871695Y-58331862D01*
X83699883Y-58423698D01*
X83549288Y-58547288D01*
X83425698Y-58697883D01*
X83333862Y-58869696D01*
X83277310Y-59056123D01*
X83263000Y-59201417D01*
X82726000Y-59201417D01*
X82726000Y-59201416D01*
X82711690Y-59056122D01*
X82655138Y-58869695D01*
X82563302Y-58697883D01*
X82439712Y-58547288D01*
X82289117Y-58423698D01*
X82117304Y-58331862D01*
X81930877Y-58275310D01*
X81737000Y-58256215D01*
X81543122Y-58275310D01*
X81356695Y-58331862D01*
X81184883Y-58423698D01*
X81034288Y-58547288D01*
X80910698Y-58697883D01*
X80818862Y-58869696D01*
X80762310Y-59056123D01*
X80748000Y-59201417D01*
X80132677Y-59201417D01*
X80124440Y-59181533D01*
X80016206Y-59019549D01*
X79878451Y-58881794D01*
X79716467Y-58773560D01*
X79536481Y-58699007D01*
X79345408Y-58661000D01*
X79150592Y-58661000D01*
X78959519Y-58699007D01*
X78779533Y-58773560D01*
X78617549Y-58881794D01*
X78479794Y-59019549D01*
X78371560Y-59181533D01*
X78297007Y-59361519D01*
X78259000Y-59552592D01*
X77726000Y-59552592D01*
X77726000Y-59201416D01*
X77711690Y-59056122D01*
X77655138Y-58869695D01*
X77563302Y-58697883D01*
X77439712Y-58547288D01*
X77289117Y-58423698D01*
X77117304Y-58331862D01*
X76930877Y-58275310D01*
X76737000Y-58256215D01*
X76543122Y-58275310D01*
X76356695Y-58331862D01*
X76184883Y-58423698D01*
X76034288Y-58547288D01*
X75910698Y-58697883D01*
X75818862Y-58869696D01*
X75762310Y-59056123D01*
X75748000Y-59201417D01*
X75233000Y-59201417D01*
X75233000Y-59201416D01*
X75218690Y-59056122D01*
X75162138Y-58869695D01*
X75070302Y-58697883D01*
X74946712Y-58547288D01*
X74796117Y-58423698D01*
X74624304Y-58331862D01*
X74437877Y-58275310D01*
X74244000Y-58256215D01*
X74050122Y-58275310D01*
X73863695Y-58331862D01*
X73691883Y-58423698D01*
X73541288Y-58547288D01*
X73417698Y-58697883D01*
X73325862Y-58869696D01*
X73269310Y-59056123D01*
X73255000Y-59201417D01*
X62161000Y-59201417D01*
X62161000Y-54668101D01*
X64559000Y-54668101D01*
X64559000Y-55059899D01*
X64635436Y-55444170D01*
X64785371Y-55806145D01*
X65003043Y-56131914D01*
X65280086Y-56408957D01*
X65605855Y-56626629D01*
X65967830Y-56776564D01*
X66352101Y-56853000D01*
X66743899Y-56853000D01*
X67128170Y-56776564D01*
X67490145Y-56626629D01*
X67815914Y-56408957D01*
X68092957Y-56131914D01*
X68310629Y-55806145D01*
X68460564Y-55444170D01*
X68537000Y-55059899D01*
X68537000Y-54668101D01*
X68514024Y-54552592D01*
X73259000Y-54552592D01*
X73259000Y-54747408D01*
X73297007Y-54938481D01*
X73371560Y-55118467D01*
X73479794Y-55280451D01*
X73617549Y-55418206D01*
X73779533Y-55526440D01*
X73959519Y-55600993D01*
X74150592Y-55639000D01*
X74345408Y-55639000D01*
X74536481Y-55600993D01*
X74716467Y-55526440D01*
X74878451Y-55418206D01*
X75016206Y-55280451D01*
X75124440Y-55118467D01*
X75198993Y-54938481D01*
X75202445Y-54921125D01*
X77896888Y-54921125D01*
X77959563Y-55100514D01*
X78064525Y-55265183D01*
X78199596Y-55406211D01*
X78359584Y-55518178D01*
X78538342Y-55596781D01*
X78729000Y-55639000D01*
X79129000Y-55639000D01*
X79129000Y-54769000D01*
X79367000Y-54769000D01*
X79367000Y-55639000D01*
X79767000Y-55639000D01*
X79957658Y-55596781D01*
X80136416Y-55518178D01*
X80296404Y-55406211D01*
X80431475Y-55265183D01*
X80536437Y-55100514D01*
X80599112Y-54921125D01*
X80531774Y-54769000D01*
X79367000Y-54769000D01*
X79129000Y-54769000D01*
X77964226Y-54769000D01*
X77896888Y-54921125D01*
X75202445Y-54921125D01*
X75237000Y-54747408D01*
X75237000Y-54552592D01*
X83259000Y-54552592D01*
X83259000Y-54747408D01*
X83297007Y-54938481D01*
X83371560Y-55118467D01*
X83479794Y-55280451D01*
X83617549Y-55418206D01*
X83779533Y-55526440D01*
X83959519Y-55600993D01*
X84150592Y-55639000D01*
X84345408Y-55639000D01*
X84536481Y-55600993D01*
X84716467Y-55526440D01*
X84878451Y-55418206D01*
X85016206Y-55280451D01*
X85124440Y-55118467D01*
X85198993Y-54938481D01*
X85237000Y-54747408D01*
X85237000Y-54552592D01*
X86213000Y-54552592D01*
X86213000Y-54747408D01*
X86251007Y-54938481D01*
X86325560Y-55118467D01*
X86433794Y-55280451D01*
X86571549Y-55418206D01*
X86733533Y-55526440D01*
X86913519Y-55600993D01*
X87104592Y-55639000D01*
X87299408Y-55639000D01*
X87490481Y-55600993D01*
X87670467Y-55526440D01*
X87832451Y-55418206D01*
X87970206Y-55280451D01*
X88078440Y-55118467D01*
X88152993Y-54938481D01*
X88156445Y-54921125D01*
X90850888Y-54921125D01*
X90913563Y-55100514D01*
X91018525Y-55265183D01*
X91153596Y-55406211D01*
X91313584Y-55518178D01*
X91492342Y-55596781D01*
X91683000Y-55639000D01*
X92083000Y-55639000D01*
X92083000Y-54769000D01*
X92321000Y-54769000D01*
X92321000Y-55639000D01*
X92721000Y-55639000D01*
X92911658Y-55596781D01*
X93090416Y-55518178D01*
X93250404Y-55406211D01*
X93385475Y-55265183D01*
X93490437Y-55100514D01*
X93553112Y-54921125D01*
X93485774Y-54769000D01*
X92321000Y-54769000D01*
X92083000Y-54769000D01*
X90918226Y-54769000D01*
X90850888Y-54921125D01*
X88156445Y-54921125D01*
X88191000Y-54747408D01*
X88191000Y-54552592D01*
X96213000Y-54552592D01*
X96213000Y-54747408D01*
X96251007Y-54938481D01*
X96325560Y-55118467D01*
X96433794Y-55280451D01*
X96571549Y-55418206D01*
X96733533Y-55526440D01*
X96913519Y-55600993D01*
X97104592Y-55639000D01*
X97299408Y-55639000D01*
X97490481Y-55600993D01*
X97670467Y-55526440D01*
X97832451Y-55418206D01*
X97970206Y-55280451D01*
X98078440Y-55118467D01*
X98152993Y-54938481D01*
X98191000Y-54747408D01*
X98191000Y-54668101D01*
X103675000Y-54668101D01*
X103675000Y-55059899D01*
X103751436Y-55444170D01*
X103901371Y-55806145D01*
X104119043Y-56131914D01*
X104396086Y-56408957D01*
X104721855Y-56626629D01*
X105083830Y-56776564D01*
X105468101Y-56853000D01*
X105859899Y-56853000D01*
X106244170Y-56776564D01*
X106606145Y-56626629D01*
X106931914Y-56408957D01*
X107208957Y-56131914D01*
X107426629Y-55806145D01*
X107576564Y-55444170D01*
X107653000Y-55059899D01*
X107653000Y-54668101D01*
X107576564Y-54283830D01*
X107426629Y-53921855D01*
X107208957Y-53596086D01*
X106931914Y-53319043D01*
X106606145Y-53101371D01*
X106244170Y-52951436D01*
X105859899Y-52875000D01*
X105468101Y-52875000D01*
X105083830Y-52951436D01*
X104721855Y-53101371D01*
X104396086Y-53319043D01*
X104119043Y-53596086D01*
X103901371Y-53921855D01*
X103751436Y-54283830D01*
X103675000Y-54668101D01*
X98191000Y-54668101D01*
X98191000Y-54552592D01*
X98152993Y-54361519D01*
X98078440Y-54181533D01*
X97970206Y-54019549D01*
X97832451Y-53881794D01*
X97670467Y-53773560D01*
X97490481Y-53699007D01*
X97299408Y-53661000D01*
X97104592Y-53661000D01*
X96913519Y-53699007D01*
X96733533Y-53773560D01*
X96571549Y-53881794D01*
X96433794Y-54019549D01*
X96325560Y-54181533D01*
X96251007Y-54361519D01*
X96213000Y-54552592D01*
X88191000Y-54552592D01*
X88156446Y-54378875D01*
X90850888Y-54378875D01*
X90918226Y-54531000D01*
X92083000Y-54531000D01*
X92083000Y-53661000D01*
X92321000Y-53661000D01*
X92321000Y-54531000D01*
X93485774Y-54531000D01*
X93553112Y-54378875D01*
X93490437Y-54199486D01*
X93385475Y-54034817D01*
X93250404Y-53893789D01*
X93090416Y-53781822D01*
X92911658Y-53703219D01*
X92721000Y-53661000D01*
X92321000Y-53661000D01*
X92083000Y-53661000D01*
X91683000Y-53661000D01*
X91492342Y-53703219D01*
X91313584Y-53781822D01*
X91153596Y-53893789D01*
X91018525Y-54034817D01*
X90913563Y-54199486D01*
X90850888Y-54378875D01*
X88156446Y-54378875D01*
X88152993Y-54361519D01*
X88078440Y-54181533D01*
X87970206Y-54019549D01*
X87832451Y-53881794D01*
X87670467Y-53773560D01*
X87490481Y-53699007D01*
X87299408Y-53661000D01*
X87104592Y-53661000D01*
X86913519Y-53699007D01*
X86733533Y-53773560D01*
X86571549Y-53881794D01*
X86433794Y-54019549D01*
X86325560Y-54181533D01*
X86251007Y-54361519D01*
X86213000Y-54552592D01*
X85237000Y-54552592D01*
X85198993Y-54361519D01*
X85124440Y-54181533D01*
X85016206Y-54019549D01*
X84878451Y-53881794D01*
X84716467Y-53773560D01*
X84536481Y-53699007D01*
X84345408Y-53661000D01*
X84150592Y-53661000D01*
X83959519Y-53699007D01*
X83779533Y-53773560D01*
X83617549Y-53881794D01*
X83479794Y-54019549D01*
X83371560Y-54181533D01*
X83297007Y-54361519D01*
X83259000Y-54552592D01*
X75237000Y-54552592D01*
X75202446Y-54378875D01*
X77896888Y-54378875D01*
X77964226Y-54531000D01*
X79129000Y-54531000D01*
X79129000Y-53661000D01*
X79367000Y-53661000D01*
X79367000Y-54531000D01*
X80531774Y-54531000D01*
X80599112Y-54378875D01*
X80536437Y-54199486D01*
X80431475Y-54034817D01*
X80296404Y-53893789D01*
X80136416Y-53781822D01*
X79957658Y-53703219D01*
X79767000Y-53661000D01*
X79367000Y-53661000D01*
X79129000Y-53661000D01*
X78729000Y-53661000D01*
X78538342Y-53703219D01*
X78359584Y-53781822D01*
X78199596Y-53893789D01*
X78064525Y-54034817D01*
X77959563Y-54199486D01*
X77896888Y-54378875D01*
X75202446Y-54378875D01*
X75198993Y-54361519D01*
X75124440Y-54181533D01*
X75016206Y-54019549D01*
X74878451Y-53881794D01*
X74716467Y-53773560D01*
X74536481Y-53699007D01*
X74345408Y-53661000D01*
X74150592Y-53661000D01*
X73959519Y-53699007D01*
X73779533Y-53773560D01*
X73617549Y-53881794D01*
X73479794Y-54019549D01*
X73371560Y-54181533D01*
X73297007Y-54361519D01*
X73259000Y-54552592D01*
X68514024Y-54552592D01*
X68460564Y-54283830D01*
X68310629Y-53921855D01*
X68092957Y-53596086D01*
X67815914Y-53319043D01*
X67490145Y-53101371D01*
X67128170Y-52951436D01*
X66743899Y-52875000D01*
X66352101Y-52875000D01*
X65967830Y-52951436D01*
X65605855Y-53101371D01*
X65280086Y-53319043D01*
X65003043Y-53596086D01*
X64785371Y-53921855D01*
X64635436Y-54283830D01*
X64559000Y-54668101D01*
X62161000Y-54668101D01*
X62161000Y-53107473D01*
X62212754Y-52579650D01*
X62359806Y-52092590D01*
X62381073Y-52052592D01*
X73259000Y-52052592D01*
X73259000Y-52247408D01*
X73297007Y-52438481D01*
X73371560Y-52618467D01*
X73479794Y-52780451D01*
X73617549Y-52918206D01*
X73779533Y-53026440D01*
X73959519Y-53100993D01*
X74150592Y-53139000D01*
X74345408Y-53139000D01*
X74536481Y-53100993D01*
X74716467Y-53026440D01*
X74878451Y-52918206D01*
X75016206Y-52780451D01*
X75124440Y-52618467D01*
X75198993Y-52438481D01*
X75237000Y-52247408D01*
X75237000Y-52052592D01*
X83259000Y-52052592D01*
X83259000Y-52247408D01*
X83297007Y-52438481D01*
X83371560Y-52618467D01*
X83479794Y-52780451D01*
X83617549Y-52918206D01*
X83779533Y-53026440D01*
X83959519Y-53100993D01*
X84150592Y-53139000D01*
X84345408Y-53139000D01*
X84536481Y-53100993D01*
X84716467Y-53026440D01*
X84878451Y-52918206D01*
X85016206Y-52780451D01*
X85124440Y-52618467D01*
X85198993Y-52438481D01*
X85237000Y-52247408D01*
X85237000Y-52052592D01*
X86213000Y-52052592D01*
X86213000Y-52247408D01*
X86251007Y-52438481D01*
X86325560Y-52618467D01*
X86433794Y-52780451D01*
X86571549Y-52918206D01*
X86733533Y-53026440D01*
X86913519Y-53100993D01*
X87104592Y-53139000D01*
X87299408Y-53139000D01*
X87490481Y-53100993D01*
X87670467Y-53026440D01*
X87832451Y-52918206D01*
X87970206Y-52780451D01*
X88078440Y-52618467D01*
X88152993Y-52438481D01*
X88191000Y-52247408D01*
X88191000Y-52052592D01*
X96213000Y-52052592D01*
X96213000Y-52247408D01*
X96251007Y-52438481D01*
X96325560Y-52618467D01*
X96433794Y-52780451D01*
X96571549Y-52918206D01*
X96733533Y-53026440D01*
X96913519Y-53100993D01*
X97104592Y-53139000D01*
X97299408Y-53139000D01*
X97490481Y-53100993D01*
X97670467Y-53026440D01*
X97832451Y-52918206D01*
X97970206Y-52780451D01*
X98078440Y-52618467D01*
X98152993Y-52438481D01*
X98191000Y-52247408D01*
X98191000Y-52052592D01*
X98152993Y-51861519D01*
X98078440Y-51681533D01*
X97970206Y-51519549D01*
X97832451Y-51381794D01*
X97670467Y-51273560D01*
X97490481Y-51199007D01*
X97299408Y-51161000D01*
X97104592Y-51161000D01*
X96913519Y-51199007D01*
X96733533Y-51273560D01*
X96571549Y-51381794D01*
X96433794Y-51519549D01*
X96325560Y-51681533D01*
X96251007Y-51861519D01*
X96213000Y-52052592D01*
X88191000Y-52052592D01*
X88152993Y-51861519D01*
X88078440Y-51681533D01*
X87970206Y-51519549D01*
X87832451Y-51381794D01*
X87670467Y-51273560D01*
X87490481Y-51199007D01*
X87299408Y-51161000D01*
X87104592Y-51161000D01*
X86913519Y-51199007D01*
X86733533Y-51273560D01*
X86571549Y-51381794D01*
X86433794Y-51519549D01*
X86325560Y-51681533D01*
X86251007Y-51861519D01*
X86213000Y-52052592D01*
X85237000Y-52052592D01*
X85198993Y-51861519D01*
X85124440Y-51681533D01*
X85016206Y-51519549D01*
X84878451Y-51381794D01*
X84716467Y-51273560D01*
X84536481Y-51199007D01*
X84345408Y-51161000D01*
X84150592Y-51161000D01*
X83959519Y-51199007D01*
X83779533Y-51273560D01*
X83617549Y-51381794D01*
X83479794Y-51519549D01*
X83371560Y-51681533D01*
X83297007Y-51861519D01*
X83259000Y-52052592D01*
X75237000Y-52052592D01*
X75198993Y-51861519D01*
X75124440Y-51681533D01*
X75016206Y-51519549D01*
X74878451Y-51381794D01*
X74716467Y-51273560D01*
X74536481Y-51199007D01*
X74345408Y-51161000D01*
X74150592Y-51161000D01*
X73959519Y-51199007D01*
X73779533Y-51273560D01*
X73617549Y-51381794D01*
X73479794Y-51519549D01*
X73371560Y-51681533D01*
X73297007Y-51861519D01*
X73259000Y-52052592D01*
X62381073Y-52052592D01*
X62598661Y-51643368D01*
X62920226Y-51249090D01*
X63312241Y-50924787D01*
X63759789Y-50682799D01*
X64245809Y-50532351D01*
X64772432Y-50477000D01*
X107420527Y-50477000D01*
X107948350Y-50528754D01*
%TA.AperFunction,Conductor*%
D22*
G36*
X107948350Y-50528754D02*
G01*
X108435410Y-50675806D01*
X108884632Y-50914661D01*
X109278910Y-51236226D01*
X109603213Y-51628241D01*
X109845201Y-52075789D01*
X109995649Y-52561809D01*
X110051001Y-53088442D01*
X110051000Y-94212527D01*
X109999246Y-94740350D01*
X109852194Y-95227410D01*
X109613338Y-95676634D01*
X109291774Y-96070910D01*
X108899759Y-96395213D01*
X108452211Y-96637201D01*
X107966190Y-96787649D01*
X107439569Y-96843000D01*
X64791473Y-96843000D01*
X64263650Y-96791246D01*
X63776590Y-96644194D01*
X63327366Y-96405338D01*
X62933090Y-96083774D01*
X62608787Y-95691759D01*
X62366799Y-95244211D01*
X62216351Y-94758190D01*
X62161000Y-94231569D01*
X62161000Y-92260101D01*
X64559000Y-92260101D01*
X64559000Y-92651899D01*
X64635436Y-93036170D01*
X64785371Y-93398145D01*
X65003043Y-93723914D01*
X65280086Y-94000957D01*
X65605855Y-94218629D01*
X65967830Y-94368564D01*
X66352101Y-94445000D01*
X66743899Y-94445000D01*
X67128170Y-94368564D01*
X67490145Y-94218629D01*
X67815914Y-94000957D01*
X68092957Y-93723914D01*
X68310629Y-93398145D01*
X68363444Y-93270638D01*
X84346000Y-93270638D01*
X84346000Y-93667362D01*
X84423397Y-94056462D01*
X84575216Y-94422987D01*
X84795624Y-94752850D01*
X85076150Y-95033376D01*
X85406013Y-95253784D01*
X85772538Y-95405603D01*
X86161638Y-95483000D01*
X86558362Y-95483000D01*
X86947462Y-95405603D01*
X87313987Y-95253784D01*
X87643850Y-95033376D01*
X87924376Y-94752850D01*
X88144784Y-94422987D01*
X88296603Y-94056462D01*
X88374000Y-93667362D01*
X88374000Y-93270638D01*
X97046000Y-93270638D01*
X97046000Y-93667362D01*
X97123397Y-94056462D01*
X97275216Y-94422987D01*
X97495624Y-94752850D01*
X97776150Y-95033376D01*
X98106013Y-95253784D01*
X98472538Y-95405603D01*
X98861638Y-95483000D01*
X99258362Y-95483000D01*
X99647462Y-95405603D01*
X100013987Y-95253784D01*
X100343850Y-95033376D01*
X100624376Y-94752850D01*
X100844784Y-94422987D01*
X100996603Y-94056462D01*
X101074000Y-93667362D01*
X101074000Y-93270638D01*
X100996603Y-92881538D01*
X100844784Y-92515013D01*
X100674457Y-92260101D01*
X103675000Y-92260101D01*
X103675000Y-92651899D01*
X103751436Y-93036170D01*
X103901371Y-93398145D01*
X104119043Y-93723914D01*
X104396086Y-94000957D01*
X104721855Y-94218629D01*
X105083830Y-94368564D01*
X105468101Y-94445000D01*
X105859899Y-94445000D01*
X106244170Y-94368564D01*
X106606145Y-94218629D01*
X106931914Y-94000957D01*
X107208957Y-93723914D01*
X107426629Y-93398145D01*
X107576564Y-93036170D01*
X107653000Y-92651899D01*
X107653000Y-92260101D01*
X107576564Y-91875830D01*
X107426629Y-91513855D01*
X107208957Y-91188086D01*
X106931914Y-90911043D01*
X106606145Y-90693371D01*
X106244170Y-90543436D01*
X105859899Y-90467000D01*
X105468101Y-90467000D01*
X105083830Y-90543436D01*
X104721855Y-90693371D01*
X104396086Y-90911043D01*
X104119043Y-91188086D01*
X103901371Y-91513855D01*
X103751436Y-91875830D01*
X103675000Y-92260101D01*
X100674457Y-92260101D01*
X100624376Y-92185150D01*
X100343850Y-91904624D01*
X100013987Y-91684216D01*
X99647462Y-91532397D01*
X99258362Y-91455000D01*
X98861638Y-91455000D01*
X98472538Y-91532397D01*
X98106013Y-91684216D01*
X97776150Y-91904624D01*
X97495624Y-92185150D01*
X97275216Y-92515013D01*
X97123397Y-92881538D01*
X97046000Y-93270638D01*
X88374000Y-93270638D01*
X88296603Y-92881538D01*
X88144784Y-92515013D01*
X87924376Y-92185150D01*
X87643850Y-91904624D01*
X87313987Y-91684216D01*
X86947462Y-91532397D01*
X86558362Y-91455000D01*
X86161638Y-91455000D01*
X85772538Y-91532397D01*
X85406013Y-91684216D01*
X85076150Y-91904624D01*
X84795624Y-92185150D01*
X84575216Y-92515013D01*
X84423397Y-92881538D01*
X84346000Y-93270638D01*
X68363444Y-93270638D01*
X68460564Y-93036170D01*
X68537000Y-92651899D01*
X68537000Y-92260101D01*
X68460564Y-91875830D01*
X68310629Y-91513855D01*
X68276194Y-91462318D01*
X73596923Y-91462318D01*
X73609580Y-91527336D01*
X73708123Y-91761184D01*
X73850394Y-91971314D01*
X74030925Y-92149651D01*
X74242779Y-92289341D01*
X74477815Y-92385016D01*
X74727000Y-92433000D01*
X75827000Y-92433000D01*
X75827000Y-91263000D01*
X76065000Y-91263000D01*
X76065000Y-92433000D01*
X77165000Y-92433000D01*
X77414185Y-92385016D01*
X77649221Y-92289341D01*
X77861075Y-92149651D01*
X78041606Y-91971314D01*
X78183877Y-91761184D01*
X78282420Y-91527336D01*
X78295077Y-91462318D01*
X78233157Y-91267290D01*
X83548002Y-91267290D01*
X83695722Y-91496721D01*
X83997424Y-91646513D01*
X84322552Y-91734566D01*
X84658611Y-91757498D01*
X84992686Y-91714428D01*
X85311940Y-91607011D01*
X85518278Y-91496721D01*
X85665998Y-91267290D01*
X84607000Y-90208291D01*
X83548002Y-91267290D01*
X78233157Y-91267290D01*
X78231794Y-91263000D01*
X76065000Y-91263000D01*
X75827000Y-91263000D01*
X73660206Y-91263000D01*
X73596923Y-91462318D01*
X68276194Y-91462318D01*
X68092957Y-91188086D01*
X67815914Y-90911043D01*
X67688163Y-90825682D01*
X73596923Y-90825682D01*
X73660206Y-91025000D01*
X75827000Y-91025000D01*
X75827000Y-89855000D01*
X76065000Y-89855000D01*
X76065000Y-91025000D01*
X78231794Y-91025000D01*
X78295077Y-90825682D01*
X78282420Y-90760664D01*
X78183877Y-90526816D01*
X78041606Y-90316686D01*
X77861075Y-90138349D01*
X77649221Y-89998659D01*
X77414185Y-89902984D01*
X77165000Y-89855000D01*
X76065000Y-89855000D01*
X75827000Y-89855000D01*
X74727000Y-89855000D01*
X74477815Y-89902984D01*
X74242779Y-89998659D01*
X74030925Y-90138349D01*
X73850394Y-90316686D01*
X73708123Y-90526816D01*
X73609580Y-90760664D01*
X73596923Y-90825682D01*
X67688163Y-90825682D01*
X67490145Y-90693371D01*
X67128170Y-90543436D01*
X66743899Y-90467000D01*
X66352101Y-90467000D01*
X65967830Y-90543436D01*
X65605855Y-90693371D01*
X65280086Y-90911043D01*
X65003043Y-91188086D01*
X64785371Y-91513855D01*
X64635436Y-91875830D01*
X64559000Y-92260101D01*
X62161000Y-92260101D01*
X62161000Y-88463000D01*
X79457000Y-88463000D01*
X79457000Y-89563000D01*
X79504984Y-89812185D01*
X79600659Y-90047221D01*
X79740349Y-90259075D01*
X79918686Y-90439606D01*
X80128816Y-90581877D01*
X80362664Y-90680420D01*
X80427682Y-90693077D01*
X80627000Y-90629794D01*
X80627000Y-88463000D01*
X80865000Y-88463000D01*
X80865000Y-90629794D01*
X81064318Y-90693077D01*
X81129336Y-90680420D01*
X81363184Y-90581877D01*
X81573314Y-90439606D01*
X81751651Y-90259075D01*
X81862071Y-90091611D01*
X82889502Y-90091611D01*
X82932572Y-90425686D01*
X83039989Y-90744940D01*
X83150279Y-90951278D01*
X83379710Y-91098998D01*
X84438709Y-90040000D01*
X84775291Y-90040000D01*
X85834290Y-91098998D01*
X86063721Y-90951278D01*
X86213513Y-90649576D01*
X86301566Y-90324448D01*
X86324498Y-89988389D01*
X86281428Y-89654314D01*
X86174011Y-89335060D01*
X86063721Y-89128722D01*
X85921059Y-89036868D01*
X88015500Y-89036868D01*
X88015500Y-89261132D01*
X88059252Y-89481088D01*
X88145074Y-89688282D01*
X88269669Y-89874752D01*
X88428248Y-90033331D01*
X88614718Y-90157926D01*
X88821912Y-90243748D01*
X89041868Y-90287500D01*
X89229374Y-90287500D01*
X89161074Y-90389718D01*
X89075252Y-90596912D01*
X89031500Y-90816868D01*
X89031500Y-91041132D01*
X89075252Y-91261088D01*
X89161074Y-91468282D01*
X89285669Y-91654752D01*
X89444248Y-91813331D01*
X89630718Y-91937926D01*
X89837912Y-92023748D01*
X90057868Y-92067500D01*
X90282132Y-92067500D01*
X90502088Y-92023748D01*
X90709282Y-91937926D01*
X90895752Y-91813331D01*
X91054331Y-91654752D01*
X91178926Y-91468282D01*
X91186000Y-91451204D01*
X91193074Y-91468282D01*
X91317669Y-91654752D01*
X91476248Y-91813331D01*
X91662718Y-91937926D01*
X91869912Y-92023748D01*
X92089868Y-92067500D01*
X92314132Y-92067500D01*
X92534088Y-92023748D01*
X92741282Y-91937926D01*
X92927752Y-91813331D01*
X92992565Y-91748518D01*
X93582774Y-91748518D01*
X93661490Y-91919449D01*
X93865717Y-92012109D01*
X94084098Y-92063146D01*
X94308238Y-92070598D01*
X94529526Y-92034179D01*
X94739457Y-91955289D01*
X94806510Y-91919449D01*
X94885226Y-91748518D01*
X94234000Y-91097291D01*
X93582774Y-91748518D01*
X92992565Y-91748518D01*
X93086331Y-91654752D01*
X93210926Y-91468282D01*
X93217416Y-91452614D01*
X93243551Y-91501510D01*
X93414482Y-91580226D01*
X94065709Y-90929000D01*
X94051566Y-90914858D01*
X94219858Y-90746566D01*
X94234000Y-90760709D01*
X94248142Y-90746566D01*
X94416434Y-90914858D01*
X94402291Y-90929000D01*
X95053518Y-91580226D01*
X95125618Y-91547023D01*
X95125618Y-91678500D01*
X95133129Y-91754757D01*
X95155372Y-91828084D01*
X95191493Y-91895662D01*
X95240105Y-91954895D01*
X95299338Y-92003507D01*
X95366916Y-92039628D01*
X95440243Y-92061871D01*
X95516500Y-92069382D01*
X97015500Y-92069382D01*
X97091757Y-92061871D01*
X97165084Y-92039628D01*
X97232662Y-92003507D01*
X97291895Y-91954895D01*
X97340507Y-91895662D01*
X97376628Y-91828084D01*
X97398871Y-91754757D01*
X97406382Y-91678500D01*
X97406382Y-91267290D01*
X99754002Y-91267290D01*
X99901722Y-91496721D01*
X100203424Y-91646513D01*
X100528552Y-91734566D01*
X100864611Y-91757498D01*
X101198686Y-91714428D01*
X101517940Y-91607011D01*
X101724278Y-91496721D01*
X101871998Y-91267290D01*
X100813000Y-90208291D01*
X99754002Y-91267290D01*
X97406382Y-91267290D01*
X97406382Y-90179500D01*
X97398871Y-90103243D01*
X97395343Y-90091611D01*
X99095502Y-90091611D01*
X99138572Y-90425686D01*
X99245989Y-90744940D01*
X99356279Y-90951278D01*
X99585710Y-91098998D01*
X100644709Y-90040000D01*
X100981291Y-90040000D01*
X102040290Y-91098998D01*
X102269721Y-90951278D01*
X102419513Y-90649576D01*
X102507566Y-90324448D01*
X102530498Y-89988389D01*
X102487428Y-89654314D01*
X102380011Y-89335060D01*
X102269721Y-89128722D01*
X102040290Y-88981002D01*
X100981291Y-90040000D01*
X100644709Y-90040000D01*
X99585710Y-88981002D01*
X99356279Y-89128722D01*
X99206487Y-89430424D01*
X99118434Y-89755552D01*
X99095502Y-90091611D01*
X97395343Y-90091611D01*
X97376628Y-90029916D01*
X97340507Y-89962338D01*
X97291895Y-89903105D01*
X97232662Y-89854493D01*
X97165084Y-89818372D01*
X97091757Y-89796129D01*
X97015500Y-89788618D01*
X96191884Y-89788618D01*
X96258926Y-89688282D01*
X96259043Y-89688000D01*
X98022531Y-89688000D01*
X98049000Y-89690607D01*
X98154662Y-89680200D01*
X98256264Y-89649380D01*
X98349901Y-89599330D01*
X98431974Y-89531974D01*
X98448853Y-89511407D01*
X99147550Y-88812710D01*
X99754002Y-88812710D01*
X100813000Y-89871709D01*
X101871998Y-88812710D01*
X101724278Y-88583279D01*
X101422576Y-88433487D01*
X101097448Y-88345434D01*
X100761389Y-88322502D01*
X100427314Y-88365572D01*
X100108060Y-88472989D01*
X99901722Y-88583279D01*
X99754002Y-88812710D01*
X99147550Y-88812710D01*
X101573261Y-86387000D01*
X101677710Y-86387000D01*
X101830143Y-86356680D01*
X101973732Y-86297203D01*
X102102958Y-86210857D01*
X102212857Y-86100958D01*
X102299203Y-85971732D01*
X102358680Y-85828143D01*
X102389000Y-85675710D01*
X102389000Y-85520290D01*
X102358680Y-85367857D01*
X102299203Y-85224268D01*
X102212857Y-85095042D01*
X102102958Y-84985143D01*
X101973732Y-84898797D01*
X101830143Y-84839320D01*
X101677710Y-84809000D01*
X101522290Y-84809000D01*
X101369857Y-84839320D01*
X101226268Y-84898797D01*
X101097042Y-84985143D01*
X100987143Y-85095042D01*
X100900797Y-85224268D01*
X100841320Y-85367857D01*
X100811000Y-85520290D01*
X100811000Y-85624739D01*
X97825740Y-88610000D01*
X96259043Y-88610000D01*
X96258926Y-88609718D01*
X96134331Y-88423248D01*
X95975752Y-88264669D01*
X95789282Y-88140074D01*
X95582088Y-88054252D01*
X95362132Y-88010500D01*
X95137868Y-88010500D01*
X94917912Y-88054252D01*
X94710718Y-88140074D01*
X94524248Y-88264669D01*
X94365669Y-88423248D01*
X94241074Y-88609718D01*
X94234000Y-88626796D01*
X94226926Y-88609718D01*
X94102331Y-88423248D01*
X93943752Y-88264669D01*
X93757282Y-88140074D01*
X93550088Y-88054252D01*
X93330132Y-88010500D01*
X93105868Y-88010500D01*
X92885912Y-88054252D01*
X92678718Y-88140074D01*
X92492248Y-88264669D01*
X92333669Y-88423248D01*
X92209074Y-88609718D01*
X92202584Y-88625386D01*
X92176449Y-88576490D01*
X92005518Y-88497774D01*
X91354291Y-89149000D01*
X91368434Y-89163142D01*
X91200142Y-89331434D01*
X91186000Y-89317291D01*
X91171858Y-89331434D01*
X91003566Y-89163142D01*
X91017709Y-89149000D01*
X90366482Y-88497774D01*
X90195551Y-88576490D01*
X90171301Y-88629938D01*
X90162926Y-88609718D01*
X90038331Y-88423248D01*
X89944565Y-88329482D01*
X90534774Y-88329482D01*
X91186000Y-88980709D01*
X91837226Y-88329482D01*
X91758510Y-88158551D01*
X91554283Y-88065891D01*
X91335902Y-88014854D01*
X91111762Y-88007402D01*
X90890474Y-88043821D01*
X90680543Y-88122711D01*
X90613490Y-88158551D01*
X90534774Y-88329482D01*
X89944565Y-88329482D01*
X89879752Y-88264669D01*
X89693282Y-88140074D01*
X89486088Y-88054252D01*
X89266132Y-88010500D01*
X89041868Y-88010500D01*
X88821912Y-88054252D01*
X88614718Y-88140074D01*
X88428248Y-88264669D01*
X88269669Y-88423248D01*
X88145074Y-88609718D01*
X88059252Y-88816912D01*
X88015500Y-89036868D01*
X85921059Y-89036868D01*
X85834290Y-88981002D01*
X84775291Y-90040000D01*
X84438709Y-90040000D01*
X83379710Y-88981002D01*
X83150279Y-89128722D01*
X83000487Y-89430424D01*
X82912434Y-89755552D01*
X82889502Y-90091611D01*
X81862071Y-90091611D01*
X81891341Y-90047221D01*
X81987016Y-89812185D01*
X82035000Y-89563000D01*
X82035000Y-88812710D01*
X83548002Y-88812710D01*
X84607000Y-89871709D01*
X85665998Y-88812710D01*
X85518278Y-88583279D01*
X85216576Y-88433487D01*
X84891448Y-88345434D01*
X84555389Y-88322502D01*
X84221314Y-88365572D01*
X83902060Y-88472989D01*
X83695722Y-88583279D01*
X83548002Y-88812710D01*
X82035000Y-88812710D01*
X82035000Y-88463000D01*
X80865000Y-88463000D01*
X80627000Y-88463000D01*
X79457000Y-88463000D01*
X62161000Y-88463000D01*
X62161000Y-87125000D01*
X79457000Y-87125000D01*
X79457000Y-88225000D01*
X80627000Y-88225000D01*
X80627000Y-86058206D01*
X80865000Y-86058206D01*
X80865000Y-88225000D01*
X82035000Y-88225000D01*
X82035000Y-87125000D01*
X81987016Y-86875815D01*
X81891341Y-86640779D01*
X81751651Y-86428925D01*
X81573314Y-86248394D01*
X81363184Y-86106123D01*
X81129336Y-86007580D01*
X81064318Y-85994923D01*
X80865000Y-86058206D01*
X80627000Y-86058206D01*
X80427682Y-85994923D01*
X80362664Y-86007580D01*
X80128816Y-86106123D01*
X79918686Y-86248394D01*
X79740349Y-86428925D01*
X79600659Y-86640779D01*
X79504984Y-86875815D01*
X79457000Y-87125000D01*
X62161000Y-87125000D01*
X62161000Y-84444000D01*
X73355118Y-84444000D01*
X73355118Y-86244000D01*
X73362629Y-86320257D01*
X73384872Y-86393584D01*
X73420993Y-86461162D01*
X73469605Y-86520395D01*
X73528838Y-86569007D01*
X73596416Y-86605128D01*
X73669743Y-86627371D01*
X73746000Y-86634882D01*
X78146000Y-86634882D01*
X78222257Y-86627371D01*
X78295584Y-86605128D01*
X78363162Y-86569007D01*
X78422395Y-86520395D01*
X78471007Y-86461162D01*
X78507128Y-86393584D01*
X78529371Y-86320257D01*
X78536882Y-86244000D01*
X78536882Y-84444000D01*
X78529371Y-84367743D01*
X78507128Y-84294416D01*
X78471007Y-84226838D01*
X78464467Y-84218868D01*
X84710500Y-84218868D01*
X84710500Y-84443132D01*
X84754252Y-84663088D01*
X84840074Y-84870282D01*
X84964669Y-85056752D01*
X85123248Y-85215331D01*
X85309718Y-85339926D01*
X85516912Y-85425748D01*
X85736868Y-85469500D01*
X85961132Y-85469500D01*
X86181088Y-85425748D01*
X86388282Y-85339926D01*
X86574752Y-85215331D01*
X86639565Y-85150518D01*
X87489774Y-85150518D01*
X87568490Y-85321449D01*
X87772717Y-85414109D01*
X87991098Y-85465146D01*
X88215238Y-85472598D01*
X88436526Y-85436179D01*
X88646457Y-85357289D01*
X88713510Y-85321449D01*
X88792226Y-85150518D01*
X88141000Y-84499291D01*
X87489774Y-85150518D01*
X86639565Y-85150518D01*
X86733331Y-85056752D01*
X86857926Y-84870282D01*
X86943748Y-84663088D01*
X86987500Y-84443132D01*
X86987500Y-84405238D01*
X86999402Y-84405238D01*
X87035821Y-84626526D01*
X87114711Y-84836457D01*
X87150551Y-84903510D01*
X87321482Y-84982226D01*
X87972709Y-84331000D01*
X88309291Y-84331000D01*
X88960518Y-84982226D01*
X89131449Y-84903510D01*
X89224109Y-84699283D01*
X89275146Y-84480902D01*
X89282598Y-84256762D01*
X89246179Y-84035474D01*
X89167289Y-83825543D01*
X89131449Y-83758490D01*
X88960518Y-83679774D01*
X88309291Y-84331000D01*
X87972709Y-84331000D01*
X87321482Y-83679774D01*
X87150551Y-83758490D01*
X87057891Y-83962717D01*
X87006854Y-84181098D01*
X86999402Y-84405238D01*
X86987500Y-84405238D01*
X86987500Y-84218868D01*
X86943748Y-83998912D01*
X86857926Y-83791718D01*
X86733331Y-83605248D01*
X86639565Y-83511482D01*
X87489774Y-83511482D01*
X88141000Y-84162709D01*
X88792226Y-83511482D01*
X88713510Y-83340551D01*
X88509283Y-83247891D01*
X88290902Y-83196854D01*
X88066762Y-83189402D01*
X87845474Y-83225821D01*
X87635543Y-83304711D01*
X87568490Y-83340551D01*
X87489774Y-83511482D01*
X86639565Y-83511482D01*
X86574752Y-83446669D01*
X86388282Y-83322074D01*
X86181088Y-83236252D01*
X85961132Y-83192500D01*
X85736868Y-83192500D01*
X85516912Y-83236252D01*
X85309718Y-83322074D01*
X85123248Y-83446669D01*
X84964669Y-83605248D01*
X84840074Y-83791718D01*
X84754252Y-83998912D01*
X84710500Y-84218868D01*
X78464467Y-84218868D01*
X78422395Y-84167605D01*
X78363162Y-84118993D01*
X78295584Y-84082872D01*
X78222257Y-84060629D01*
X78146000Y-84053118D01*
X73746000Y-84053118D01*
X73669743Y-84060629D01*
X73596416Y-84082872D01*
X73528838Y-84118993D01*
X73469605Y-84167605D01*
X73420993Y-84226838D01*
X73384872Y-84294416D01*
X73362629Y-84367743D01*
X73355118Y-84444000D01*
X62161000Y-84444000D01*
X62161000Y-79678290D01*
X89635000Y-79678290D01*
X89635000Y-79833710D01*
X89665320Y-79986143D01*
X89724797Y-80129732D01*
X89811143Y-80258958D01*
X89921042Y-80368857D01*
X90050268Y-80455203D01*
X90193857Y-80514680D01*
X90346290Y-80545000D01*
X90450740Y-80545000D01*
X94599151Y-84693412D01*
X94616026Y-84713974D01*
X94698099Y-84781330D01*
X94791736Y-84831380D01*
X94862517Y-84852851D01*
X94893337Y-84862200D01*
X94903482Y-84863199D01*
X94972531Y-84870000D01*
X94972538Y-84870000D01*
X94998999Y-84872606D01*
X95025460Y-84870000D01*
X96269957Y-84870000D01*
X96270074Y-84870282D01*
X96394669Y-85056752D01*
X96553248Y-85215331D01*
X96739718Y-85339926D01*
X96946912Y-85425748D01*
X97166868Y-85469500D01*
X97391132Y-85469500D01*
X97611088Y-85425748D01*
X97818282Y-85339926D01*
X98004752Y-85215331D01*
X98163331Y-85056752D01*
X98287926Y-84870282D01*
X98373748Y-84663088D01*
X98417500Y-84443132D01*
X98417500Y-84218868D01*
X98432500Y-84218868D01*
X98432500Y-84443132D01*
X98476252Y-84663088D01*
X98562074Y-84870282D01*
X98686669Y-85056752D01*
X98845248Y-85215331D01*
X99031718Y-85339926D01*
X99238912Y-85425748D01*
X99458868Y-85469500D01*
X99683132Y-85469500D01*
X99903088Y-85425748D01*
X100110282Y-85339926D01*
X100296752Y-85215331D01*
X100455331Y-85056752D01*
X100579926Y-84870282D01*
X100665748Y-84663088D01*
X100709500Y-84443132D01*
X100709500Y-84218868D01*
X100665748Y-83998912D01*
X100579926Y-83791718D01*
X100455331Y-83605248D01*
X100296752Y-83446669D01*
X100110282Y-83322074D01*
X100110000Y-83321957D01*
X100110000Y-80583815D01*
X100180857Y-80512958D01*
X100267203Y-80383732D01*
X100326680Y-80240143D01*
X100357000Y-80087710D01*
X100357000Y-79932290D01*
X100326680Y-79779857D01*
X100267203Y-79636268D01*
X100180857Y-79507042D01*
X100070958Y-79397143D01*
X99941732Y-79310797D01*
X99798143Y-79251320D01*
X99645710Y-79221000D01*
X99490290Y-79221000D01*
X99337857Y-79251320D01*
X99194268Y-79310797D01*
X99065042Y-79397143D01*
X98955143Y-79507042D01*
X98868797Y-79636268D01*
X98809320Y-79779857D01*
X98779000Y-79932290D01*
X98779000Y-80087710D01*
X98809320Y-80240143D01*
X98868797Y-80383732D01*
X98955143Y-80512958D01*
X99032001Y-80589816D01*
X99032000Y-83321957D01*
X99031718Y-83322074D01*
X98845248Y-83446669D01*
X98686669Y-83605248D01*
X98562074Y-83791718D01*
X98476252Y-83998912D01*
X98432500Y-84218868D01*
X98417500Y-84218868D01*
X98373748Y-83998912D01*
X98287926Y-83791718D01*
X98163331Y-83605248D01*
X98004752Y-83446669D01*
X97818282Y-83322074D01*
X97611088Y-83236252D01*
X97391132Y-83192500D01*
X97166868Y-83192500D01*
X96946912Y-83236252D01*
X96739718Y-83322074D01*
X96553248Y-83446669D01*
X96394669Y-83605248D01*
X96270074Y-83791718D01*
X96269957Y-83792000D01*
X95222261Y-83792000D01*
X91213000Y-79782740D01*
X91213000Y-79678290D01*
X91182680Y-79525857D01*
X91123203Y-79382268D01*
X91036857Y-79253042D01*
X90926958Y-79143143D01*
X90797732Y-79056797D01*
X90654143Y-78997320D01*
X90501710Y-78967000D01*
X90346290Y-78967000D01*
X90193857Y-78997320D01*
X90050268Y-79056797D01*
X89921042Y-79143143D01*
X89811143Y-79253042D01*
X89724797Y-79382268D01*
X89665320Y-79525857D01*
X89635000Y-79678290D01*
X62161000Y-79678290D01*
X62161000Y-72058290D01*
X79475000Y-72058290D01*
X79475000Y-72213710D01*
X79505320Y-72366143D01*
X79564797Y-72509732D01*
X79651143Y-72638958D01*
X79761042Y-72748857D01*
X79890268Y-72835203D01*
X80033857Y-72894680D01*
X80186290Y-72925000D01*
X80341710Y-72925000D01*
X80494143Y-72894680D01*
X80637732Y-72835203D01*
X80766958Y-72748857D01*
X80876857Y-72638958D01*
X80963203Y-72509732D01*
X81022680Y-72366143D01*
X81043820Y-72259861D01*
X86071391Y-67232290D01*
X89381000Y-67232290D01*
X89381000Y-67387710D01*
X89411320Y-67540143D01*
X89470797Y-67683732D01*
X89557143Y-67812958D01*
X89646000Y-67901815D01*
X89646001Y-69824261D01*
X89643466Y-69850000D01*
X89653583Y-69952722D01*
X89683546Y-70051496D01*
X89732202Y-70142527D01*
X89781276Y-70202323D01*
X89781281Y-70202328D01*
X89797685Y-70222316D01*
X89817673Y-70238720D01*
X94861280Y-75282328D01*
X94877684Y-75302316D01*
X94897672Y-75318720D01*
X94897676Y-75318724D01*
X94957472Y-75367798D01*
X95006129Y-75393805D01*
X95048504Y-75416455D01*
X95147278Y-75446418D01*
X95224261Y-75454000D01*
X95224271Y-75454000D01*
X95250000Y-75456534D01*
X95275729Y-75454000D01*
X101516185Y-75454000D01*
X101605042Y-75542857D01*
X101734268Y-75629203D01*
X101877857Y-75688680D01*
X102030290Y-75719000D01*
X102185710Y-75719000D01*
X102338143Y-75688680D01*
X102481732Y-75629203D01*
X102610958Y-75542857D01*
X102720857Y-75432958D01*
X102807203Y-75303732D01*
X102866680Y-75160143D01*
X102897000Y-75007710D01*
X102897000Y-74852290D01*
X102866680Y-74699857D01*
X102807203Y-74556268D01*
X102720857Y-74427042D01*
X102610958Y-74317143D01*
X102481732Y-74230797D01*
X102338143Y-74171320D01*
X102185710Y-74141000D01*
X102030290Y-74141000D01*
X101877857Y-74171320D01*
X101734268Y-74230797D01*
X101605042Y-74317143D01*
X101516185Y-74406000D01*
X95467048Y-74406000D01*
X90694000Y-69632953D01*
X90694000Y-67901815D01*
X90768160Y-67827655D01*
X90780722Y-67826418D01*
X90879496Y-67796455D01*
X90970527Y-67747798D01*
X91050316Y-67682316D01*
X91066724Y-67662323D01*
X92154048Y-66575000D01*
X92279710Y-66575000D01*
X92432143Y-66544680D01*
X92575732Y-66485203D01*
X92704958Y-66398857D01*
X92814857Y-66288958D01*
X92901203Y-66159732D01*
X92960680Y-66016143D01*
X92991000Y-65863710D01*
X92991000Y-65708290D01*
X92960680Y-65555857D01*
X92901203Y-65412268D01*
X92814857Y-65283042D01*
X92704958Y-65173143D01*
X92575732Y-65086797D01*
X92432143Y-65027320D01*
X92279710Y-64997000D01*
X92124290Y-64997000D01*
X91971857Y-65027320D01*
X91828268Y-65086797D01*
X91699042Y-65173143D01*
X91589143Y-65283042D01*
X91502797Y-65412268D01*
X91443320Y-65555857D01*
X91413000Y-65708290D01*
X91413000Y-65833952D01*
X90599136Y-66647817D01*
X90543732Y-66610797D01*
X90400143Y-66551320D01*
X90247710Y-66521000D01*
X90092290Y-66521000D01*
X89939857Y-66551320D01*
X89796268Y-66610797D01*
X89667042Y-66697143D01*
X89557143Y-66807042D01*
X89470797Y-66936268D01*
X89411320Y-67079857D01*
X89381000Y-67232290D01*
X86071391Y-67232290D01*
X89672682Y-63631000D01*
X94786168Y-63631000D01*
X94876268Y-63691203D01*
X95019857Y-63750680D01*
X95172290Y-63781000D01*
X95327710Y-63781000D01*
X95480143Y-63750680D01*
X95623732Y-63691203D01*
X95752958Y-63604857D01*
X95862857Y-63494958D01*
X95949203Y-63365732D01*
X96008680Y-63222143D01*
X96039000Y-63069710D01*
X96039000Y-62914290D01*
X96008680Y-62761857D01*
X95949203Y-62618268D01*
X95862857Y-62489042D01*
X95752958Y-62379143D01*
X95623732Y-62292797D01*
X95480143Y-62233320D01*
X95327710Y-62203000D01*
X95172290Y-62203000D01*
X95019857Y-62233320D01*
X94876268Y-62292797D01*
X94786168Y-62353000D01*
X89439382Y-62353000D01*
X89408000Y-62349909D01*
X89376618Y-62353000D01*
X89282734Y-62362247D01*
X89162282Y-62398785D01*
X89051273Y-62458121D01*
X88953973Y-62537973D01*
X88933964Y-62562354D01*
X80140139Y-71356180D01*
X80033857Y-71377320D01*
X79890268Y-71436797D01*
X79761042Y-71523143D01*
X79651143Y-71633042D01*
X79564797Y-71762268D01*
X79505320Y-71905857D01*
X79475000Y-72058290D01*
X62161000Y-72058290D01*
X62161000Y-59201417D01*
X73255000Y-59201417D01*
X73255000Y-60098584D01*
X73269311Y-60243878D01*
X73325863Y-60430305D01*
X73417699Y-60602117D01*
X73541289Y-60752712D01*
X73691884Y-60876302D01*
X73863696Y-60968138D01*
X74050123Y-61024690D01*
X74244000Y-61043785D01*
X74437878Y-61024690D01*
X74624305Y-60968138D01*
X74796117Y-60876302D01*
X74946712Y-60752712D01*
X75070302Y-60602117D01*
X75162138Y-60430305D01*
X75218690Y-60243877D01*
X75233000Y-60098583D01*
X75233000Y-59201417D01*
X75748000Y-59201417D01*
X75748000Y-60098584D01*
X75762311Y-60243878D01*
X75818863Y-60430305D01*
X75910699Y-60602117D01*
X76034289Y-60752712D01*
X76184884Y-60876302D01*
X76356696Y-60968138D01*
X76543123Y-61024690D01*
X76737000Y-61043785D01*
X76930878Y-61024690D01*
X77117305Y-60968138D01*
X77289117Y-60876302D01*
X77439712Y-60752712D01*
X77563302Y-60602117D01*
X77655138Y-60430305D01*
X77711690Y-60243877D01*
X77726000Y-60098583D01*
X77726000Y-59552592D01*
X78259000Y-59552592D01*
X78259000Y-59747408D01*
X78297007Y-59938481D01*
X78371560Y-60118467D01*
X78479794Y-60280451D01*
X78617549Y-60418206D01*
X78779533Y-60526440D01*
X78959519Y-60600993D01*
X79150592Y-60639000D01*
X79345408Y-60639000D01*
X79536481Y-60600993D01*
X79716467Y-60526440D01*
X79878451Y-60418206D01*
X80016206Y-60280451D01*
X80124440Y-60118467D01*
X80198993Y-59938481D01*
X80237000Y-59747408D01*
X80237000Y-59552592D01*
X80198993Y-59361519D01*
X80132677Y-59201417D01*
X80748000Y-59201417D01*
X80748000Y-60098584D01*
X80762311Y-60243878D01*
X80818863Y-60430305D01*
X80910699Y-60602117D01*
X81034289Y-60752712D01*
X81184884Y-60876302D01*
X81356696Y-60968138D01*
X81543123Y-61024690D01*
X81737000Y-61043785D01*
X81930878Y-61024690D01*
X82117305Y-60968138D01*
X82289117Y-60876302D01*
X82439712Y-60752712D01*
X82563302Y-60602117D01*
X82655138Y-60430305D01*
X82711690Y-60243877D01*
X82726000Y-60098583D01*
X82726000Y-59201417D01*
X83263000Y-59201417D01*
X83263000Y-60098584D01*
X83277311Y-60243878D01*
X83333863Y-60430305D01*
X83425699Y-60602117D01*
X83549289Y-60752712D01*
X83699884Y-60876302D01*
X83871696Y-60968138D01*
X84058123Y-61024690D01*
X84252000Y-61043785D01*
X84445878Y-61024690D01*
X84632305Y-60968138D01*
X84804117Y-60876302D01*
X84954712Y-60752712D01*
X85078302Y-60602117D01*
X85170138Y-60430305D01*
X85226690Y-60243877D01*
X85241000Y-60098583D01*
X85241000Y-59201417D01*
X86209000Y-59201417D01*
X86209000Y-60098584D01*
X86223311Y-60243878D01*
X86279863Y-60430305D01*
X86371699Y-60602117D01*
X86495289Y-60752712D01*
X86645884Y-60876302D01*
X86817696Y-60968138D01*
X87004123Y-61024690D01*
X87198000Y-61043785D01*
X87391878Y-61024690D01*
X87578305Y-60968138D01*
X87750117Y-60876302D01*
X87900712Y-60752712D01*
X88024302Y-60602117D01*
X88116138Y-60430305D01*
X88172690Y-60243877D01*
X88187000Y-60098583D01*
X88187000Y-59201417D01*
X88702000Y-59201417D01*
X88702000Y-60098584D01*
X88716311Y-60243878D01*
X88772863Y-60430305D01*
X88864699Y-60602117D01*
X88988289Y-60752712D01*
X89138884Y-60876302D01*
X89310696Y-60968138D01*
X89497123Y-61024690D01*
X89691000Y-61043785D01*
X89884878Y-61024690D01*
X90071305Y-60968138D01*
X90243117Y-60876302D01*
X90393712Y-60752712D01*
X90517302Y-60602117D01*
X90609138Y-60430305D01*
X90665690Y-60243877D01*
X90680000Y-60098583D01*
X90680000Y-59552592D01*
X91213000Y-59552592D01*
X91213000Y-59747408D01*
X91251007Y-59938481D01*
X91325560Y-60118467D01*
X91433794Y-60280451D01*
X91571549Y-60418206D01*
X91733533Y-60526440D01*
X91913519Y-60600993D01*
X92104592Y-60639000D01*
X92299408Y-60639000D01*
X92490481Y-60600993D01*
X92670467Y-60526440D01*
X92832451Y-60418206D01*
X92970206Y-60280451D01*
X93078440Y-60118467D01*
X93152993Y-59938481D01*
X93191000Y-59747408D01*
X93191000Y-59552592D01*
X93152993Y-59361519D01*
X93086677Y-59201417D01*
X93702000Y-59201417D01*
X93702000Y-60098584D01*
X93716311Y-60243878D01*
X93772863Y-60430305D01*
X93864699Y-60602117D01*
X93988289Y-60752712D01*
X94138884Y-60876302D01*
X94310696Y-60968138D01*
X94497123Y-61024690D01*
X94691000Y-61043785D01*
X94884878Y-61024690D01*
X95071305Y-60968138D01*
X95243117Y-60876302D01*
X95393712Y-60752712D01*
X95517302Y-60602117D01*
X95609138Y-60430305D01*
X95665690Y-60243877D01*
X95680000Y-60098583D01*
X95680000Y-59201417D01*
X96217000Y-59201417D01*
X96217000Y-60098584D01*
X96231311Y-60243878D01*
X96287863Y-60430305D01*
X96379699Y-60602117D01*
X96503289Y-60752712D01*
X96653884Y-60876302D01*
X96825696Y-60968138D01*
X97012123Y-61024690D01*
X97206000Y-61043785D01*
X97399878Y-61024690D01*
X97586305Y-60968138D01*
X97758117Y-60876302D01*
X97908712Y-60752712D01*
X98032302Y-60602117D01*
X98124138Y-60430305D01*
X98180690Y-60243877D01*
X98195000Y-60098583D01*
X98195000Y-59201416D01*
X98180690Y-59056122D01*
X98124138Y-58869695D01*
X98032302Y-58697883D01*
X97908712Y-58547288D01*
X97758117Y-58423698D01*
X97586304Y-58331862D01*
X97399877Y-58275310D01*
X97206000Y-58256215D01*
X97012122Y-58275310D01*
X96825695Y-58331862D01*
X96653883Y-58423698D01*
X96503288Y-58547288D01*
X96379698Y-58697883D01*
X96287862Y-58869696D01*
X96231310Y-59056123D01*
X96217000Y-59201417D01*
X95680000Y-59201417D01*
X95680000Y-59201416D01*
X95665690Y-59056122D01*
X95609138Y-58869695D01*
X95517302Y-58697883D01*
X95393712Y-58547288D01*
X95243117Y-58423698D01*
X95071304Y-58331862D01*
X94884877Y-58275310D01*
X94691000Y-58256215D01*
X94497122Y-58275310D01*
X94310695Y-58331862D01*
X94138883Y-58423698D01*
X93988288Y-58547288D01*
X93864698Y-58697883D01*
X93772862Y-58869696D01*
X93716310Y-59056123D01*
X93702000Y-59201417D01*
X93086677Y-59201417D01*
X93078440Y-59181533D01*
X92970206Y-59019549D01*
X92832451Y-58881794D01*
X92670467Y-58773560D01*
X92490481Y-58699007D01*
X92299408Y-58661000D01*
X92104592Y-58661000D01*
X91913519Y-58699007D01*
X91733533Y-58773560D01*
X91571549Y-58881794D01*
X91433794Y-59019549D01*
X91325560Y-59181533D01*
X91251007Y-59361519D01*
X91213000Y-59552592D01*
X90680000Y-59552592D01*
X90680000Y-59201416D01*
X90665690Y-59056122D01*
X90609138Y-58869695D01*
X90517302Y-58697883D01*
X90393712Y-58547288D01*
X90243117Y-58423698D01*
X90071304Y-58331862D01*
X89884877Y-58275310D01*
X89691000Y-58256215D01*
X89497122Y-58275310D01*
X89310695Y-58331862D01*
X89138883Y-58423698D01*
X88988288Y-58547288D01*
X88864698Y-58697883D01*
X88772862Y-58869696D01*
X88716310Y-59056123D01*
X88702000Y-59201417D01*
X88187000Y-59201417D01*
X88187000Y-59201416D01*
X88172690Y-59056122D01*
X88116138Y-58869695D01*
X88024302Y-58697883D01*
X87900712Y-58547288D01*
X87750117Y-58423698D01*
X87578304Y-58331862D01*
X87391877Y-58275310D01*
X87198000Y-58256215D01*
X87004122Y-58275310D01*
X86817695Y-58331862D01*
X86645883Y-58423698D01*
X86495288Y-58547288D01*
X86371698Y-58697883D01*
X86279862Y-58869696D01*
X86223310Y-59056123D01*
X86209000Y-59201417D01*
X85241000Y-59201417D01*
X85241000Y-59201416D01*
X85226690Y-59056122D01*
X85170138Y-58869695D01*
X85078302Y-58697883D01*
X84954712Y-58547288D01*
X84804117Y-58423698D01*
X84632304Y-58331862D01*
X84445877Y-58275310D01*
X84252000Y-58256215D01*
X84058122Y-58275310D01*
X83871695Y-58331862D01*
X83699883Y-58423698D01*
X83549288Y-58547288D01*
X83425698Y-58697883D01*
X83333862Y-58869696D01*
X83277310Y-59056123D01*
X83263000Y-59201417D01*
X82726000Y-59201417D01*
X82726000Y-59201416D01*
X82711690Y-59056122D01*
X82655138Y-58869695D01*
X82563302Y-58697883D01*
X82439712Y-58547288D01*
X82289117Y-58423698D01*
X82117304Y-58331862D01*
X81930877Y-58275310D01*
X81737000Y-58256215D01*
X81543122Y-58275310D01*
X81356695Y-58331862D01*
X81184883Y-58423698D01*
X81034288Y-58547288D01*
X80910698Y-58697883D01*
X80818862Y-58869696D01*
X80762310Y-59056123D01*
X80748000Y-59201417D01*
X80132677Y-59201417D01*
X80124440Y-59181533D01*
X80016206Y-59019549D01*
X79878451Y-58881794D01*
X79716467Y-58773560D01*
X79536481Y-58699007D01*
X79345408Y-58661000D01*
X79150592Y-58661000D01*
X78959519Y-58699007D01*
X78779533Y-58773560D01*
X78617549Y-58881794D01*
X78479794Y-59019549D01*
X78371560Y-59181533D01*
X78297007Y-59361519D01*
X78259000Y-59552592D01*
X77726000Y-59552592D01*
X77726000Y-59201416D01*
X77711690Y-59056122D01*
X77655138Y-58869695D01*
X77563302Y-58697883D01*
X77439712Y-58547288D01*
X77289117Y-58423698D01*
X77117304Y-58331862D01*
X76930877Y-58275310D01*
X76737000Y-58256215D01*
X76543122Y-58275310D01*
X76356695Y-58331862D01*
X76184883Y-58423698D01*
X76034288Y-58547288D01*
X75910698Y-58697883D01*
X75818862Y-58869696D01*
X75762310Y-59056123D01*
X75748000Y-59201417D01*
X75233000Y-59201417D01*
X75233000Y-59201416D01*
X75218690Y-59056122D01*
X75162138Y-58869695D01*
X75070302Y-58697883D01*
X74946712Y-58547288D01*
X74796117Y-58423698D01*
X74624304Y-58331862D01*
X74437877Y-58275310D01*
X74244000Y-58256215D01*
X74050122Y-58275310D01*
X73863695Y-58331862D01*
X73691883Y-58423698D01*
X73541288Y-58547288D01*
X73417698Y-58697883D01*
X73325862Y-58869696D01*
X73269310Y-59056123D01*
X73255000Y-59201417D01*
X62161000Y-59201417D01*
X62161000Y-54668101D01*
X64559000Y-54668101D01*
X64559000Y-55059899D01*
X64635436Y-55444170D01*
X64785371Y-55806145D01*
X65003043Y-56131914D01*
X65280086Y-56408957D01*
X65605855Y-56626629D01*
X65967830Y-56776564D01*
X66352101Y-56853000D01*
X66743899Y-56853000D01*
X67128170Y-56776564D01*
X67490145Y-56626629D01*
X67815914Y-56408957D01*
X68092957Y-56131914D01*
X68310629Y-55806145D01*
X68460564Y-55444170D01*
X68537000Y-55059899D01*
X68537000Y-54668101D01*
X68514024Y-54552592D01*
X73259000Y-54552592D01*
X73259000Y-54747408D01*
X73297007Y-54938481D01*
X73371560Y-55118467D01*
X73479794Y-55280451D01*
X73617549Y-55418206D01*
X73779533Y-55526440D01*
X73959519Y-55600993D01*
X74150592Y-55639000D01*
X74345408Y-55639000D01*
X74536481Y-55600993D01*
X74716467Y-55526440D01*
X74878451Y-55418206D01*
X75016206Y-55280451D01*
X75124440Y-55118467D01*
X75198993Y-54938481D01*
X75202445Y-54921125D01*
X77896888Y-54921125D01*
X77959563Y-55100514D01*
X78064525Y-55265183D01*
X78199596Y-55406211D01*
X78359584Y-55518178D01*
X78538342Y-55596781D01*
X78729000Y-55639000D01*
X79129000Y-55639000D01*
X79129000Y-54769000D01*
X79367000Y-54769000D01*
X79367000Y-55639000D01*
X79767000Y-55639000D01*
X79957658Y-55596781D01*
X80136416Y-55518178D01*
X80296404Y-55406211D01*
X80431475Y-55265183D01*
X80536437Y-55100514D01*
X80599112Y-54921125D01*
X80531774Y-54769000D01*
X79367000Y-54769000D01*
X79129000Y-54769000D01*
X77964226Y-54769000D01*
X77896888Y-54921125D01*
X75202445Y-54921125D01*
X75237000Y-54747408D01*
X75237000Y-54552592D01*
X83259000Y-54552592D01*
X83259000Y-54747408D01*
X83297007Y-54938481D01*
X83371560Y-55118467D01*
X83479794Y-55280451D01*
X83617549Y-55418206D01*
X83779533Y-55526440D01*
X83959519Y-55600993D01*
X84150592Y-55639000D01*
X84345408Y-55639000D01*
X84536481Y-55600993D01*
X84716467Y-55526440D01*
X84878451Y-55418206D01*
X85016206Y-55280451D01*
X85124440Y-55118467D01*
X85198993Y-54938481D01*
X85237000Y-54747408D01*
X85237000Y-54552592D01*
X86213000Y-54552592D01*
X86213000Y-54747408D01*
X86251007Y-54938481D01*
X86325560Y-55118467D01*
X86433794Y-55280451D01*
X86571549Y-55418206D01*
X86733533Y-55526440D01*
X86913519Y-55600993D01*
X87104592Y-55639000D01*
X87299408Y-55639000D01*
X87490481Y-55600993D01*
X87670467Y-55526440D01*
X87832451Y-55418206D01*
X87970206Y-55280451D01*
X88078440Y-55118467D01*
X88152993Y-54938481D01*
X88156445Y-54921125D01*
X90850888Y-54921125D01*
X90913563Y-55100514D01*
X91018525Y-55265183D01*
X91153596Y-55406211D01*
X91313584Y-55518178D01*
X91492342Y-55596781D01*
X91683000Y-55639000D01*
X92083000Y-55639000D01*
X92083000Y-54769000D01*
X92321000Y-54769000D01*
X92321000Y-55639000D01*
X92721000Y-55639000D01*
X92911658Y-55596781D01*
X93090416Y-55518178D01*
X93250404Y-55406211D01*
X93385475Y-55265183D01*
X93490437Y-55100514D01*
X93553112Y-54921125D01*
X93485774Y-54769000D01*
X92321000Y-54769000D01*
X92083000Y-54769000D01*
X90918226Y-54769000D01*
X90850888Y-54921125D01*
X88156445Y-54921125D01*
X88191000Y-54747408D01*
X88191000Y-54552592D01*
X96213000Y-54552592D01*
X96213000Y-54747408D01*
X96251007Y-54938481D01*
X96325560Y-55118467D01*
X96433794Y-55280451D01*
X96571549Y-55418206D01*
X96733533Y-55526440D01*
X96913519Y-55600993D01*
X97104592Y-55639000D01*
X97299408Y-55639000D01*
X97490481Y-55600993D01*
X97670467Y-55526440D01*
X97832451Y-55418206D01*
X97970206Y-55280451D01*
X98078440Y-55118467D01*
X98152993Y-54938481D01*
X98191000Y-54747408D01*
X98191000Y-54668101D01*
X103675000Y-54668101D01*
X103675000Y-55059899D01*
X103751436Y-55444170D01*
X103901371Y-55806145D01*
X104119043Y-56131914D01*
X104396086Y-56408957D01*
X104721855Y-56626629D01*
X105083830Y-56776564D01*
X105468101Y-56853000D01*
X105859899Y-56853000D01*
X106244170Y-56776564D01*
X106606145Y-56626629D01*
X106931914Y-56408957D01*
X107208957Y-56131914D01*
X107426629Y-55806145D01*
X107576564Y-55444170D01*
X107653000Y-55059899D01*
X107653000Y-54668101D01*
X107576564Y-54283830D01*
X107426629Y-53921855D01*
X107208957Y-53596086D01*
X106931914Y-53319043D01*
X106606145Y-53101371D01*
X106244170Y-52951436D01*
X105859899Y-52875000D01*
X105468101Y-52875000D01*
X105083830Y-52951436D01*
X104721855Y-53101371D01*
X104396086Y-53319043D01*
X104119043Y-53596086D01*
X103901371Y-53921855D01*
X103751436Y-54283830D01*
X103675000Y-54668101D01*
X98191000Y-54668101D01*
X98191000Y-54552592D01*
X98152993Y-54361519D01*
X98078440Y-54181533D01*
X97970206Y-54019549D01*
X97832451Y-53881794D01*
X97670467Y-53773560D01*
X97490481Y-53699007D01*
X97299408Y-53661000D01*
X97104592Y-53661000D01*
X96913519Y-53699007D01*
X96733533Y-53773560D01*
X96571549Y-53881794D01*
X96433794Y-54019549D01*
X96325560Y-54181533D01*
X96251007Y-54361519D01*
X96213000Y-54552592D01*
X88191000Y-54552592D01*
X88156446Y-54378875D01*
X90850888Y-54378875D01*
X90918226Y-54531000D01*
X92083000Y-54531000D01*
X92083000Y-53661000D01*
X92321000Y-53661000D01*
X92321000Y-54531000D01*
X93485774Y-54531000D01*
X93553112Y-54378875D01*
X93490437Y-54199486D01*
X93385475Y-54034817D01*
X93250404Y-53893789D01*
X93090416Y-53781822D01*
X92911658Y-53703219D01*
X92721000Y-53661000D01*
X92321000Y-53661000D01*
X92083000Y-53661000D01*
X91683000Y-53661000D01*
X91492342Y-53703219D01*
X91313584Y-53781822D01*
X91153596Y-53893789D01*
X91018525Y-54034817D01*
X90913563Y-54199486D01*
X90850888Y-54378875D01*
X88156446Y-54378875D01*
X88152993Y-54361519D01*
X88078440Y-54181533D01*
X87970206Y-54019549D01*
X87832451Y-53881794D01*
X87670467Y-53773560D01*
X87490481Y-53699007D01*
X87299408Y-53661000D01*
X87104592Y-53661000D01*
X86913519Y-53699007D01*
X86733533Y-53773560D01*
X86571549Y-53881794D01*
X86433794Y-54019549D01*
X86325560Y-54181533D01*
X86251007Y-54361519D01*
X86213000Y-54552592D01*
X85237000Y-54552592D01*
X85198993Y-54361519D01*
X85124440Y-54181533D01*
X85016206Y-54019549D01*
X84878451Y-53881794D01*
X84716467Y-53773560D01*
X84536481Y-53699007D01*
X84345408Y-53661000D01*
X84150592Y-53661000D01*
X83959519Y-53699007D01*
X83779533Y-53773560D01*
X83617549Y-53881794D01*
X83479794Y-54019549D01*
X83371560Y-54181533D01*
X83297007Y-54361519D01*
X83259000Y-54552592D01*
X75237000Y-54552592D01*
X75202446Y-54378875D01*
X77896888Y-54378875D01*
X77964226Y-54531000D01*
X79129000Y-54531000D01*
X79129000Y-53661000D01*
X79367000Y-53661000D01*
X79367000Y-54531000D01*
X80531774Y-54531000D01*
X80599112Y-54378875D01*
X80536437Y-54199486D01*
X80431475Y-54034817D01*
X80296404Y-53893789D01*
X80136416Y-53781822D01*
X79957658Y-53703219D01*
X79767000Y-53661000D01*
X79367000Y-53661000D01*
X79129000Y-53661000D01*
X78729000Y-53661000D01*
X78538342Y-53703219D01*
X78359584Y-53781822D01*
X78199596Y-53893789D01*
X78064525Y-54034817D01*
X77959563Y-54199486D01*
X77896888Y-54378875D01*
X75202446Y-54378875D01*
X75198993Y-54361519D01*
X75124440Y-54181533D01*
X75016206Y-54019549D01*
X74878451Y-53881794D01*
X74716467Y-53773560D01*
X74536481Y-53699007D01*
X74345408Y-53661000D01*
X74150592Y-53661000D01*
X73959519Y-53699007D01*
X73779533Y-53773560D01*
X73617549Y-53881794D01*
X73479794Y-54019549D01*
X73371560Y-54181533D01*
X73297007Y-54361519D01*
X73259000Y-54552592D01*
X68514024Y-54552592D01*
X68460564Y-54283830D01*
X68310629Y-53921855D01*
X68092957Y-53596086D01*
X67815914Y-53319043D01*
X67490145Y-53101371D01*
X67128170Y-52951436D01*
X66743899Y-52875000D01*
X66352101Y-52875000D01*
X65967830Y-52951436D01*
X65605855Y-53101371D01*
X65280086Y-53319043D01*
X65003043Y-53596086D01*
X64785371Y-53921855D01*
X64635436Y-54283830D01*
X64559000Y-54668101D01*
X62161000Y-54668101D01*
X62161000Y-53107473D01*
X62212754Y-52579650D01*
X62359806Y-52092590D01*
X62381073Y-52052592D01*
X73259000Y-52052592D01*
X73259000Y-52247408D01*
X73297007Y-52438481D01*
X73371560Y-52618467D01*
X73479794Y-52780451D01*
X73617549Y-52918206D01*
X73779533Y-53026440D01*
X73959519Y-53100993D01*
X74150592Y-53139000D01*
X74345408Y-53139000D01*
X74536481Y-53100993D01*
X74716467Y-53026440D01*
X74878451Y-52918206D01*
X75016206Y-52780451D01*
X75124440Y-52618467D01*
X75198993Y-52438481D01*
X75237000Y-52247408D01*
X75237000Y-52052592D01*
X83259000Y-52052592D01*
X83259000Y-52247408D01*
X83297007Y-52438481D01*
X83371560Y-52618467D01*
X83479794Y-52780451D01*
X83617549Y-52918206D01*
X83779533Y-53026440D01*
X83959519Y-53100993D01*
X84150592Y-53139000D01*
X84345408Y-53139000D01*
X84536481Y-53100993D01*
X84716467Y-53026440D01*
X84878451Y-52918206D01*
X85016206Y-52780451D01*
X85124440Y-52618467D01*
X85198993Y-52438481D01*
X85237000Y-52247408D01*
X85237000Y-52052592D01*
X86213000Y-52052592D01*
X86213000Y-52247408D01*
X86251007Y-52438481D01*
X86325560Y-52618467D01*
X86433794Y-52780451D01*
X86571549Y-52918206D01*
X86733533Y-53026440D01*
X86913519Y-53100993D01*
X87104592Y-53139000D01*
X87299408Y-53139000D01*
X87490481Y-53100993D01*
X87670467Y-53026440D01*
X87832451Y-52918206D01*
X87970206Y-52780451D01*
X88078440Y-52618467D01*
X88152993Y-52438481D01*
X88191000Y-52247408D01*
X88191000Y-52052592D01*
X96213000Y-52052592D01*
X96213000Y-52247408D01*
X96251007Y-52438481D01*
X96325560Y-52618467D01*
X96433794Y-52780451D01*
X96571549Y-52918206D01*
X96733533Y-53026440D01*
X96913519Y-53100993D01*
X97104592Y-53139000D01*
X97299408Y-53139000D01*
X97490481Y-53100993D01*
X97670467Y-53026440D01*
X97832451Y-52918206D01*
X97970206Y-52780451D01*
X98078440Y-52618467D01*
X98152993Y-52438481D01*
X98191000Y-52247408D01*
X98191000Y-52052592D01*
X98152993Y-51861519D01*
X98078440Y-51681533D01*
X97970206Y-51519549D01*
X97832451Y-51381794D01*
X97670467Y-51273560D01*
X97490481Y-51199007D01*
X97299408Y-51161000D01*
X97104592Y-51161000D01*
X96913519Y-51199007D01*
X96733533Y-51273560D01*
X96571549Y-51381794D01*
X96433794Y-51519549D01*
X96325560Y-51681533D01*
X96251007Y-51861519D01*
X96213000Y-52052592D01*
X88191000Y-52052592D01*
X88152993Y-51861519D01*
X88078440Y-51681533D01*
X87970206Y-51519549D01*
X87832451Y-51381794D01*
X87670467Y-51273560D01*
X87490481Y-51199007D01*
X87299408Y-51161000D01*
X87104592Y-51161000D01*
X86913519Y-51199007D01*
X86733533Y-51273560D01*
X86571549Y-51381794D01*
X86433794Y-51519549D01*
X86325560Y-51681533D01*
X86251007Y-51861519D01*
X86213000Y-52052592D01*
X85237000Y-52052592D01*
X85198993Y-51861519D01*
X85124440Y-51681533D01*
X85016206Y-51519549D01*
X84878451Y-51381794D01*
X84716467Y-51273560D01*
X84536481Y-51199007D01*
X84345408Y-51161000D01*
X84150592Y-51161000D01*
X83959519Y-51199007D01*
X83779533Y-51273560D01*
X83617549Y-51381794D01*
X83479794Y-51519549D01*
X83371560Y-51681533D01*
X83297007Y-51861519D01*
X83259000Y-52052592D01*
X75237000Y-52052592D01*
X75198993Y-51861519D01*
X75124440Y-51681533D01*
X75016206Y-51519549D01*
X74878451Y-51381794D01*
X74716467Y-51273560D01*
X74536481Y-51199007D01*
X74345408Y-51161000D01*
X74150592Y-51161000D01*
X73959519Y-51199007D01*
X73779533Y-51273560D01*
X73617549Y-51381794D01*
X73479794Y-51519549D01*
X73371560Y-51681533D01*
X73297007Y-51861519D01*
X73259000Y-52052592D01*
X62381073Y-52052592D01*
X62598661Y-51643368D01*
X62920226Y-51249090D01*
X63312241Y-50924787D01*
X63759789Y-50682799D01*
X64245809Y-50532351D01*
X64772432Y-50477000D01*
X107420527Y-50477000D01*
X107948350Y-50528754D01*
G37*
%TD.AperFunction*%
%TD*%
M02*
