%TF.GenerationSoftware,KiCad,Pcbnew,5.1.9-73d0e3b20d~88~ubuntu18.04.1*%
%TF.CreationDate,2021-03-21T00:17:26-07:00*%
%TF.ProjectId,ir-repeater-booster,69722d72-6570-4656-9174-65722d626f6f,1.1.0*%
%TF.SameCoordinates,Original*%
%TF.FileFunction,Soldermask,Top*%
%TF.FilePolarity,Negative*%
%FSLAX46Y46*%
G04 Gerber Fmt 4.6, Leading zero omitted, Abs format (unit mm)*
G04 Created by KiCad (PCBNEW 5.1.9-73d0e3b20d~88~ubuntu18.04.1) date 2021-03-21 00:17:26*
%MOMM*%
%LPD*%
G01*
G04 APERTURE LIST*
%ADD10C,2.100000*%
%ADD11C,1.200000*%
%ADD12C,2.000000*%
%ADD13R,4.400000X1.800000*%
%ADD14O,4.000000X1.800000*%
%ADD15O,1.800000X4.000000*%
%ADD16C,3.200000*%
%ADD17C,0.100000*%
%ADD18R,1.300000X0.900000*%
%ADD19C,1.499000*%
%ADD20C,2.642000*%
%ADD21R,1.499000X1.499000*%
%ADD22C,3.250000*%
%ADD23R,2.500000X1.800000*%
G04 APERTURE END LIST*
%TO.C,C6*%
G36*
G01*
X82158000Y-62595999D02*
X82158000Y-63896001D01*
G75*
G02*
X81908001Y-64146000I-249999J0D01*
G01*
X81257999Y-64146000D01*
G75*
G02*
X81008000Y-63896001I0J249999D01*
G01*
X81008000Y-62595999D01*
G75*
G02*
X81257999Y-62346000I249999J0D01*
G01*
X81908001Y-62346000D01*
G75*
G02*
X82158000Y-62595999I0J-249999D01*
G01*
G37*
G36*
G01*
X85108000Y-62595999D02*
X85108000Y-63896001D01*
G75*
G02*
X84858001Y-64146000I-249999J0D01*
G01*
X84207999Y-64146000D01*
G75*
G02*
X83958000Y-63896001I0J249999D01*
G01*
X83958000Y-62595999D01*
G75*
G02*
X84207999Y-62346000I249999J0D01*
G01*
X84858001Y-62346000D01*
G75*
G02*
X85108000Y-62595999I0J-249999D01*
G01*
G37*
%TD*%
%TO.C,U4*%
G36*
G01*
X86764000Y-64286000D02*
X86464000Y-64286000D01*
G75*
G02*
X86314000Y-64136000I0J150000D01*
G01*
X86314000Y-62486000D01*
G75*
G02*
X86464000Y-62336000I150000J0D01*
G01*
X86764000Y-62336000D01*
G75*
G02*
X86914000Y-62486000I0J-150000D01*
G01*
X86914000Y-64136000D01*
G75*
G02*
X86764000Y-64286000I-150000J0D01*
G01*
G37*
G36*
G01*
X88034000Y-64286000D02*
X87734000Y-64286000D01*
G75*
G02*
X87584000Y-64136000I0J150000D01*
G01*
X87584000Y-62486000D01*
G75*
G02*
X87734000Y-62336000I150000J0D01*
G01*
X88034000Y-62336000D01*
G75*
G02*
X88184000Y-62486000I0J-150000D01*
G01*
X88184000Y-64136000D01*
G75*
G02*
X88034000Y-64286000I-150000J0D01*
G01*
G37*
G36*
G01*
X89304000Y-64286000D02*
X89004000Y-64286000D01*
G75*
G02*
X88854000Y-64136000I0J150000D01*
G01*
X88854000Y-62486000D01*
G75*
G02*
X89004000Y-62336000I150000J0D01*
G01*
X89304000Y-62336000D01*
G75*
G02*
X89454000Y-62486000I0J-150000D01*
G01*
X89454000Y-64136000D01*
G75*
G02*
X89304000Y-64286000I-150000J0D01*
G01*
G37*
G36*
G01*
X90574000Y-64286000D02*
X90274000Y-64286000D01*
G75*
G02*
X90124000Y-64136000I0J150000D01*
G01*
X90124000Y-62486000D01*
G75*
G02*
X90274000Y-62336000I150000J0D01*
G01*
X90574000Y-62336000D01*
G75*
G02*
X90724000Y-62486000I0J-150000D01*
G01*
X90724000Y-64136000D01*
G75*
G02*
X90574000Y-64286000I-150000J0D01*
G01*
G37*
G36*
G01*
X91844000Y-64286000D02*
X91544000Y-64286000D01*
G75*
G02*
X91394000Y-64136000I0J150000D01*
G01*
X91394000Y-62486000D01*
G75*
G02*
X91544000Y-62336000I150000J0D01*
G01*
X91844000Y-62336000D01*
G75*
G02*
X91994000Y-62486000I0J-150000D01*
G01*
X91994000Y-64136000D01*
G75*
G02*
X91844000Y-64286000I-150000J0D01*
G01*
G37*
G36*
G01*
X93114000Y-64286000D02*
X92814000Y-64286000D01*
G75*
G02*
X92664000Y-64136000I0J150000D01*
G01*
X92664000Y-62486000D01*
G75*
G02*
X92814000Y-62336000I150000J0D01*
G01*
X93114000Y-62336000D01*
G75*
G02*
X93264000Y-62486000I0J-150000D01*
G01*
X93264000Y-64136000D01*
G75*
G02*
X93114000Y-64286000I-150000J0D01*
G01*
G37*
G36*
G01*
X94384000Y-64286000D02*
X94084000Y-64286000D01*
G75*
G02*
X93934000Y-64136000I0J150000D01*
G01*
X93934000Y-62486000D01*
G75*
G02*
X94084000Y-62336000I150000J0D01*
G01*
X94384000Y-62336000D01*
G75*
G02*
X94534000Y-62486000I0J-150000D01*
G01*
X94534000Y-64136000D01*
G75*
G02*
X94384000Y-64286000I-150000J0D01*
G01*
G37*
G36*
G01*
X94384000Y-69236000D02*
X94084000Y-69236000D01*
G75*
G02*
X93934000Y-69086000I0J150000D01*
G01*
X93934000Y-67436000D01*
G75*
G02*
X94084000Y-67286000I150000J0D01*
G01*
X94384000Y-67286000D01*
G75*
G02*
X94534000Y-67436000I0J-150000D01*
G01*
X94534000Y-69086000D01*
G75*
G02*
X94384000Y-69236000I-150000J0D01*
G01*
G37*
G36*
G01*
X93114000Y-69236000D02*
X92814000Y-69236000D01*
G75*
G02*
X92664000Y-69086000I0J150000D01*
G01*
X92664000Y-67436000D01*
G75*
G02*
X92814000Y-67286000I150000J0D01*
G01*
X93114000Y-67286000D01*
G75*
G02*
X93264000Y-67436000I0J-150000D01*
G01*
X93264000Y-69086000D01*
G75*
G02*
X93114000Y-69236000I-150000J0D01*
G01*
G37*
G36*
G01*
X91844000Y-69236000D02*
X91544000Y-69236000D01*
G75*
G02*
X91394000Y-69086000I0J150000D01*
G01*
X91394000Y-67436000D01*
G75*
G02*
X91544000Y-67286000I150000J0D01*
G01*
X91844000Y-67286000D01*
G75*
G02*
X91994000Y-67436000I0J-150000D01*
G01*
X91994000Y-69086000D01*
G75*
G02*
X91844000Y-69236000I-150000J0D01*
G01*
G37*
G36*
G01*
X90574000Y-69236000D02*
X90274000Y-69236000D01*
G75*
G02*
X90124000Y-69086000I0J150000D01*
G01*
X90124000Y-67436000D01*
G75*
G02*
X90274000Y-67286000I150000J0D01*
G01*
X90574000Y-67286000D01*
G75*
G02*
X90724000Y-67436000I0J-150000D01*
G01*
X90724000Y-69086000D01*
G75*
G02*
X90574000Y-69236000I-150000J0D01*
G01*
G37*
G36*
G01*
X89304000Y-69236000D02*
X89004000Y-69236000D01*
G75*
G02*
X88854000Y-69086000I0J150000D01*
G01*
X88854000Y-67436000D01*
G75*
G02*
X89004000Y-67286000I150000J0D01*
G01*
X89304000Y-67286000D01*
G75*
G02*
X89454000Y-67436000I0J-150000D01*
G01*
X89454000Y-69086000D01*
G75*
G02*
X89304000Y-69236000I-150000J0D01*
G01*
G37*
G36*
G01*
X88034000Y-69236000D02*
X87734000Y-69236000D01*
G75*
G02*
X87584000Y-69086000I0J150000D01*
G01*
X87584000Y-67436000D01*
G75*
G02*
X87734000Y-67286000I150000J0D01*
G01*
X88034000Y-67286000D01*
G75*
G02*
X88184000Y-67436000I0J-150000D01*
G01*
X88184000Y-69086000D01*
G75*
G02*
X88034000Y-69236000I-150000J0D01*
G01*
G37*
G36*
G01*
X86764000Y-69236000D02*
X86464000Y-69236000D01*
G75*
G02*
X86314000Y-69086000I0J150000D01*
G01*
X86314000Y-67436000D01*
G75*
G02*
X86464000Y-67286000I150000J0D01*
G01*
X86764000Y-67286000D01*
G75*
G02*
X86914000Y-67436000I0J-150000D01*
G01*
X86914000Y-69086000D01*
G75*
G02*
X86764000Y-69236000I-150000J0D01*
G01*
G37*
%TD*%
%TO.C,R5*%
G36*
G01*
X87293000Y-82317000D02*
X87293000Y-81767000D01*
G75*
G02*
X87493000Y-81567000I200000J0D01*
G01*
X87893000Y-81567000D01*
G75*
G02*
X88093000Y-81767000I0J-200000D01*
G01*
X88093000Y-82317000D01*
G75*
G02*
X87893000Y-82517000I-200000J0D01*
G01*
X87493000Y-82517000D01*
G75*
G02*
X87293000Y-82317000I0J200000D01*
G01*
G37*
G36*
G01*
X85643000Y-82317000D02*
X85643000Y-81767000D01*
G75*
G02*
X85843000Y-81567000I200000J0D01*
G01*
X86243000Y-81567000D01*
G75*
G02*
X86443000Y-81767000I0J-200000D01*
G01*
X86443000Y-82317000D01*
G75*
G02*
X86243000Y-82517000I-200000J0D01*
G01*
X85843000Y-82517000D01*
G75*
G02*
X85643000Y-82317000I0J200000D01*
G01*
G37*
%TD*%
%TO.C,R4*%
G36*
G01*
X98469000Y-82317000D02*
X98469000Y-81767000D01*
G75*
G02*
X98669000Y-81567000I200000J0D01*
G01*
X99069000Y-81567000D01*
G75*
G02*
X99269000Y-81767000I0J-200000D01*
G01*
X99269000Y-82317000D01*
G75*
G02*
X99069000Y-82517000I-200000J0D01*
G01*
X98669000Y-82517000D01*
G75*
G02*
X98469000Y-82317000I0J200000D01*
G01*
G37*
G36*
G01*
X96819000Y-82317000D02*
X96819000Y-81767000D01*
G75*
G02*
X97019000Y-81567000I200000J0D01*
G01*
X97419000Y-81567000D01*
G75*
G02*
X97619000Y-81767000I0J-200000D01*
G01*
X97619000Y-82317000D01*
G75*
G02*
X97419000Y-82517000I-200000J0D01*
G01*
X97019000Y-82517000D01*
G75*
G02*
X96819000Y-82317000I0J200000D01*
G01*
G37*
%TD*%
D10*
%TO.C,RX1*%
X74244000Y-58900000D03*
X76737000Y-58900000D03*
X81737000Y-58900000D03*
X84252000Y-58900000D03*
X79248000Y-53900000D03*
D11*
X79248000Y-58900000D03*
X74248000Y-53900000D03*
X84248000Y-53900000D03*
X84248000Y-51400000D03*
X74248000Y-51400000D03*
%TD*%
D10*
%TO.C,TX1*%
X87196000Y-58900000D03*
X89689000Y-58900000D03*
X94689000Y-58900000D03*
X97204000Y-58900000D03*
X92200000Y-53900000D03*
D11*
X92200000Y-58900000D03*
X87200000Y-53900000D03*
X97200000Y-53900000D03*
X97200000Y-51400000D03*
X87200000Y-51400000D03*
%TD*%
D12*
%TO.C,TP10*%
X66548000Y-60452000D03*
%TD*%
%TO.C,C5*%
G36*
G01*
X87238000Y-70469999D02*
X87238000Y-71770001D01*
G75*
G02*
X86988001Y-72020000I-249999J0D01*
G01*
X86337999Y-72020000D01*
G75*
G02*
X86088000Y-71770001I0J249999D01*
G01*
X86088000Y-70469999D01*
G75*
G02*
X86337999Y-70220000I249999J0D01*
G01*
X86988001Y-70220000D01*
G75*
G02*
X87238000Y-70469999I0J-249999D01*
G01*
G37*
G36*
G01*
X90188000Y-70469999D02*
X90188000Y-71770001D01*
G75*
G02*
X89938001Y-72020000I-249999J0D01*
G01*
X89287999Y-72020000D01*
G75*
G02*
X89038000Y-71770001I0J249999D01*
G01*
X89038000Y-70469999D01*
G75*
G02*
X89287999Y-70220000I249999J0D01*
G01*
X89938001Y-70220000D01*
G75*
G02*
X90188000Y-70469999I0J-249999D01*
G01*
G37*
%TD*%
D13*
%TO.C,J1*%
X75946000Y-85344000D03*
D14*
X75946000Y-91144000D03*
D15*
X80746000Y-88344000D03*
%TD*%
D12*
%TO.C,TP9*%
X66548000Y-63754000D03*
%TD*%
%TO.C,TP8*%
X66548000Y-83566000D03*
%TD*%
%TO.C,TP7*%
X66548000Y-86868000D03*
%TD*%
%TO.C,TP6*%
X96520000Y-73660000D03*
%TD*%
%TO.C,TP5*%
X96520000Y-76962000D03*
%TD*%
%TO.C,TP4*%
X83312000Y-80264000D03*
%TD*%
%TO.C,TP3*%
X83312000Y-70358000D03*
%TD*%
%TO.C,TP2*%
X83312000Y-76962000D03*
%TD*%
%TO.C,TP1*%
X83312000Y-73660000D03*
%TD*%
D16*
%TO.C,H2*%
X66548000Y-54864000D03*
%TD*%
%TO.C,H4*%
X105664000Y-92456000D03*
%TD*%
%TO.C,H3*%
X66548000Y-92456000D03*
%TD*%
%TO.C,H1*%
X105664000Y-54864000D03*
%TD*%
D17*
%TO.C,U3*%
G36*
X71106000Y-73555500D02*
G01*
X74231000Y-73555500D01*
X74231000Y-73972000D01*
X75706000Y-73972000D01*
X75706000Y-74872000D01*
X74231000Y-74872000D01*
X74231000Y-75288500D01*
X71106000Y-75288500D01*
X71106000Y-73555500D01*
G37*
D18*
X75056000Y-72922000D03*
X75056000Y-75922000D03*
%TD*%
%TO.C,U2*%
G36*
G01*
X91162000Y-73429000D02*
X91162000Y-73129000D01*
G75*
G02*
X91312000Y-72979000I150000J0D01*
G01*
X92962000Y-72979000D01*
G75*
G02*
X93112000Y-73129000I0J-150000D01*
G01*
X93112000Y-73429000D01*
G75*
G02*
X92962000Y-73579000I-150000J0D01*
G01*
X91312000Y-73579000D01*
G75*
G02*
X91162000Y-73429000I0J150000D01*
G01*
G37*
G36*
G01*
X91162000Y-74699000D02*
X91162000Y-74399000D01*
G75*
G02*
X91312000Y-74249000I150000J0D01*
G01*
X92962000Y-74249000D01*
G75*
G02*
X93112000Y-74399000I0J-150000D01*
G01*
X93112000Y-74699000D01*
G75*
G02*
X92962000Y-74849000I-150000J0D01*
G01*
X91312000Y-74849000D01*
G75*
G02*
X91162000Y-74699000I0J150000D01*
G01*
G37*
G36*
G01*
X91162000Y-75969000D02*
X91162000Y-75669000D01*
G75*
G02*
X91312000Y-75519000I150000J0D01*
G01*
X92962000Y-75519000D01*
G75*
G02*
X93112000Y-75669000I0J-150000D01*
G01*
X93112000Y-75969000D01*
G75*
G02*
X92962000Y-76119000I-150000J0D01*
G01*
X91312000Y-76119000D01*
G75*
G02*
X91162000Y-75969000I0J150000D01*
G01*
G37*
G36*
G01*
X91162000Y-77239000D02*
X91162000Y-76939000D01*
G75*
G02*
X91312000Y-76789000I150000J0D01*
G01*
X92962000Y-76789000D01*
G75*
G02*
X93112000Y-76939000I0J-150000D01*
G01*
X93112000Y-77239000D01*
G75*
G02*
X92962000Y-77389000I-150000J0D01*
G01*
X91312000Y-77389000D01*
G75*
G02*
X91162000Y-77239000I0J150000D01*
G01*
G37*
G36*
G01*
X86212000Y-77239000D02*
X86212000Y-76939000D01*
G75*
G02*
X86362000Y-76789000I150000J0D01*
G01*
X88012000Y-76789000D01*
G75*
G02*
X88162000Y-76939000I0J-150000D01*
G01*
X88162000Y-77239000D01*
G75*
G02*
X88012000Y-77389000I-150000J0D01*
G01*
X86362000Y-77389000D01*
G75*
G02*
X86212000Y-77239000I0J150000D01*
G01*
G37*
G36*
G01*
X86212000Y-75969000D02*
X86212000Y-75669000D01*
G75*
G02*
X86362000Y-75519000I150000J0D01*
G01*
X88012000Y-75519000D01*
G75*
G02*
X88162000Y-75669000I0J-150000D01*
G01*
X88162000Y-75969000D01*
G75*
G02*
X88012000Y-76119000I-150000J0D01*
G01*
X86362000Y-76119000D01*
G75*
G02*
X86212000Y-75969000I0J150000D01*
G01*
G37*
G36*
G01*
X86212000Y-74699000D02*
X86212000Y-74399000D01*
G75*
G02*
X86362000Y-74249000I150000J0D01*
G01*
X88012000Y-74249000D01*
G75*
G02*
X88162000Y-74399000I0J-150000D01*
G01*
X88162000Y-74699000D01*
G75*
G02*
X88012000Y-74849000I-150000J0D01*
G01*
X86362000Y-74849000D01*
G75*
G02*
X86212000Y-74699000I0J150000D01*
G01*
G37*
G36*
G01*
X86212000Y-73429000D02*
X86212000Y-73129000D01*
G75*
G02*
X86362000Y-72979000I150000J0D01*
G01*
X88012000Y-72979000D01*
G75*
G02*
X88162000Y-73129000I0J-150000D01*
G01*
X88162000Y-73429000D01*
G75*
G02*
X88012000Y-73579000I-150000J0D01*
G01*
X86362000Y-73579000D01*
G75*
G02*
X86212000Y-73429000I0J150000D01*
G01*
G37*
%TD*%
D17*
%TO.C,U1*%
G36*
X63486000Y-73555500D02*
G01*
X66611000Y-73555500D01*
X66611000Y-73972000D01*
X68086000Y-73972000D01*
X68086000Y-74872000D01*
X66611000Y-74872000D01*
X66611000Y-75288500D01*
X63486000Y-75288500D01*
X63486000Y-73555500D01*
G37*
D18*
X67436000Y-72922000D03*
X67436000Y-75922000D03*
%TD*%
%TO.C,R3*%
G36*
G01*
X88055000Y-79269000D02*
X88055000Y-78719000D01*
G75*
G02*
X88255000Y-78519000I200000J0D01*
G01*
X88655000Y-78519000D01*
G75*
G02*
X88855000Y-78719000I0J-200000D01*
G01*
X88855000Y-79269000D01*
G75*
G02*
X88655000Y-79469000I-200000J0D01*
G01*
X88255000Y-79469000D01*
G75*
G02*
X88055000Y-79269000I0J200000D01*
G01*
G37*
G36*
G01*
X86405000Y-79269000D02*
X86405000Y-78719000D01*
G75*
G02*
X86605000Y-78519000I200000J0D01*
G01*
X87005000Y-78519000D01*
G75*
G02*
X87205000Y-78719000I0J-200000D01*
G01*
X87205000Y-79269000D01*
G75*
G02*
X87005000Y-79469000I-200000J0D01*
G01*
X86605000Y-79469000D01*
G75*
G02*
X86405000Y-79269000I0J200000D01*
G01*
G37*
%TD*%
%TO.C,R2*%
G36*
G01*
X102953000Y-79735000D02*
X102953000Y-80285000D01*
G75*
G02*
X102753000Y-80485000I-200000J0D01*
G01*
X102353000Y-80485000D01*
G75*
G02*
X102153000Y-80285000I0J200000D01*
G01*
X102153000Y-79735000D01*
G75*
G02*
X102353000Y-79535000I200000J0D01*
G01*
X102753000Y-79535000D01*
G75*
G02*
X102953000Y-79735000I0J-200000D01*
G01*
G37*
G36*
G01*
X104603000Y-79735000D02*
X104603000Y-80285000D01*
G75*
G02*
X104403000Y-80485000I-200000J0D01*
G01*
X104003000Y-80485000D01*
G75*
G02*
X103803000Y-80285000I0J200000D01*
G01*
X103803000Y-79735000D01*
G75*
G02*
X104003000Y-79535000I200000J0D01*
G01*
X104403000Y-79535000D01*
G75*
G02*
X104603000Y-79735000I0J-200000D01*
G01*
G37*
%TD*%
%TO.C,R1*%
G36*
G01*
X82975000Y-67331000D02*
X82975000Y-66781000D01*
G75*
G02*
X83175000Y-66581000I200000J0D01*
G01*
X83575000Y-66581000D01*
G75*
G02*
X83775000Y-66781000I0J-200000D01*
G01*
X83775000Y-67331000D01*
G75*
G02*
X83575000Y-67531000I-200000J0D01*
G01*
X83175000Y-67531000D01*
G75*
G02*
X82975000Y-67331000I0J200000D01*
G01*
G37*
G36*
G01*
X81325000Y-67331000D02*
X81325000Y-66781000D01*
G75*
G02*
X81525000Y-66581000I200000J0D01*
G01*
X81925000Y-66581000D01*
G75*
G02*
X82125000Y-66781000I0J-200000D01*
G01*
X82125000Y-67331000D01*
G75*
G02*
X81925000Y-67531000I-200000J0D01*
G01*
X81525000Y-67531000D01*
G75*
G02*
X81325000Y-67331000I0J200000D01*
G01*
G37*
%TD*%
D17*
%TO.C,JP2*%
G36*
X103136602Y-74930000D02*
G01*
X103136602Y-74905466D01*
X103141412Y-74856635D01*
X103150984Y-74808510D01*
X103165228Y-74761555D01*
X103184005Y-74716222D01*
X103207136Y-74672949D01*
X103234396Y-74632150D01*
X103265524Y-74594221D01*
X103300221Y-74559524D01*
X103338150Y-74528396D01*
X103378949Y-74501136D01*
X103422222Y-74478005D01*
X103467555Y-74459228D01*
X103514510Y-74444984D01*
X103562635Y-74435412D01*
X103611466Y-74430602D01*
X103636000Y-74430602D01*
X103636000Y-74430000D01*
X104136000Y-74430000D01*
X104136000Y-74430602D01*
X104160534Y-74430602D01*
X104209365Y-74435412D01*
X104257490Y-74444984D01*
X104304445Y-74459228D01*
X104349778Y-74478005D01*
X104393051Y-74501136D01*
X104433850Y-74528396D01*
X104471779Y-74559524D01*
X104506476Y-74594221D01*
X104537604Y-74632150D01*
X104564864Y-74672949D01*
X104587995Y-74716222D01*
X104606772Y-74761555D01*
X104621016Y-74808510D01*
X104630588Y-74856635D01*
X104635398Y-74905466D01*
X104635398Y-74930000D01*
X104636000Y-74930000D01*
X104636000Y-75430000D01*
X103136000Y-75430000D01*
X103136000Y-74930000D01*
X103136602Y-74930000D01*
G37*
G36*
X104636000Y-75730000D02*
G01*
X104636000Y-76230000D01*
X104635398Y-76230000D01*
X104635398Y-76254534D01*
X104630588Y-76303365D01*
X104621016Y-76351490D01*
X104606772Y-76398445D01*
X104587995Y-76443778D01*
X104564864Y-76487051D01*
X104537604Y-76527850D01*
X104506476Y-76565779D01*
X104471779Y-76600476D01*
X104433850Y-76631604D01*
X104393051Y-76658864D01*
X104349778Y-76681995D01*
X104304445Y-76700772D01*
X104257490Y-76715016D01*
X104209365Y-76724588D01*
X104160534Y-76729398D01*
X104136000Y-76729398D01*
X104136000Y-76730000D01*
X103636000Y-76730000D01*
X103636000Y-76729398D01*
X103611466Y-76729398D01*
X103562635Y-76724588D01*
X103514510Y-76715016D01*
X103467555Y-76700772D01*
X103422222Y-76681995D01*
X103378949Y-76658864D01*
X103338150Y-76631604D01*
X103300221Y-76600476D01*
X103265524Y-76565779D01*
X103234396Y-76527850D01*
X103207136Y-76487051D01*
X103184005Y-76443778D01*
X103165228Y-76398445D01*
X103150984Y-76351490D01*
X103141412Y-76303365D01*
X103136602Y-76254534D01*
X103136602Y-76230000D01*
X103136000Y-76230000D01*
X103136000Y-75730000D01*
X104636000Y-75730000D01*
G37*
%TD*%
%TO.C,JP1*%
G36*
X104636000Y-84112000D02*
G01*
X104636000Y-84612000D01*
X104635398Y-84612000D01*
X104635398Y-84636534D01*
X104630588Y-84685365D01*
X104621016Y-84733490D01*
X104606772Y-84780445D01*
X104587995Y-84825778D01*
X104564864Y-84869051D01*
X104537604Y-84909850D01*
X104506476Y-84947779D01*
X104471779Y-84982476D01*
X104433850Y-85013604D01*
X104393051Y-85040864D01*
X104349778Y-85063995D01*
X104304445Y-85082772D01*
X104257490Y-85097016D01*
X104209365Y-85106588D01*
X104160534Y-85111398D01*
X104136000Y-85111398D01*
X104136000Y-85112000D01*
X103636000Y-85112000D01*
X103636000Y-85111398D01*
X103611466Y-85111398D01*
X103562635Y-85106588D01*
X103514510Y-85097016D01*
X103467555Y-85082772D01*
X103422222Y-85063995D01*
X103378949Y-85040864D01*
X103338150Y-85013604D01*
X103300221Y-84982476D01*
X103265524Y-84947779D01*
X103234396Y-84909850D01*
X103207136Y-84869051D01*
X103184005Y-84825778D01*
X103165228Y-84780445D01*
X103150984Y-84733490D01*
X103141412Y-84685365D01*
X103136602Y-84636534D01*
X103136602Y-84612000D01*
X103136000Y-84612000D01*
X103136000Y-84112000D01*
X104636000Y-84112000D01*
G37*
G36*
X103136602Y-83312000D02*
G01*
X103136602Y-83287466D01*
X103141412Y-83238635D01*
X103150984Y-83190510D01*
X103165228Y-83143555D01*
X103184005Y-83098222D01*
X103207136Y-83054949D01*
X103234396Y-83014150D01*
X103265524Y-82976221D01*
X103300221Y-82941524D01*
X103338150Y-82910396D01*
X103378949Y-82883136D01*
X103422222Y-82860005D01*
X103467555Y-82841228D01*
X103514510Y-82826984D01*
X103562635Y-82817412D01*
X103611466Y-82812602D01*
X103636000Y-82812602D01*
X103636000Y-82812000D01*
X104136000Y-82812000D01*
X104136000Y-82812602D01*
X104160534Y-82812602D01*
X104209365Y-82817412D01*
X104257490Y-82826984D01*
X104304445Y-82841228D01*
X104349778Y-82860005D01*
X104393051Y-82883136D01*
X104433850Y-82910396D01*
X104471779Y-82941524D01*
X104506476Y-82976221D01*
X104537604Y-83014150D01*
X104564864Y-83054949D01*
X104587995Y-83098222D01*
X104606772Y-83143555D01*
X104621016Y-83190510D01*
X104630588Y-83238635D01*
X104635398Y-83287466D01*
X104635398Y-83312000D01*
X104636000Y-83312000D01*
X104636000Y-83812000D01*
X103136000Y-83812000D01*
X103136000Y-83312000D01*
X103136602Y-83312000D01*
G37*
%TD*%
D19*
%TO.C,J2*%
X97279000Y-84331000D03*
X99571000Y-84331000D03*
X85849000Y-84331000D03*
X88141000Y-84331000D03*
X91186000Y-89149000D03*
D20*
X84607000Y-90040000D03*
X100813000Y-90040000D03*
D19*
X90170000Y-90929000D03*
X95250000Y-89149000D03*
X93218000Y-89149000D03*
X94234000Y-90929000D03*
X92202000Y-90929000D03*
D21*
X96266000Y-90929000D03*
D19*
X89154000Y-89149000D03*
D22*
X86360000Y-93469000D03*
X99060000Y-93469000D03*
%TD*%
D23*
%TO.C,D1*%
X76422000Y-81788000D03*
X72422000Y-81788000D03*
%TD*%
%TO.C,C4*%
G36*
G01*
X72506000Y-69961999D02*
X72506000Y-71262001D01*
G75*
G02*
X72256001Y-71512000I-249999J0D01*
G01*
X71605999Y-71512000D01*
G75*
G02*
X71356000Y-71262001I0J249999D01*
G01*
X71356000Y-69961999D01*
G75*
G02*
X71605999Y-69712000I249999J0D01*
G01*
X72256001Y-69712000D01*
G75*
G02*
X72506000Y-69961999I0J-249999D01*
G01*
G37*
G36*
G01*
X75456000Y-69961999D02*
X75456000Y-71262001D01*
G75*
G02*
X75206001Y-71512000I-249999J0D01*
G01*
X74555999Y-71512000D01*
G75*
G02*
X74306000Y-71262001I0J249999D01*
G01*
X74306000Y-69961999D01*
G75*
G02*
X74555999Y-69712000I249999J0D01*
G01*
X75206001Y-69712000D01*
G75*
G02*
X75456000Y-69961999I0J-249999D01*
G01*
G37*
%TD*%
%TO.C,C3*%
G36*
G01*
X74306000Y-78882001D02*
X74306000Y-77581999D01*
G75*
G02*
X74555999Y-77332000I249999J0D01*
G01*
X75206001Y-77332000D01*
G75*
G02*
X75456000Y-77581999I0J-249999D01*
G01*
X75456000Y-78882001D01*
G75*
G02*
X75206001Y-79132000I-249999J0D01*
G01*
X74555999Y-79132000D01*
G75*
G02*
X74306000Y-78882001I0J249999D01*
G01*
G37*
G36*
G01*
X71356000Y-78882001D02*
X71356000Y-77581999D01*
G75*
G02*
X71605999Y-77332000I249999J0D01*
G01*
X72256001Y-77332000D01*
G75*
G02*
X72506000Y-77581999I0J-249999D01*
G01*
X72506000Y-78882001D01*
G75*
G02*
X72256001Y-79132000I-249999J0D01*
G01*
X71605999Y-79132000D01*
G75*
G02*
X71356000Y-78882001I0J249999D01*
G01*
G37*
%TD*%
%TO.C,C2*%
G36*
G01*
X64886000Y-69961999D02*
X64886000Y-71262001D01*
G75*
G02*
X64636001Y-71512000I-249999J0D01*
G01*
X63985999Y-71512000D01*
G75*
G02*
X63736000Y-71262001I0J249999D01*
G01*
X63736000Y-69961999D01*
G75*
G02*
X63985999Y-69712000I249999J0D01*
G01*
X64636001Y-69712000D01*
G75*
G02*
X64886000Y-69961999I0J-249999D01*
G01*
G37*
G36*
G01*
X67836000Y-69961999D02*
X67836000Y-71262001D01*
G75*
G02*
X67586001Y-71512000I-249999J0D01*
G01*
X66935999Y-71512000D01*
G75*
G02*
X66686000Y-71262001I0J249999D01*
G01*
X66686000Y-69961999D01*
G75*
G02*
X66935999Y-69712000I249999J0D01*
G01*
X67586001Y-69712000D01*
G75*
G02*
X67836000Y-69961999I0J-249999D01*
G01*
G37*
%TD*%
%TO.C,C1*%
G36*
G01*
X66686000Y-78882001D02*
X66686000Y-77581999D01*
G75*
G02*
X66935999Y-77332000I249999J0D01*
G01*
X67586001Y-77332000D01*
G75*
G02*
X67836000Y-77581999I0J-249999D01*
G01*
X67836000Y-78882001D01*
G75*
G02*
X67586001Y-79132000I-249999J0D01*
G01*
X66935999Y-79132000D01*
G75*
G02*
X66686000Y-78882001I0J249999D01*
G01*
G37*
G36*
G01*
X63736000Y-78882001D02*
X63736000Y-77581999D01*
G75*
G02*
X63985999Y-77332000I249999J0D01*
G01*
X64636001Y-77332000D01*
G75*
G02*
X64886000Y-77581999I0J-249999D01*
G01*
X64886000Y-78882001D01*
G75*
G02*
X64636001Y-79132000I-249999J0D01*
G01*
X63985999Y-79132000D01*
G75*
G02*
X63736000Y-78882001I0J249999D01*
G01*
G37*
%TD*%
M02*
