%TF.GenerationSoftware,KiCad,Pcbnew,5.1.9-73d0e3b20d~88~ubuntu18.04.1*%
%TF.CreationDate,2021-03-21T00:17:26-07:00*%
%TF.ProjectId,ir-repeater-booster,69722d72-6570-4656-9174-65722d626f6f,1.1.0*%
%TF.SameCoordinates,Original*%
%TF.FileFunction,Copper,L2,Bot*%
%TF.FilePolarity,Positive*%
%FSLAX46Y46*%
G04 Gerber Fmt 4.6, Leading zero omitted, Abs format (unit mm)*
G04 Created by KiCad (PCBNEW 5.1.9-73d0e3b20d~88~ubuntu18.04.1) date 2021-03-21 00:17:26*
%MOMM*%
%LPD*%
G01*
G04 APERTURE LIST*
%TA.AperFunction,ComponentPad*%
%ADD10C,2.100000*%
%TD*%
%TA.AperFunction,ComponentPad*%
%ADD11R,4.400000X1.800000*%
%TD*%
%TA.AperFunction,ComponentPad*%
%ADD12O,4.000000X1.800000*%
%TD*%
%TA.AperFunction,ComponentPad*%
%ADD13O,1.800000X4.000000*%
%TD*%
%TA.AperFunction,ComponentPad*%
%ADD14C,1.499000*%
%TD*%
%TA.AperFunction,ComponentPad*%
%ADD15C,2.642000*%
%TD*%
%TA.AperFunction,ComponentPad*%
%ADD16R,1.499000X1.499000*%
%TD*%
%TA.AperFunction,ViaPad*%
%ADD17C,0.800000*%
%TD*%
%TA.AperFunction,Conductor*%
%ADD18C,0.500000*%
%TD*%
%TA.AperFunction,Conductor*%
%ADD19C,0.750000*%
%TD*%
%TA.AperFunction,Conductor*%
%ADD20C,0.270000*%
%TD*%
%TA.AperFunction,Conductor*%
%ADD21C,0.100000*%
%TD*%
G04 APERTURE END LIST*
D10*
%TO.P,RX1,5*%
%TO.N,/RXOUT*%
X74244000Y-58900000D03*
%TO.P,RX1,4*%
%TO.N,N/C*%
X76737000Y-58900000D03*
%TO.P,RX1,3*%
X81737000Y-58900000D03*
%TO.P,RX1,2*%
X84252000Y-58900000D03*
%TO.P,RX1,1*%
%TO.N,GND*%
X79248000Y-53900000D03*
%TD*%
%TO.P,TX1,5*%
%TO.N,Net-(R1-Pad2)*%
X87196000Y-58900000D03*
%TO.P,TX1,4*%
%TO.N,N/C*%
X89689000Y-58900000D03*
%TO.P,TX1,3*%
X94689000Y-58900000D03*
%TO.P,TX1,2*%
%TO.N,+5V*%
X97204000Y-58900000D03*
%TO.P,TX1,1*%
%TO.N,GND*%
X92200000Y-53900000D03*
%TD*%
D11*
%TO.P,J1,1*%
%TO.N,Net-(D1-Pad2)*%
X75946000Y-85344000D03*
D12*
%TO.P,J1,2*%
%TO.N,GND*%
X75946000Y-91144000D03*
D13*
%TO.P,J1,3*%
X80746000Y-88344000D03*
%TD*%
D14*
%TO.P,J2,10*%
%TO.N,/GLED_A*%
X97279000Y-84331000D03*
%TO.P,J2,9*%
%TO.N,GND*%
X99571000Y-84331000D03*
%TO.P,J2,12*%
%TO.N,/YLED_A*%
X85849000Y-84331000D03*
%TO.P,J2,11*%
%TO.N,/YLED_C*%
X88141000Y-84331000D03*
%TO.P,J2,6*%
%TO.N,GND*%
X91186000Y-89149000D03*
D15*
%TO.P,J2,SH*%
X84607000Y-90040000D03*
X100813000Y-90040000D03*
D14*
%TO.P,J2,7*%
%TO.N,+12V*%
X90170000Y-90929000D03*
%TO.P,J2,2*%
%TO.N,/485-*%
X95250000Y-89149000D03*
%TO.P,J2,4*%
%TO.N,N/C*%
X93218000Y-89149000D03*
%TO.P,J2,3*%
%TO.N,GND*%
X94234000Y-90929000D03*
%TO.P,J2,5*%
%TO.N,N/C*%
X92202000Y-90929000D03*
D16*
%TO.P,J2,1*%
%TO.N,/485+*%
X96266000Y-90929000D03*
D14*
%TO.P,J2,8*%
%TO.N,+12V*%
X89154000Y-89149000D03*
%TD*%
D17*
%TO.N,GND*%
X69342000Y-77724000D03*
X69596000Y-74930000D03*
X76708000Y-78486000D03*
X85090000Y-69596000D03*
X81280000Y-69088000D03*
X80264000Y-74422000D03*
X91440000Y-70358000D03*
X88392000Y-71628000D03*
%TO.N,+5V*%
X68072000Y-68580000D03*
%TO.N,+3V3*%
X89408000Y-74168000D03*
X76708000Y-71628000D03*
X95758000Y-82042000D03*
%TO.N,/YLED_C*%
X92964000Y-66040000D03*
%TO.N,/TXD*%
X90424000Y-66294000D03*
X85344000Y-76962000D03*
%TO.N,/DE*%
X91948000Y-71628000D03*
X87376000Y-80518000D03*
%TO.N,Net-(R1-Pad2)*%
X86614000Y-66040000D03*
%TD*%
D18*
%TO.N,GND*%
X85090000Y-69596000D02*
X84328000Y-68834000D01*
X84328000Y-68834000D02*
X81534000Y-68834000D01*
X81534000Y-68834000D02*
X81280000Y-69088000D01*
X91009010Y-70788990D02*
X91440000Y-70358000D01*
X91009010Y-75680319D02*
X91009010Y-70788990D01*
X88877328Y-77812001D02*
X91009010Y-75680319D01*
X80264000Y-74422000D02*
X83654001Y-77812001D01*
X83654001Y-77812001D02*
X88877328Y-77812001D01*
X85090000Y-69596000D02*
X86360000Y-69596000D01*
X86360000Y-69596000D02*
X88392000Y-71628000D01*
D19*
%TO.N,+5V*%
X68072000Y-68580000D02*
X71628000Y-65024000D01*
X71628000Y-65024000D02*
X71628000Y-58420000D01*
X71628000Y-58420000D02*
X73660000Y-56388000D01*
X94692000Y-56388000D02*
X97204000Y-58900000D01*
X73660000Y-56388000D02*
X94692000Y-56388000D01*
%TO.N,+3V3*%
X89408000Y-74168000D02*
X86868000Y-71628000D01*
X86868000Y-71628000D02*
X76708000Y-71628000D01*
D18*
X95758000Y-82042000D02*
X93218000Y-82042000D01*
X93218000Y-82042000D02*
X89408000Y-85852000D01*
X76708000Y-76965262D02*
X76708000Y-71628000D01*
X85594738Y-85852000D02*
X76708000Y-76965262D01*
X89408000Y-85852000D02*
X85594738Y-85852000D01*
D20*
%TO.N,/YLED_C*%
X92964000Y-79508000D02*
X88141000Y-84331000D01*
X92964000Y-66040000D02*
X92964000Y-79508000D01*
%TO.N,/TXD*%
X90424000Y-66294000D02*
X90424000Y-74239802D01*
X90424000Y-74239802D02*
X90424000Y-75438000D01*
X90424000Y-75438000D02*
X88900000Y-76962000D01*
X88900000Y-76962000D02*
X85344000Y-76962000D01*
%TO.N,/DE*%
X91948000Y-71628000D02*
X91948000Y-75946000D01*
X91948000Y-75946000D02*
X91948000Y-76962000D01*
X91948000Y-76962000D02*
X88392000Y-80518000D01*
X88392000Y-80518000D02*
X87376000Y-80518000D01*
%TO.N,Net-(R1-Pad2)*%
X87196000Y-58900000D02*
X87196000Y-65458000D01*
X87196000Y-65458000D02*
X86614000Y-66040000D01*
%TD*%
%TO.N,GND*%
X73779533Y-50523560D02*
X73617549Y-50631794D01*
X73479794Y-50769549D01*
X73371560Y-50931533D01*
X73297007Y-51111519D01*
X73259000Y-51302592D01*
X73259000Y-51497408D01*
X73297007Y-51688481D01*
X73371560Y-51868467D01*
X73479794Y-52030451D01*
X73617549Y-52168206D01*
X73779533Y-52276440D01*
X73959519Y-52350993D01*
X74150592Y-52389000D01*
X74345408Y-52389000D01*
X74536481Y-52350993D01*
X74716467Y-52276440D01*
X74878451Y-52168206D01*
X75016206Y-52030451D01*
X75124440Y-51868467D01*
X75198993Y-51688481D01*
X75237000Y-51497408D01*
X75237000Y-51302592D01*
X75198993Y-51111519D01*
X75124440Y-50931533D01*
X75016206Y-50769549D01*
X74878451Y-50631794D01*
X74716467Y-50523560D01*
X74604062Y-50477000D01*
X83891938Y-50477000D01*
X83779533Y-50523560D01*
X83617549Y-50631794D01*
X83479794Y-50769549D01*
X83371560Y-50931533D01*
X83297007Y-51111519D01*
X83259000Y-51302592D01*
X83259000Y-51497408D01*
X83297007Y-51688481D01*
X83371560Y-51868467D01*
X83479794Y-52030451D01*
X83617549Y-52168206D01*
X83779533Y-52276440D01*
X83959519Y-52350993D01*
X84150592Y-52389000D01*
X84345408Y-52389000D01*
X84536481Y-52350993D01*
X84716467Y-52276440D01*
X84878451Y-52168206D01*
X85016206Y-52030451D01*
X85124440Y-51868467D01*
X85198993Y-51688481D01*
X85237000Y-51497408D01*
X85237000Y-51302592D01*
X85198993Y-51111519D01*
X85124440Y-50931533D01*
X85016206Y-50769549D01*
X84878451Y-50631794D01*
X84716467Y-50523560D01*
X84604062Y-50477000D01*
X86843938Y-50477000D01*
X86731533Y-50523560D01*
X86569549Y-50631794D01*
X86431794Y-50769549D01*
X86323560Y-50931533D01*
X86249007Y-51111519D01*
X86211000Y-51302592D01*
X86211000Y-51497408D01*
X86249007Y-51688481D01*
X86323560Y-51868467D01*
X86431794Y-52030451D01*
X86569549Y-52168206D01*
X86731533Y-52276440D01*
X86911519Y-52350993D01*
X87102592Y-52389000D01*
X87297408Y-52389000D01*
X87488481Y-52350993D01*
X87668467Y-52276440D01*
X87830451Y-52168206D01*
X87968206Y-52030451D01*
X88076440Y-51868467D01*
X88150993Y-51688481D01*
X88189000Y-51497408D01*
X88189000Y-51302592D01*
X88150993Y-51111519D01*
X88076440Y-50931533D01*
X87968206Y-50769549D01*
X87830451Y-50631794D01*
X87668467Y-50523560D01*
X87556062Y-50477000D01*
X96843938Y-50477000D01*
X96731533Y-50523560D01*
X96569549Y-50631794D01*
X96431794Y-50769549D01*
X96323560Y-50931533D01*
X96249007Y-51111519D01*
X96211000Y-51302592D01*
X96211000Y-51497408D01*
X96249007Y-51688481D01*
X96323560Y-51868467D01*
X96431794Y-52030451D01*
X96569549Y-52168206D01*
X96731533Y-52276440D01*
X96911519Y-52350993D01*
X97102592Y-52389000D01*
X97297408Y-52389000D01*
X97488481Y-52350993D01*
X97668467Y-52276440D01*
X97830451Y-52168206D01*
X97968206Y-52030451D01*
X98076440Y-51868467D01*
X98150993Y-51688481D01*
X98189000Y-51497408D01*
X98189000Y-51302592D01*
X98150993Y-51111519D01*
X98076440Y-50931533D01*
X97968206Y-50769549D01*
X97830451Y-50631794D01*
X97668467Y-50523560D01*
X97556062Y-50477000D01*
X107420527Y-50477000D01*
X107948350Y-50528754D01*
X108435410Y-50675806D01*
X108884632Y-50914661D01*
X109278910Y-51236226D01*
X109603213Y-51628241D01*
X109845201Y-52075789D01*
X109995649Y-52561809D01*
X110051001Y-53088442D01*
X110051000Y-94212527D01*
X109999246Y-94740350D01*
X109852194Y-95227410D01*
X109613338Y-95676634D01*
X109291774Y-96070910D01*
X108899759Y-96395213D01*
X108452211Y-96637201D01*
X107966190Y-96787649D01*
X107439569Y-96843000D01*
X64791473Y-96843000D01*
X64263650Y-96791246D01*
X63776590Y-96644194D01*
X63327366Y-96405338D01*
X62933090Y-96083774D01*
X62608787Y-95691759D01*
X62366799Y-95244211D01*
X62216351Y-94758190D01*
X62161000Y-94231569D01*
X62161000Y-92260101D01*
X64559000Y-92260101D01*
X64559000Y-92651899D01*
X64635436Y-93036170D01*
X64785371Y-93398145D01*
X65003043Y-93723914D01*
X65280086Y-94000957D01*
X65605855Y-94218629D01*
X65967830Y-94368564D01*
X66352101Y-94445000D01*
X66743899Y-94445000D01*
X67128170Y-94368564D01*
X67490145Y-94218629D01*
X67815914Y-94000957D01*
X68092957Y-93723914D01*
X68310629Y-93398145D01*
X68363444Y-93270638D01*
X84346000Y-93270638D01*
X84346000Y-93667362D01*
X84423397Y-94056462D01*
X84575216Y-94422987D01*
X84795624Y-94752850D01*
X85076150Y-95033376D01*
X85406013Y-95253784D01*
X85772538Y-95405603D01*
X86161638Y-95483000D01*
X86558362Y-95483000D01*
X86947462Y-95405603D01*
X87313987Y-95253784D01*
X87643850Y-95033376D01*
X87924376Y-94752850D01*
X88144784Y-94422987D01*
X88296603Y-94056462D01*
X88374000Y-93667362D01*
X88374000Y-93270638D01*
X97046000Y-93270638D01*
X97046000Y-93667362D01*
X97123397Y-94056462D01*
X97275216Y-94422987D01*
X97495624Y-94752850D01*
X97776150Y-95033376D01*
X98106013Y-95253784D01*
X98472538Y-95405603D01*
X98861638Y-95483000D01*
X99258362Y-95483000D01*
X99647462Y-95405603D01*
X100013987Y-95253784D01*
X100343850Y-95033376D01*
X100624376Y-94752850D01*
X100844784Y-94422987D01*
X100996603Y-94056462D01*
X101074000Y-93667362D01*
X101074000Y-93270638D01*
X100996603Y-92881538D01*
X100844784Y-92515013D01*
X100674457Y-92260101D01*
X103675000Y-92260101D01*
X103675000Y-92651899D01*
X103751436Y-93036170D01*
X103901371Y-93398145D01*
X104119043Y-93723914D01*
X104396086Y-94000957D01*
X104721855Y-94218629D01*
X105083830Y-94368564D01*
X105468101Y-94445000D01*
X105859899Y-94445000D01*
X106244170Y-94368564D01*
X106606145Y-94218629D01*
X106931914Y-94000957D01*
X107208957Y-93723914D01*
X107426629Y-93398145D01*
X107576564Y-93036170D01*
X107653000Y-92651899D01*
X107653000Y-92260101D01*
X107576564Y-91875830D01*
X107426629Y-91513855D01*
X107208957Y-91188086D01*
X106931914Y-90911043D01*
X106606145Y-90693371D01*
X106244170Y-90543436D01*
X105859899Y-90467000D01*
X105468101Y-90467000D01*
X105083830Y-90543436D01*
X104721855Y-90693371D01*
X104396086Y-90911043D01*
X104119043Y-91188086D01*
X103901371Y-91513855D01*
X103751436Y-91875830D01*
X103675000Y-92260101D01*
X100674457Y-92260101D01*
X100624376Y-92185150D01*
X100343850Y-91904624D01*
X100013987Y-91684216D01*
X99647462Y-91532397D01*
X99258362Y-91455000D01*
X98861638Y-91455000D01*
X98472538Y-91532397D01*
X98106013Y-91684216D01*
X97776150Y-91904624D01*
X97495624Y-92185150D01*
X97275216Y-92515013D01*
X97123397Y-92881538D01*
X97046000Y-93270638D01*
X88374000Y-93270638D01*
X88296603Y-92881538D01*
X88144784Y-92515013D01*
X87924376Y-92185150D01*
X87643850Y-91904624D01*
X87313987Y-91684216D01*
X86947462Y-91532397D01*
X86558362Y-91455000D01*
X86161638Y-91455000D01*
X85772538Y-91532397D01*
X85406013Y-91684216D01*
X85076150Y-91904624D01*
X84795624Y-92185150D01*
X84575216Y-92515013D01*
X84423397Y-92881538D01*
X84346000Y-93270638D01*
X68363444Y-93270638D01*
X68460564Y-93036170D01*
X68537000Y-92651899D01*
X68537000Y-92260101D01*
X68460564Y-91875830D01*
X68310629Y-91513855D01*
X68276194Y-91462318D01*
X73596923Y-91462318D01*
X73609580Y-91527336D01*
X73708123Y-91761184D01*
X73850394Y-91971314D01*
X74030925Y-92149651D01*
X74242779Y-92289341D01*
X74477815Y-92385016D01*
X74727000Y-92433000D01*
X75827000Y-92433000D01*
X75827000Y-91263000D01*
X76065000Y-91263000D01*
X76065000Y-92433000D01*
X77165000Y-92433000D01*
X77414185Y-92385016D01*
X77649221Y-92289341D01*
X77861075Y-92149651D01*
X78041606Y-91971314D01*
X78183877Y-91761184D01*
X78282420Y-91527336D01*
X78295077Y-91462318D01*
X78233157Y-91267290D01*
X83548002Y-91267290D01*
X83695722Y-91496721D01*
X83997424Y-91646513D01*
X84322552Y-91734566D01*
X84658611Y-91757498D01*
X84992686Y-91714428D01*
X85311940Y-91607011D01*
X85518278Y-91496721D01*
X85665998Y-91267290D01*
X84607000Y-90208291D01*
X83548002Y-91267290D01*
X78233157Y-91267290D01*
X78231794Y-91263000D01*
X76065000Y-91263000D01*
X75827000Y-91263000D01*
X73660206Y-91263000D01*
X73596923Y-91462318D01*
X68276194Y-91462318D01*
X68092957Y-91188086D01*
X67815914Y-90911043D01*
X67688163Y-90825682D01*
X73596923Y-90825682D01*
X73660206Y-91025000D01*
X75827000Y-91025000D01*
X75827000Y-89855000D01*
X76065000Y-89855000D01*
X76065000Y-91025000D01*
X78231794Y-91025000D01*
X78295077Y-90825682D01*
X78282420Y-90760664D01*
X78183877Y-90526816D01*
X78041606Y-90316686D01*
X77861075Y-90138349D01*
X77649221Y-89998659D01*
X77414185Y-89902984D01*
X77165000Y-89855000D01*
X76065000Y-89855000D01*
X75827000Y-89855000D01*
X74727000Y-89855000D01*
X74477815Y-89902984D01*
X74242779Y-89998659D01*
X74030925Y-90138349D01*
X73850394Y-90316686D01*
X73708123Y-90526816D01*
X73609580Y-90760664D01*
X73596923Y-90825682D01*
X67688163Y-90825682D01*
X67490145Y-90693371D01*
X67128170Y-90543436D01*
X66743899Y-90467000D01*
X66352101Y-90467000D01*
X65967830Y-90543436D01*
X65605855Y-90693371D01*
X65280086Y-90911043D01*
X65003043Y-91188086D01*
X64785371Y-91513855D01*
X64635436Y-91875830D01*
X64559000Y-92260101D01*
X62161000Y-92260101D01*
X62161000Y-88463000D01*
X79457000Y-88463000D01*
X79457000Y-89563000D01*
X79504984Y-89812185D01*
X79600659Y-90047221D01*
X79740349Y-90259075D01*
X79918686Y-90439606D01*
X80128816Y-90581877D01*
X80362664Y-90680420D01*
X80427682Y-90693077D01*
X80627000Y-90629794D01*
X80627000Y-88463000D01*
X80865000Y-88463000D01*
X80865000Y-90629794D01*
X81064318Y-90693077D01*
X81129336Y-90680420D01*
X81363184Y-90581877D01*
X81573314Y-90439606D01*
X81751651Y-90259075D01*
X81862071Y-90091611D01*
X82889502Y-90091611D01*
X82932572Y-90425686D01*
X83039989Y-90744940D01*
X83150279Y-90951278D01*
X83379710Y-91098998D01*
X84438709Y-90040000D01*
X84775291Y-90040000D01*
X85834290Y-91098998D01*
X86063721Y-90951278D01*
X86213513Y-90649576D01*
X86301566Y-90324448D01*
X86324498Y-89988389D01*
X86281428Y-89654314D01*
X86174011Y-89335060D01*
X86063721Y-89128722D01*
X85921059Y-89036868D01*
X88015500Y-89036868D01*
X88015500Y-89261132D01*
X88059252Y-89481088D01*
X88145074Y-89688282D01*
X88269669Y-89874752D01*
X88428248Y-90033331D01*
X88614718Y-90157926D01*
X88821912Y-90243748D01*
X89041868Y-90287500D01*
X89229374Y-90287500D01*
X89161074Y-90389718D01*
X89075252Y-90596912D01*
X89031500Y-90816868D01*
X89031500Y-91041132D01*
X89075252Y-91261088D01*
X89161074Y-91468282D01*
X89285669Y-91654752D01*
X89444248Y-91813331D01*
X89630718Y-91937926D01*
X89837912Y-92023748D01*
X90057868Y-92067500D01*
X90282132Y-92067500D01*
X90502088Y-92023748D01*
X90709282Y-91937926D01*
X90895752Y-91813331D01*
X91054331Y-91654752D01*
X91178926Y-91468282D01*
X91186000Y-91451204D01*
X91193074Y-91468282D01*
X91317669Y-91654752D01*
X91476248Y-91813331D01*
X91662718Y-91937926D01*
X91869912Y-92023748D01*
X92089868Y-92067500D01*
X92314132Y-92067500D01*
X92534088Y-92023748D01*
X92741282Y-91937926D01*
X92927752Y-91813331D01*
X92992565Y-91748518D01*
X93582774Y-91748518D01*
X93661490Y-91919449D01*
X93865717Y-92012109D01*
X94084098Y-92063146D01*
X94308238Y-92070598D01*
X94529526Y-92034179D01*
X94739457Y-91955289D01*
X94806510Y-91919449D01*
X94885226Y-91748518D01*
X94234000Y-91097291D01*
X93582774Y-91748518D01*
X92992565Y-91748518D01*
X93086331Y-91654752D01*
X93210926Y-91468282D01*
X93217416Y-91452614D01*
X93243551Y-91501510D01*
X93414482Y-91580226D01*
X94065709Y-90929000D01*
X94051566Y-90914858D01*
X94219858Y-90746566D01*
X94234000Y-90760709D01*
X94248142Y-90746566D01*
X94416434Y-90914858D01*
X94402291Y-90929000D01*
X95053518Y-91580226D01*
X95125618Y-91547023D01*
X95125618Y-91678500D01*
X95133129Y-91754757D01*
X95155372Y-91828084D01*
X95191493Y-91895662D01*
X95240105Y-91954895D01*
X95299338Y-92003507D01*
X95366916Y-92039628D01*
X95440243Y-92061871D01*
X95516500Y-92069382D01*
X97015500Y-92069382D01*
X97091757Y-92061871D01*
X97165084Y-92039628D01*
X97232662Y-92003507D01*
X97291895Y-91954895D01*
X97340507Y-91895662D01*
X97376628Y-91828084D01*
X97398871Y-91754757D01*
X97406382Y-91678500D01*
X97406382Y-91267290D01*
X99754002Y-91267290D01*
X99901722Y-91496721D01*
X100203424Y-91646513D01*
X100528552Y-91734566D01*
X100864611Y-91757498D01*
X101198686Y-91714428D01*
X101517940Y-91607011D01*
X101724278Y-91496721D01*
X101871998Y-91267290D01*
X100813000Y-90208291D01*
X99754002Y-91267290D01*
X97406382Y-91267290D01*
X97406382Y-90179500D01*
X97398871Y-90103243D01*
X97395343Y-90091611D01*
X99095502Y-90091611D01*
X99138572Y-90425686D01*
X99245989Y-90744940D01*
X99356279Y-90951278D01*
X99585710Y-91098998D01*
X100644709Y-90040000D01*
X100981291Y-90040000D01*
X102040290Y-91098998D01*
X102269721Y-90951278D01*
X102419513Y-90649576D01*
X102507566Y-90324448D01*
X102530498Y-89988389D01*
X102487428Y-89654314D01*
X102380011Y-89335060D01*
X102269721Y-89128722D01*
X102040290Y-88981002D01*
X100981291Y-90040000D01*
X100644709Y-90040000D01*
X99585710Y-88981002D01*
X99356279Y-89128722D01*
X99206487Y-89430424D01*
X99118434Y-89755552D01*
X99095502Y-90091611D01*
X97395343Y-90091611D01*
X97376628Y-90029916D01*
X97340507Y-89962338D01*
X97291895Y-89903105D01*
X97232662Y-89854493D01*
X97165084Y-89818372D01*
X97091757Y-89796129D01*
X97015500Y-89788618D01*
X96191884Y-89788618D01*
X96258926Y-89688282D01*
X96344748Y-89481088D01*
X96388500Y-89261132D01*
X96388500Y-89036868D01*
X96344748Y-88816912D01*
X96343008Y-88812710D01*
X99754002Y-88812710D01*
X100813000Y-89871709D01*
X101871998Y-88812710D01*
X101724278Y-88583279D01*
X101422576Y-88433487D01*
X101097448Y-88345434D01*
X100761389Y-88322502D01*
X100427314Y-88365572D01*
X100108060Y-88472989D01*
X99901722Y-88583279D01*
X99754002Y-88812710D01*
X96343008Y-88812710D01*
X96258926Y-88609718D01*
X96134331Y-88423248D01*
X95975752Y-88264669D01*
X95789282Y-88140074D01*
X95582088Y-88054252D01*
X95362132Y-88010500D01*
X95137868Y-88010500D01*
X94917912Y-88054252D01*
X94710718Y-88140074D01*
X94524248Y-88264669D01*
X94365669Y-88423248D01*
X94241074Y-88609718D01*
X94234000Y-88626796D01*
X94226926Y-88609718D01*
X94102331Y-88423248D01*
X93943752Y-88264669D01*
X93757282Y-88140074D01*
X93550088Y-88054252D01*
X93330132Y-88010500D01*
X93105868Y-88010500D01*
X92885912Y-88054252D01*
X92678718Y-88140074D01*
X92492248Y-88264669D01*
X92333669Y-88423248D01*
X92209074Y-88609718D01*
X92202584Y-88625386D01*
X92176449Y-88576490D01*
X92005518Y-88497774D01*
X91354291Y-89149000D01*
X91368434Y-89163142D01*
X91200142Y-89331434D01*
X91186000Y-89317291D01*
X91171858Y-89331434D01*
X91003566Y-89163142D01*
X91017709Y-89149000D01*
X90366482Y-88497774D01*
X90195551Y-88576490D01*
X90171301Y-88629938D01*
X90162926Y-88609718D01*
X90038331Y-88423248D01*
X89944565Y-88329482D01*
X90534774Y-88329482D01*
X91186000Y-88980709D01*
X91837226Y-88329482D01*
X91758510Y-88158551D01*
X91554283Y-88065891D01*
X91335902Y-88014854D01*
X91111762Y-88007402D01*
X90890474Y-88043821D01*
X90680543Y-88122711D01*
X90613490Y-88158551D01*
X90534774Y-88329482D01*
X89944565Y-88329482D01*
X89879752Y-88264669D01*
X89693282Y-88140074D01*
X89486088Y-88054252D01*
X89266132Y-88010500D01*
X89041868Y-88010500D01*
X88821912Y-88054252D01*
X88614718Y-88140074D01*
X88428248Y-88264669D01*
X88269669Y-88423248D01*
X88145074Y-88609718D01*
X88059252Y-88816912D01*
X88015500Y-89036868D01*
X85921059Y-89036868D01*
X85834290Y-88981002D01*
X84775291Y-90040000D01*
X84438709Y-90040000D01*
X83379710Y-88981002D01*
X83150279Y-89128722D01*
X83000487Y-89430424D01*
X82912434Y-89755552D01*
X82889502Y-90091611D01*
X81862071Y-90091611D01*
X81891341Y-90047221D01*
X81987016Y-89812185D01*
X82035000Y-89563000D01*
X82035000Y-88812710D01*
X83548002Y-88812710D01*
X84607000Y-89871709D01*
X85665998Y-88812710D01*
X85518278Y-88583279D01*
X85216576Y-88433487D01*
X84891448Y-88345434D01*
X84555389Y-88322502D01*
X84221314Y-88365572D01*
X83902060Y-88472989D01*
X83695722Y-88583279D01*
X83548002Y-88812710D01*
X82035000Y-88812710D01*
X82035000Y-88463000D01*
X80865000Y-88463000D01*
X80627000Y-88463000D01*
X79457000Y-88463000D01*
X62161000Y-88463000D01*
X62161000Y-87125000D01*
X79457000Y-87125000D01*
X79457000Y-88225000D01*
X80627000Y-88225000D01*
X80627000Y-86058206D01*
X80865000Y-86058206D01*
X80865000Y-88225000D01*
X82035000Y-88225000D01*
X82035000Y-87125000D01*
X81987016Y-86875815D01*
X81891341Y-86640779D01*
X81751651Y-86428925D01*
X81573314Y-86248394D01*
X81363184Y-86106123D01*
X81129336Y-86007580D01*
X81064318Y-85994923D01*
X80865000Y-86058206D01*
X80627000Y-86058206D01*
X80427682Y-85994923D01*
X80362664Y-86007580D01*
X80128816Y-86106123D01*
X79918686Y-86248394D01*
X79740349Y-86428925D01*
X79600659Y-86640779D01*
X79504984Y-86875815D01*
X79457000Y-87125000D01*
X62161000Y-87125000D01*
X62161000Y-84444000D01*
X73355118Y-84444000D01*
X73355118Y-86244000D01*
X73362629Y-86320257D01*
X73384872Y-86393584D01*
X73420993Y-86461162D01*
X73469605Y-86520395D01*
X73528838Y-86569007D01*
X73596416Y-86605128D01*
X73669743Y-86627371D01*
X73746000Y-86634882D01*
X78146000Y-86634882D01*
X78222257Y-86627371D01*
X78295584Y-86605128D01*
X78363162Y-86569007D01*
X78422395Y-86520395D01*
X78471007Y-86461162D01*
X78507128Y-86393584D01*
X78529371Y-86320257D01*
X78536882Y-86244000D01*
X78536882Y-84444000D01*
X78529371Y-84367743D01*
X78507128Y-84294416D01*
X78471007Y-84226838D01*
X78422395Y-84167605D01*
X78363162Y-84118993D01*
X78295584Y-84082872D01*
X78222257Y-84060629D01*
X78146000Y-84053118D01*
X73746000Y-84053118D01*
X73669743Y-84060629D01*
X73596416Y-84082872D01*
X73528838Y-84118993D01*
X73469605Y-84167605D01*
X73420993Y-84226838D01*
X73384872Y-84294416D01*
X73362629Y-84367743D01*
X73355118Y-84444000D01*
X62161000Y-84444000D01*
X62161000Y-71550290D01*
X75919000Y-71550290D01*
X75919000Y-71705710D01*
X75949320Y-71858143D01*
X76008797Y-72001732D01*
X76069001Y-72091834D01*
X76069000Y-76933880D01*
X76065909Y-76965262D01*
X76069000Y-76996643D01*
X76078247Y-77090527D01*
X76114785Y-77210979D01*
X76174121Y-77321988D01*
X76253973Y-77419289D01*
X76278359Y-77439302D01*
X85120707Y-86281652D01*
X85140711Y-86306027D01*
X85238011Y-86385879D01*
X85349020Y-86445215D01*
X85469472Y-86481753D01*
X85563356Y-86491000D01*
X85563362Y-86491000D01*
X85594737Y-86494090D01*
X85626112Y-86491000D01*
X89376618Y-86491000D01*
X89408000Y-86494091D01*
X89439382Y-86491000D01*
X89533266Y-86481753D01*
X89653718Y-86445215D01*
X89764727Y-86385879D01*
X89862027Y-86306027D01*
X89882040Y-86281641D01*
X91944813Y-84218868D01*
X96140500Y-84218868D01*
X96140500Y-84443132D01*
X96184252Y-84663088D01*
X96270074Y-84870282D01*
X96394669Y-85056752D01*
X96553248Y-85215331D01*
X96739718Y-85339926D01*
X96946912Y-85425748D01*
X97166868Y-85469500D01*
X97391132Y-85469500D01*
X97611088Y-85425748D01*
X97818282Y-85339926D01*
X98004752Y-85215331D01*
X98069565Y-85150518D01*
X98919774Y-85150518D01*
X98998490Y-85321449D01*
X99202717Y-85414109D01*
X99421098Y-85465146D01*
X99645238Y-85472598D01*
X99866526Y-85436179D01*
X100076457Y-85357289D01*
X100143510Y-85321449D01*
X100222226Y-85150518D01*
X99571000Y-84499291D01*
X98919774Y-85150518D01*
X98069565Y-85150518D01*
X98163331Y-85056752D01*
X98287926Y-84870282D01*
X98373748Y-84663088D01*
X98417500Y-84443132D01*
X98417500Y-84405238D01*
X98429402Y-84405238D01*
X98465821Y-84626526D01*
X98544711Y-84836457D01*
X98580551Y-84903510D01*
X98751482Y-84982226D01*
X99402709Y-84331000D01*
X99739291Y-84331000D01*
X100390518Y-84982226D01*
X100561449Y-84903510D01*
X100654109Y-84699283D01*
X100705146Y-84480902D01*
X100712598Y-84256762D01*
X100676179Y-84035474D01*
X100597289Y-83825543D01*
X100561449Y-83758490D01*
X100390518Y-83679774D01*
X99739291Y-84331000D01*
X99402709Y-84331000D01*
X98751482Y-83679774D01*
X98580551Y-83758490D01*
X98487891Y-83962717D01*
X98436854Y-84181098D01*
X98429402Y-84405238D01*
X98417500Y-84405238D01*
X98417500Y-84218868D01*
X98373748Y-83998912D01*
X98287926Y-83791718D01*
X98163331Y-83605248D01*
X98069565Y-83511482D01*
X98919774Y-83511482D01*
X99571000Y-84162709D01*
X100222226Y-83511482D01*
X100143510Y-83340551D01*
X99939283Y-83247891D01*
X99720902Y-83196854D01*
X99496762Y-83189402D01*
X99275474Y-83225821D01*
X99065543Y-83304711D01*
X98998490Y-83340551D01*
X98919774Y-83511482D01*
X98069565Y-83511482D01*
X98004752Y-83446669D01*
X97818282Y-83322074D01*
X97611088Y-83236252D01*
X97391132Y-83192500D01*
X97166868Y-83192500D01*
X96946912Y-83236252D01*
X96739718Y-83322074D01*
X96553248Y-83446669D01*
X96394669Y-83605248D01*
X96270074Y-83791718D01*
X96184252Y-83998912D01*
X96140500Y-84218868D01*
X91944813Y-84218868D01*
X93482682Y-82681000D01*
X95294168Y-82681000D01*
X95384268Y-82741203D01*
X95527857Y-82800680D01*
X95680290Y-82831000D01*
X95835710Y-82831000D01*
X95988143Y-82800680D01*
X96131732Y-82741203D01*
X96260958Y-82654857D01*
X96370857Y-82544958D01*
X96457203Y-82415732D01*
X96516680Y-82272143D01*
X96547000Y-82119710D01*
X96547000Y-81964290D01*
X96516680Y-81811857D01*
X96457203Y-81668268D01*
X96370857Y-81539042D01*
X96260958Y-81429143D01*
X96131732Y-81342797D01*
X95988143Y-81283320D01*
X95835710Y-81253000D01*
X95680290Y-81253000D01*
X95527857Y-81283320D01*
X95384268Y-81342797D01*
X95294168Y-81403000D01*
X93249382Y-81403000D01*
X93218000Y-81399909D01*
X93186618Y-81403000D01*
X93092734Y-81412247D01*
X92972282Y-81448785D01*
X92861273Y-81508121D01*
X92763973Y-81587973D01*
X92743964Y-81612354D01*
X89143319Y-85213000D01*
X88869083Y-85213000D01*
X89025331Y-85056752D01*
X89149926Y-84870282D01*
X89235748Y-84663088D01*
X89279500Y-84443132D01*
X89279500Y-84218868D01*
X89235748Y-83998912D01*
X89229418Y-83983629D01*
X93316328Y-79896720D01*
X93336316Y-79880316D01*
X93352720Y-79860328D01*
X93352724Y-79860324D01*
X93401798Y-79800528D01*
X93450454Y-79709497D01*
X93450455Y-79709496D01*
X93480418Y-79610722D01*
X93488000Y-79533739D01*
X93488000Y-79533730D01*
X93490534Y-79508001D01*
X93488000Y-79482272D01*
X93488000Y-66631815D01*
X93576857Y-66542958D01*
X93663203Y-66413732D01*
X93722680Y-66270143D01*
X93753000Y-66117710D01*
X93753000Y-65962290D01*
X93722680Y-65809857D01*
X93663203Y-65666268D01*
X93576857Y-65537042D01*
X93466958Y-65427143D01*
X93337732Y-65340797D01*
X93194143Y-65281320D01*
X93041710Y-65251000D01*
X92886290Y-65251000D01*
X92733857Y-65281320D01*
X92590268Y-65340797D01*
X92461042Y-65427143D01*
X92351143Y-65537042D01*
X92264797Y-65666268D01*
X92205320Y-65809857D01*
X92175000Y-65962290D01*
X92175000Y-66117710D01*
X92205320Y-66270143D01*
X92264797Y-66413732D01*
X92351143Y-66542958D01*
X92440000Y-66631815D01*
X92440000Y-71007821D01*
X92321732Y-70928797D01*
X92178143Y-70869320D01*
X92025710Y-70839000D01*
X91870290Y-70839000D01*
X91717857Y-70869320D01*
X91574268Y-70928797D01*
X91445042Y-71015143D01*
X91335143Y-71125042D01*
X91248797Y-71254268D01*
X91189320Y-71397857D01*
X91159000Y-71550290D01*
X91159000Y-71705710D01*
X91189320Y-71858143D01*
X91248797Y-72001732D01*
X91335143Y-72130958D01*
X91424000Y-72219815D01*
X91424001Y-75920252D01*
X91424000Y-75920262D01*
X91424001Y-76744951D01*
X88174953Y-79994000D01*
X87967815Y-79994000D01*
X87878958Y-79905143D01*
X87749732Y-79818797D01*
X87606143Y-79759320D01*
X87453710Y-79729000D01*
X87298290Y-79729000D01*
X87145857Y-79759320D01*
X87002268Y-79818797D01*
X86873042Y-79905143D01*
X86763143Y-80015042D01*
X86676797Y-80144268D01*
X86617320Y-80287857D01*
X86587000Y-80440290D01*
X86587000Y-80595710D01*
X86617320Y-80748143D01*
X86676797Y-80891732D01*
X86763143Y-81020958D01*
X86873042Y-81130857D01*
X87002268Y-81217203D01*
X87145857Y-81276680D01*
X87298290Y-81307000D01*
X87453710Y-81307000D01*
X87606143Y-81276680D01*
X87749732Y-81217203D01*
X87878958Y-81130857D01*
X87967815Y-81042000D01*
X88366271Y-81042000D01*
X88392000Y-81044534D01*
X88417729Y-81042000D01*
X88417739Y-81042000D01*
X88494722Y-81034418D01*
X88593496Y-81004455D01*
X88684527Y-80955798D01*
X88764316Y-80890316D01*
X88780724Y-80870323D01*
X92300328Y-77350720D01*
X92320316Y-77334316D01*
X92336720Y-77314328D01*
X92336723Y-77314325D01*
X92385797Y-77254528D01*
X92409074Y-77210980D01*
X92434455Y-77163496D01*
X92440001Y-77145214D01*
X92440001Y-79290951D01*
X88488371Y-83242582D01*
X88473088Y-83236252D01*
X88253132Y-83192500D01*
X88028868Y-83192500D01*
X87808912Y-83236252D01*
X87601718Y-83322074D01*
X87415248Y-83446669D01*
X87256669Y-83605248D01*
X87132074Y-83791718D01*
X87046252Y-83998912D01*
X87002500Y-84218868D01*
X87002500Y-84443132D01*
X87046252Y-84663088D01*
X87132074Y-84870282D01*
X87256669Y-85056752D01*
X87412917Y-85213000D01*
X86577083Y-85213000D01*
X86733331Y-85056752D01*
X86857926Y-84870282D01*
X86943748Y-84663088D01*
X86987500Y-84443132D01*
X86987500Y-84218868D01*
X86943748Y-83998912D01*
X86857926Y-83791718D01*
X86733331Y-83605248D01*
X86574752Y-83446669D01*
X86388282Y-83322074D01*
X86181088Y-83236252D01*
X85961132Y-83192500D01*
X85736868Y-83192500D01*
X85516912Y-83236252D01*
X85309718Y-83322074D01*
X85123248Y-83446669D01*
X84964669Y-83605248D01*
X84840074Y-83791718D01*
X84754252Y-83998912D01*
X84736181Y-84089760D01*
X77347000Y-76700581D01*
X77347000Y-72392000D01*
X86551542Y-72392000D01*
X88723950Y-74564409D01*
X88795143Y-74670958D01*
X88905042Y-74780857D01*
X89034268Y-74867203D01*
X89177857Y-74926680D01*
X89330290Y-74957000D01*
X89485710Y-74957000D01*
X89638143Y-74926680D01*
X89781732Y-74867203D01*
X89900000Y-74788179D01*
X89900001Y-75220951D01*
X88682953Y-76438000D01*
X85935815Y-76438000D01*
X85846958Y-76349143D01*
X85717732Y-76262797D01*
X85574143Y-76203320D01*
X85421710Y-76173000D01*
X85266290Y-76173000D01*
X85113857Y-76203320D01*
X84970268Y-76262797D01*
X84841042Y-76349143D01*
X84731143Y-76459042D01*
X84644797Y-76588268D01*
X84585320Y-76731857D01*
X84555000Y-76884290D01*
X84555000Y-77039710D01*
X84585320Y-77192143D01*
X84644797Y-77335732D01*
X84731143Y-77464958D01*
X84841042Y-77574857D01*
X84970268Y-77661203D01*
X85113857Y-77720680D01*
X85266290Y-77751000D01*
X85421710Y-77751000D01*
X85574143Y-77720680D01*
X85717732Y-77661203D01*
X85846958Y-77574857D01*
X85935815Y-77486000D01*
X88874271Y-77486000D01*
X88900000Y-77488534D01*
X88925729Y-77486000D01*
X88925739Y-77486000D01*
X89002722Y-77478418D01*
X89101496Y-77448455D01*
X89192527Y-77399798D01*
X89272316Y-77334316D01*
X89288724Y-77314323D01*
X90776328Y-75826720D01*
X90796316Y-75810316D01*
X90812720Y-75790328D01*
X90812723Y-75790325D01*
X90861797Y-75730528D01*
X90910454Y-75639497D01*
X90910455Y-75639496D01*
X90940418Y-75540722D01*
X90948000Y-75463739D01*
X90948000Y-75463730D01*
X90950534Y-75438001D01*
X90948000Y-75412272D01*
X90948000Y-66885815D01*
X91036857Y-66796958D01*
X91123203Y-66667732D01*
X91182680Y-66524143D01*
X91213000Y-66371710D01*
X91213000Y-66216290D01*
X91182680Y-66063857D01*
X91123203Y-65920268D01*
X91036857Y-65791042D01*
X90926958Y-65681143D01*
X90797732Y-65594797D01*
X90654143Y-65535320D01*
X90501710Y-65505000D01*
X90346290Y-65505000D01*
X90193857Y-65535320D01*
X90050268Y-65594797D01*
X89921042Y-65681143D01*
X89811143Y-65791042D01*
X89724797Y-65920268D01*
X89665320Y-66063857D01*
X89635000Y-66216290D01*
X89635000Y-66371710D01*
X89665320Y-66524143D01*
X89724797Y-66667732D01*
X89811143Y-66796958D01*
X89900000Y-66885815D01*
X89900001Y-73547822D01*
X89804409Y-73483950D01*
X87434769Y-71114311D01*
X87410843Y-71085157D01*
X87294509Y-70989684D01*
X87161785Y-70918741D01*
X87017770Y-70875055D01*
X86905526Y-70864000D01*
X86905516Y-70864000D01*
X86868000Y-70860305D01*
X86830484Y-70864000D01*
X76911397Y-70864000D01*
X76785710Y-70839000D01*
X76630290Y-70839000D01*
X76477857Y-70869320D01*
X76334268Y-70928797D01*
X76205042Y-71015143D01*
X76095143Y-71125042D01*
X76008797Y-71254268D01*
X75949320Y-71397857D01*
X75919000Y-71550290D01*
X62161000Y-71550290D01*
X62161000Y-68502290D01*
X67283000Y-68502290D01*
X67283000Y-68657710D01*
X67313320Y-68810143D01*
X67372797Y-68953732D01*
X67459143Y-69082958D01*
X67569042Y-69192857D01*
X67698268Y-69279203D01*
X67841857Y-69338680D01*
X67994290Y-69369000D01*
X68149710Y-69369000D01*
X68302143Y-69338680D01*
X68445732Y-69279203D01*
X68574958Y-69192857D01*
X68684857Y-69082958D01*
X68756054Y-68976404D01*
X72141695Y-65590764D01*
X72170843Y-65566843D01*
X72266316Y-65450509D01*
X72337259Y-65317785D01*
X72380945Y-65173770D01*
X72392000Y-65061526D01*
X72392000Y-65061517D01*
X72395695Y-65024001D01*
X72392000Y-64986485D01*
X72392000Y-58736458D01*
X73086963Y-58041495D01*
X72968774Y-58218378D01*
X72860300Y-58480259D01*
X72805000Y-58758271D01*
X72805000Y-59041729D01*
X72860300Y-59319741D01*
X72968774Y-59581622D01*
X73126255Y-59817309D01*
X73326691Y-60017745D01*
X73562378Y-60175226D01*
X73824259Y-60283700D01*
X74102271Y-60339000D01*
X74385729Y-60339000D01*
X74663741Y-60283700D01*
X74925622Y-60175226D01*
X75161309Y-60017745D01*
X75361745Y-59817309D01*
X75490500Y-59624614D01*
X75619255Y-59817309D01*
X75819691Y-60017745D01*
X76055378Y-60175226D01*
X76317259Y-60283700D01*
X76595271Y-60339000D01*
X76878729Y-60339000D01*
X77156741Y-60283700D01*
X77418622Y-60175226D01*
X77654309Y-60017745D01*
X77854745Y-59817309D01*
X78012226Y-59581622D01*
X78120700Y-59319741D01*
X78176000Y-59041729D01*
X78176000Y-58802592D01*
X78259000Y-58802592D01*
X78259000Y-58997408D01*
X78297007Y-59188481D01*
X78371560Y-59368467D01*
X78479794Y-59530451D01*
X78617549Y-59668206D01*
X78779533Y-59776440D01*
X78959519Y-59850993D01*
X79150592Y-59889000D01*
X79345408Y-59889000D01*
X79536481Y-59850993D01*
X79716467Y-59776440D01*
X79878451Y-59668206D01*
X80016206Y-59530451D01*
X80124440Y-59368467D01*
X80198993Y-59188481D01*
X80237000Y-58997408D01*
X80237000Y-58802592D01*
X80228184Y-58758271D01*
X80298000Y-58758271D01*
X80298000Y-59041729D01*
X80353300Y-59319741D01*
X80461774Y-59581622D01*
X80619255Y-59817309D01*
X80819691Y-60017745D01*
X81055378Y-60175226D01*
X81317259Y-60283700D01*
X81595271Y-60339000D01*
X81878729Y-60339000D01*
X82156741Y-60283700D01*
X82418622Y-60175226D01*
X82654309Y-60017745D01*
X82854745Y-59817309D01*
X82994500Y-59608151D01*
X83134255Y-59817309D01*
X83334691Y-60017745D01*
X83570378Y-60175226D01*
X83832259Y-60283700D01*
X84110271Y-60339000D01*
X84393729Y-60339000D01*
X84671741Y-60283700D01*
X84933622Y-60175226D01*
X85169309Y-60017745D01*
X85369745Y-59817309D01*
X85527226Y-59581622D01*
X85635700Y-59319741D01*
X85691000Y-59041729D01*
X85691000Y-58758271D01*
X85757000Y-58758271D01*
X85757000Y-59041729D01*
X85812300Y-59319741D01*
X85920774Y-59581622D01*
X86078255Y-59817309D01*
X86278691Y-60017745D01*
X86514378Y-60175226D01*
X86672000Y-60240515D01*
X86672001Y-65240952D01*
X86661953Y-65251000D01*
X86536290Y-65251000D01*
X86383857Y-65281320D01*
X86240268Y-65340797D01*
X86111042Y-65427143D01*
X86001143Y-65537042D01*
X85914797Y-65666268D01*
X85855320Y-65809857D01*
X85825000Y-65962290D01*
X85825000Y-66117710D01*
X85855320Y-66270143D01*
X85914797Y-66413732D01*
X86001143Y-66542958D01*
X86111042Y-66652857D01*
X86240268Y-66739203D01*
X86383857Y-66798680D01*
X86536290Y-66829000D01*
X86691710Y-66829000D01*
X86844143Y-66798680D01*
X86987732Y-66739203D01*
X87116958Y-66652857D01*
X87226857Y-66542958D01*
X87313203Y-66413732D01*
X87372680Y-66270143D01*
X87403000Y-66117710D01*
X87403000Y-65992047D01*
X87548323Y-65846724D01*
X87568316Y-65830316D01*
X87633798Y-65750527D01*
X87682455Y-65659496D01*
X87712418Y-65560722D01*
X87720000Y-65483739D01*
X87720000Y-65483730D01*
X87722534Y-65458001D01*
X87720000Y-65432272D01*
X87720000Y-60240515D01*
X87877622Y-60175226D01*
X88113309Y-60017745D01*
X88313745Y-59817309D01*
X88442500Y-59624614D01*
X88571255Y-59817309D01*
X88771691Y-60017745D01*
X89007378Y-60175226D01*
X89269259Y-60283700D01*
X89547271Y-60339000D01*
X89830729Y-60339000D01*
X90108741Y-60283700D01*
X90370622Y-60175226D01*
X90606309Y-60017745D01*
X90806745Y-59817309D01*
X90964226Y-59581622D01*
X91072700Y-59319741D01*
X91128000Y-59041729D01*
X91128000Y-58802592D01*
X91211000Y-58802592D01*
X91211000Y-58997408D01*
X91249007Y-59188481D01*
X91323560Y-59368467D01*
X91431794Y-59530451D01*
X91569549Y-59668206D01*
X91731533Y-59776440D01*
X91911519Y-59850993D01*
X92102592Y-59889000D01*
X92297408Y-59889000D01*
X92488481Y-59850993D01*
X92668467Y-59776440D01*
X92830451Y-59668206D01*
X92968206Y-59530451D01*
X93076440Y-59368467D01*
X93150993Y-59188481D01*
X93189000Y-58997408D01*
X93189000Y-58802592D01*
X93150993Y-58611519D01*
X93076440Y-58431533D01*
X92968206Y-58269549D01*
X92830451Y-58131794D01*
X92668467Y-58023560D01*
X92488481Y-57949007D01*
X92297408Y-57911000D01*
X92102592Y-57911000D01*
X91911519Y-57949007D01*
X91731533Y-58023560D01*
X91569549Y-58131794D01*
X91431794Y-58269549D01*
X91323560Y-58431533D01*
X91249007Y-58611519D01*
X91211000Y-58802592D01*
X91128000Y-58802592D01*
X91128000Y-58758271D01*
X91072700Y-58480259D01*
X90964226Y-58218378D01*
X90806745Y-57982691D01*
X90606309Y-57782255D01*
X90370622Y-57624774D01*
X90108741Y-57516300D01*
X89830729Y-57461000D01*
X89547271Y-57461000D01*
X89269259Y-57516300D01*
X89007378Y-57624774D01*
X88771691Y-57782255D01*
X88571255Y-57982691D01*
X88442500Y-58175386D01*
X88313745Y-57982691D01*
X88113309Y-57782255D01*
X87877622Y-57624774D01*
X87615741Y-57516300D01*
X87337729Y-57461000D01*
X87054271Y-57461000D01*
X86776259Y-57516300D01*
X86514378Y-57624774D01*
X86278691Y-57782255D01*
X86078255Y-57982691D01*
X85920774Y-58218378D01*
X85812300Y-58480259D01*
X85757000Y-58758271D01*
X85691000Y-58758271D01*
X85635700Y-58480259D01*
X85527226Y-58218378D01*
X85369745Y-57982691D01*
X85169309Y-57782255D01*
X84933622Y-57624774D01*
X84671741Y-57516300D01*
X84393729Y-57461000D01*
X84110271Y-57461000D01*
X83832259Y-57516300D01*
X83570378Y-57624774D01*
X83334691Y-57782255D01*
X83134255Y-57982691D01*
X82994500Y-58191849D01*
X82854745Y-57982691D01*
X82654309Y-57782255D01*
X82418622Y-57624774D01*
X82156741Y-57516300D01*
X81878729Y-57461000D01*
X81595271Y-57461000D01*
X81317259Y-57516300D01*
X81055378Y-57624774D01*
X80819691Y-57782255D01*
X80619255Y-57982691D01*
X80461774Y-58218378D01*
X80353300Y-58480259D01*
X80298000Y-58758271D01*
X80228184Y-58758271D01*
X80198993Y-58611519D01*
X80124440Y-58431533D01*
X80016206Y-58269549D01*
X79878451Y-58131794D01*
X79716467Y-58023560D01*
X79536481Y-57949007D01*
X79345408Y-57911000D01*
X79150592Y-57911000D01*
X78959519Y-57949007D01*
X78779533Y-58023560D01*
X78617549Y-58131794D01*
X78479794Y-58269549D01*
X78371560Y-58431533D01*
X78297007Y-58611519D01*
X78259000Y-58802592D01*
X78176000Y-58802592D01*
X78176000Y-58758271D01*
X78120700Y-58480259D01*
X78012226Y-58218378D01*
X77854745Y-57982691D01*
X77654309Y-57782255D01*
X77418622Y-57624774D01*
X77156741Y-57516300D01*
X76878729Y-57461000D01*
X76595271Y-57461000D01*
X76317259Y-57516300D01*
X76055378Y-57624774D01*
X75819691Y-57782255D01*
X75619255Y-57982691D01*
X75490500Y-58175386D01*
X75361745Y-57982691D01*
X75161309Y-57782255D01*
X74925622Y-57624774D01*
X74663741Y-57516300D01*
X74385729Y-57461000D01*
X74102271Y-57461000D01*
X73824259Y-57516300D01*
X73562378Y-57624774D01*
X73385496Y-57742963D01*
X73976459Y-57152000D01*
X94375542Y-57152000D01*
X94684542Y-57461000D01*
X94547271Y-57461000D01*
X94269259Y-57516300D01*
X94007378Y-57624774D01*
X93771691Y-57782255D01*
X93571255Y-57982691D01*
X93413774Y-58218378D01*
X93305300Y-58480259D01*
X93250000Y-58758271D01*
X93250000Y-59041729D01*
X93305300Y-59319741D01*
X93413774Y-59581622D01*
X93571255Y-59817309D01*
X93771691Y-60017745D01*
X94007378Y-60175226D01*
X94269259Y-60283700D01*
X94547271Y-60339000D01*
X94830729Y-60339000D01*
X95108741Y-60283700D01*
X95370622Y-60175226D01*
X95606309Y-60017745D01*
X95806745Y-59817309D01*
X95946500Y-59608151D01*
X96086255Y-59817309D01*
X96286691Y-60017745D01*
X96522378Y-60175226D01*
X96784259Y-60283700D01*
X97062271Y-60339000D01*
X97345729Y-60339000D01*
X97623741Y-60283700D01*
X97885622Y-60175226D01*
X98121309Y-60017745D01*
X98321745Y-59817309D01*
X98479226Y-59581622D01*
X98587700Y-59319741D01*
X98643000Y-59041729D01*
X98643000Y-58758271D01*
X98587700Y-58480259D01*
X98479226Y-58218378D01*
X98321745Y-57982691D01*
X98121309Y-57782255D01*
X97885622Y-57624774D01*
X97623741Y-57516300D01*
X97345729Y-57461000D01*
X97062271Y-57461000D01*
X96881431Y-57496971D01*
X95258769Y-55874311D01*
X95234843Y-55845157D01*
X95118509Y-55749684D01*
X94985785Y-55678741D01*
X94841770Y-55635055D01*
X94729526Y-55624000D01*
X94729516Y-55624000D01*
X94692000Y-55620305D01*
X94654484Y-55624000D01*
X73697519Y-55624000D01*
X73660000Y-55620305D01*
X73622481Y-55624000D01*
X73622474Y-55624000D01*
X73524095Y-55633689D01*
X73510229Y-55635055D01*
X73366215Y-55678741D01*
X73233491Y-55749684D01*
X73117157Y-55845157D01*
X73093235Y-55874306D01*
X71114307Y-57853235D01*
X71085158Y-57877157D01*
X71061236Y-57906306D01*
X70989685Y-57993491D01*
X70918741Y-58126216D01*
X70875056Y-58270230D01*
X70860305Y-58420000D01*
X70864001Y-58457526D01*
X70864000Y-64707541D01*
X67675596Y-67895946D01*
X67569042Y-67967143D01*
X67459143Y-68077042D01*
X67372797Y-68206268D01*
X67313320Y-68349857D01*
X67283000Y-68502290D01*
X62161000Y-68502290D01*
X62161000Y-54668101D01*
X64559000Y-54668101D01*
X64559000Y-55059899D01*
X64635436Y-55444170D01*
X64785371Y-55806145D01*
X65003043Y-56131914D01*
X65280086Y-56408957D01*
X65605855Y-56626629D01*
X65967830Y-56776564D01*
X66352101Y-56853000D01*
X66743899Y-56853000D01*
X67128170Y-56776564D01*
X67490145Y-56626629D01*
X67815914Y-56408957D01*
X68092957Y-56131914D01*
X68310629Y-55806145D01*
X68460564Y-55444170D01*
X68537000Y-55059899D01*
X68537000Y-54934110D01*
X78382181Y-54934110D01*
X78497241Y-55135786D01*
X78752756Y-55258507D01*
X79027303Y-55329021D01*
X79310331Y-55344619D01*
X79590964Y-55304701D01*
X79858418Y-55210801D01*
X79998759Y-55135786D01*
X80113819Y-54934110D01*
X91334181Y-54934110D01*
X91449241Y-55135786D01*
X91704756Y-55258507D01*
X91979303Y-55329021D01*
X92262331Y-55344619D01*
X92542964Y-55304701D01*
X92810418Y-55210801D01*
X92950759Y-55135786D01*
X93065819Y-54934110D01*
X92200000Y-54068291D01*
X91334181Y-54934110D01*
X80113819Y-54934110D01*
X79248000Y-54068291D01*
X78382181Y-54934110D01*
X68537000Y-54934110D01*
X68537000Y-54668101D01*
X68460564Y-54283830D01*
X68310629Y-53921855D01*
X68230940Y-53802592D01*
X73259000Y-53802592D01*
X73259000Y-53997408D01*
X73297007Y-54188481D01*
X73371560Y-54368467D01*
X73479794Y-54530451D01*
X73617549Y-54668206D01*
X73779533Y-54776440D01*
X73959519Y-54850993D01*
X74150592Y-54889000D01*
X74345408Y-54889000D01*
X74536481Y-54850993D01*
X74716467Y-54776440D01*
X74878451Y-54668206D01*
X75016206Y-54530451D01*
X75124440Y-54368467D01*
X75198993Y-54188481D01*
X75237000Y-53997408D01*
X75237000Y-53962331D01*
X77803381Y-53962331D01*
X77843299Y-54242964D01*
X77937199Y-54510418D01*
X78012214Y-54650759D01*
X78213890Y-54765819D01*
X79079709Y-53900000D01*
X79416291Y-53900000D01*
X80282110Y-54765819D01*
X80483786Y-54650759D01*
X80606507Y-54395244D01*
X80677021Y-54120697D01*
X80692619Y-53837669D01*
X80687630Y-53802592D01*
X83259000Y-53802592D01*
X83259000Y-53997408D01*
X83297007Y-54188481D01*
X83371560Y-54368467D01*
X83479794Y-54530451D01*
X83617549Y-54668206D01*
X83779533Y-54776440D01*
X83959519Y-54850993D01*
X84150592Y-54889000D01*
X84345408Y-54889000D01*
X84536481Y-54850993D01*
X84716467Y-54776440D01*
X84878451Y-54668206D01*
X85016206Y-54530451D01*
X85124440Y-54368467D01*
X85198993Y-54188481D01*
X85237000Y-53997408D01*
X85237000Y-53802592D01*
X86211000Y-53802592D01*
X86211000Y-53997408D01*
X86249007Y-54188481D01*
X86323560Y-54368467D01*
X86431794Y-54530451D01*
X86569549Y-54668206D01*
X86731533Y-54776440D01*
X86911519Y-54850993D01*
X87102592Y-54889000D01*
X87297408Y-54889000D01*
X87488481Y-54850993D01*
X87668467Y-54776440D01*
X87830451Y-54668206D01*
X87968206Y-54530451D01*
X88076440Y-54368467D01*
X88150993Y-54188481D01*
X88189000Y-53997408D01*
X88189000Y-53962331D01*
X90755381Y-53962331D01*
X90795299Y-54242964D01*
X90889199Y-54510418D01*
X90964214Y-54650759D01*
X91165890Y-54765819D01*
X92031709Y-53900000D01*
X92368291Y-53900000D01*
X93234110Y-54765819D01*
X93435786Y-54650759D01*
X93558507Y-54395244D01*
X93629021Y-54120697D01*
X93644619Y-53837669D01*
X93639630Y-53802592D01*
X96211000Y-53802592D01*
X96211000Y-53997408D01*
X96249007Y-54188481D01*
X96323560Y-54368467D01*
X96431794Y-54530451D01*
X96569549Y-54668206D01*
X96731533Y-54776440D01*
X96911519Y-54850993D01*
X97102592Y-54889000D01*
X97297408Y-54889000D01*
X97488481Y-54850993D01*
X97668467Y-54776440D01*
X97830451Y-54668206D01*
X97830556Y-54668101D01*
X103675000Y-54668101D01*
X103675000Y-55059899D01*
X103751436Y-55444170D01*
X103901371Y-55806145D01*
X104119043Y-56131914D01*
X104396086Y-56408957D01*
X104721855Y-56626629D01*
X105083830Y-56776564D01*
X105468101Y-56853000D01*
X105859899Y-56853000D01*
X106244170Y-56776564D01*
X106606145Y-56626629D01*
X106931914Y-56408957D01*
X107208957Y-56131914D01*
X107426629Y-55806145D01*
X107576564Y-55444170D01*
X107653000Y-55059899D01*
X107653000Y-54668101D01*
X107576564Y-54283830D01*
X107426629Y-53921855D01*
X107208957Y-53596086D01*
X106931914Y-53319043D01*
X106606145Y-53101371D01*
X106244170Y-52951436D01*
X105859899Y-52875000D01*
X105468101Y-52875000D01*
X105083830Y-52951436D01*
X104721855Y-53101371D01*
X104396086Y-53319043D01*
X104119043Y-53596086D01*
X103901371Y-53921855D01*
X103751436Y-54283830D01*
X103675000Y-54668101D01*
X97830556Y-54668101D01*
X97968206Y-54530451D01*
X98076440Y-54368467D01*
X98150993Y-54188481D01*
X98189000Y-53997408D01*
X98189000Y-53802592D01*
X98150993Y-53611519D01*
X98076440Y-53431533D01*
X97968206Y-53269549D01*
X97830451Y-53131794D01*
X97668467Y-53023560D01*
X97488481Y-52949007D01*
X97297408Y-52911000D01*
X97102592Y-52911000D01*
X96911519Y-52949007D01*
X96731533Y-53023560D01*
X96569549Y-53131794D01*
X96431794Y-53269549D01*
X96323560Y-53431533D01*
X96249007Y-53611519D01*
X96211000Y-53802592D01*
X93639630Y-53802592D01*
X93604701Y-53557036D01*
X93510801Y-53289582D01*
X93435786Y-53149241D01*
X93234110Y-53034181D01*
X92368291Y-53900000D01*
X92031709Y-53900000D01*
X91165890Y-53034181D01*
X90964214Y-53149241D01*
X90841493Y-53404756D01*
X90770979Y-53679303D01*
X90755381Y-53962331D01*
X88189000Y-53962331D01*
X88189000Y-53802592D01*
X88150993Y-53611519D01*
X88076440Y-53431533D01*
X87968206Y-53269549D01*
X87830451Y-53131794D01*
X87668467Y-53023560D01*
X87488481Y-52949007D01*
X87297408Y-52911000D01*
X87102592Y-52911000D01*
X86911519Y-52949007D01*
X86731533Y-53023560D01*
X86569549Y-53131794D01*
X86431794Y-53269549D01*
X86323560Y-53431533D01*
X86249007Y-53611519D01*
X86211000Y-53802592D01*
X85237000Y-53802592D01*
X85198993Y-53611519D01*
X85124440Y-53431533D01*
X85016206Y-53269549D01*
X84878451Y-53131794D01*
X84716467Y-53023560D01*
X84536481Y-52949007D01*
X84345408Y-52911000D01*
X84150592Y-52911000D01*
X83959519Y-52949007D01*
X83779533Y-53023560D01*
X83617549Y-53131794D01*
X83479794Y-53269549D01*
X83371560Y-53431533D01*
X83297007Y-53611519D01*
X83259000Y-53802592D01*
X80687630Y-53802592D01*
X80652701Y-53557036D01*
X80558801Y-53289582D01*
X80483786Y-53149241D01*
X80282110Y-53034181D01*
X79416291Y-53900000D01*
X79079709Y-53900000D01*
X78213890Y-53034181D01*
X78012214Y-53149241D01*
X77889493Y-53404756D01*
X77818979Y-53679303D01*
X77803381Y-53962331D01*
X75237000Y-53962331D01*
X75237000Y-53802592D01*
X75198993Y-53611519D01*
X75124440Y-53431533D01*
X75016206Y-53269549D01*
X74878451Y-53131794D01*
X74716467Y-53023560D01*
X74536481Y-52949007D01*
X74345408Y-52911000D01*
X74150592Y-52911000D01*
X73959519Y-52949007D01*
X73779533Y-53023560D01*
X73617549Y-53131794D01*
X73479794Y-53269549D01*
X73371560Y-53431533D01*
X73297007Y-53611519D01*
X73259000Y-53802592D01*
X68230940Y-53802592D01*
X68092957Y-53596086D01*
X67815914Y-53319043D01*
X67490145Y-53101371D01*
X67128170Y-52951436D01*
X66743899Y-52875000D01*
X66352101Y-52875000D01*
X65967830Y-52951436D01*
X65605855Y-53101371D01*
X65280086Y-53319043D01*
X65003043Y-53596086D01*
X64785371Y-53921855D01*
X64635436Y-54283830D01*
X64559000Y-54668101D01*
X62161000Y-54668101D01*
X62161000Y-53107473D01*
X62184687Y-52865890D01*
X78382181Y-52865890D01*
X79248000Y-53731709D01*
X80113819Y-52865890D01*
X91334181Y-52865890D01*
X92200000Y-53731709D01*
X93065819Y-52865890D01*
X92950759Y-52664214D01*
X92695244Y-52541493D01*
X92420697Y-52470979D01*
X92137669Y-52455381D01*
X91857036Y-52495299D01*
X91589582Y-52589199D01*
X91449241Y-52664214D01*
X91334181Y-52865890D01*
X80113819Y-52865890D01*
X79998759Y-52664214D01*
X79743244Y-52541493D01*
X79468697Y-52470979D01*
X79185669Y-52455381D01*
X78905036Y-52495299D01*
X78637582Y-52589199D01*
X78497241Y-52664214D01*
X78382181Y-52865890D01*
X62184687Y-52865890D01*
X62212754Y-52579650D01*
X62359806Y-52092590D01*
X62598661Y-51643368D01*
X62920226Y-51249090D01*
X63312241Y-50924787D01*
X63759789Y-50682799D01*
X64245809Y-50532351D01*
X64772432Y-50477000D01*
X73891938Y-50477000D01*
X73779533Y-50523560D01*
%TA.AperFunction,Conductor*%
D21*
G36*
X73779533Y-50523560D02*
G01*
X73617549Y-50631794D01*
X73479794Y-50769549D01*
X73371560Y-50931533D01*
X73297007Y-51111519D01*
X73259000Y-51302592D01*
X73259000Y-51497408D01*
X73297007Y-51688481D01*
X73371560Y-51868467D01*
X73479794Y-52030451D01*
X73617549Y-52168206D01*
X73779533Y-52276440D01*
X73959519Y-52350993D01*
X74150592Y-52389000D01*
X74345408Y-52389000D01*
X74536481Y-52350993D01*
X74716467Y-52276440D01*
X74878451Y-52168206D01*
X75016206Y-52030451D01*
X75124440Y-51868467D01*
X75198993Y-51688481D01*
X75237000Y-51497408D01*
X75237000Y-51302592D01*
X75198993Y-51111519D01*
X75124440Y-50931533D01*
X75016206Y-50769549D01*
X74878451Y-50631794D01*
X74716467Y-50523560D01*
X74604062Y-50477000D01*
X83891938Y-50477000D01*
X83779533Y-50523560D01*
X83617549Y-50631794D01*
X83479794Y-50769549D01*
X83371560Y-50931533D01*
X83297007Y-51111519D01*
X83259000Y-51302592D01*
X83259000Y-51497408D01*
X83297007Y-51688481D01*
X83371560Y-51868467D01*
X83479794Y-52030451D01*
X83617549Y-52168206D01*
X83779533Y-52276440D01*
X83959519Y-52350993D01*
X84150592Y-52389000D01*
X84345408Y-52389000D01*
X84536481Y-52350993D01*
X84716467Y-52276440D01*
X84878451Y-52168206D01*
X85016206Y-52030451D01*
X85124440Y-51868467D01*
X85198993Y-51688481D01*
X85237000Y-51497408D01*
X85237000Y-51302592D01*
X85198993Y-51111519D01*
X85124440Y-50931533D01*
X85016206Y-50769549D01*
X84878451Y-50631794D01*
X84716467Y-50523560D01*
X84604062Y-50477000D01*
X86843938Y-50477000D01*
X86731533Y-50523560D01*
X86569549Y-50631794D01*
X86431794Y-50769549D01*
X86323560Y-50931533D01*
X86249007Y-51111519D01*
X86211000Y-51302592D01*
X86211000Y-51497408D01*
X86249007Y-51688481D01*
X86323560Y-51868467D01*
X86431794Y-52030451D01*
X86569549Y-52168206D01*
X86731533Y-52276440D01*
X86911519Y-52350993D01*
X87102592Y-52389000D01*
X87297408Y-52389000D01*
X87488481Y-52350993D01*
X87668467Y-52276440D01*
X87830451Y-52168206D01*
X87968206Y-52030451D01*
X88076440Y-51868467D01*
X88150993Y-51688481D01*
X88189000Y-51497408D01*
X88189000Y-51302592D01*
X88150993Y-51111519D01*
X88076440Y-50931533D01*
X87968206Y-50769549D01*
X87830451Y-50631794D01*
X87668467Y-50523560D01*
X87556062Y-50477000D01*
X96843938Y-50477000D01*
X96731533Y-50523560D01*
X96569549Y-50631794D01*
X96431794Y-50769549D01*
X96323560Y-50931533D01*
X96249007Y-51111519D01*
X96211000Y-51302592D01*
X96211000Y-51497408D01*
X96249007Y-51688481D01*
X96323560Y-51868467D01*
X96431794Y-52030451D01*
X96569549Y-52168206D01*
X96731533Y-52276440D01*
X96911519Y-52350993D01*
X97102592Y-52389000D01*
X97297408Y-52389000D01*
X97488481Y-52350993D01*
X97668467Y-52276440D01*
X97830451Y-52168206D01*
X97968206Y-52030451D01*
X98076440Y-51868467D01*
X98150993Y-51688481D01*
X98189000Y-51497408D01*
X98189000Y-51302592D01*
X98150993Y-51111519D01*
X98076440Y-50931533D01*
X97968206Y-50769549D01*
X97830451Y-50631794D01*
X97668467Y-50523560D01*
X97556062Y-50477000D01*
X107420527Y-50477000D01*
X107948350Y-50528754D01*
X108435410Y-50675806D01*
X108884632Y-50914661D01*
X109278910Y-51236226D01*
X109603213Y-51628241D01*
X109845201Y-52075789D01*
X109995649Y-52561809D01*
X110051001Y-53088442D01*
X110051000Y-94212527D01*
X109999246Y-94740350D01*
X109852194Y-95227410D01*
X109613338Y-95676634D01*
X109291774Y-96070910D01*
X108899759Y-96395213D01*
X108452211Y-96637201D01*
X107966190Y-96787649D01*
X107439569Y-96843000D01*
X64791473Y-96843000D01*
X64263650Y-96791246D01*
X63776590Y-96644194D01*
X63327366Y-96405338D01*
X62933090Y-96083774D01*
X62608787Y-95691759D01*
X62366799Y-95244211D01*
X62216351Y-94758190D01*
X62161000Y-94231569D01*
X62161000Y-92260101D01*
X64559000Y-92260101D01*
X64559000Y-92651899D01*
X64635436Y-93036170D01*
X64785371Y-93398145D01*
X65003043Y-93723914D01*
X65280086Y-94000957D01*
X65605855Y-94218629D01*
X65967830Y-94368564D01*
X66352101Y-94445000D01*
X66743899Y-94445000D01*
X67128170Y-94368564D01*
X67490145Y-94218629D01*
X67815914Y-94000957D01*
X68092957Y-93723914D01*
X68310629Y-93398145D01*
X68363444Y-93270638D01*
X84346000Y-93270638D01*
X84346000Y-93667362D01*
X84423397Y-94056462D01*
X84575216Y-94422987D01*
X84795624Y-94752850D01*
X85076150Y-95033376D01*
X85406013Y-95253784D01*
X85772538Y-95405603D01*
X86161638Y-95483000D01*
X86558362Y-95483000D01*
X86947462Y-95405603D01*
X87313987Y-95253784D01*
X87643850Y-95033376D01*
X87924376Y-94752850D01*
X88144784Y-94422987D01*
X88296603Y-94056462D01*
X88374000Y-93667362D01*
X88374000Y-93270638D01*
X97046000Y-93270638D01*
X97046000Y-93667362D01*
X97123397Y-94056462D01*
X97275216Y-94422987D01*
X97495624Y-94752850D01*
X97776150Y-95033376D01*
X98106013Y-95253784D01*
X98472538Y-95405603D01*
X98861638Y-95483000D01*
X99258362Y-95483000D01*
X99647462Y-95405603D01*
X100013987Y-95253784D01*
X100343850Y-95033376D01*
X100624376Y-94752850D01*
X100844784Y-94422987D01*
X100996603Y-94056462D01*
X101074000Y-93667362D01*
X101074000Y-93270638D01*
X100996603Y-92881538D01*
X100844784Y-92515013D01*
X100674457Y-92260101D01*
X103675000Y-92260101D01*
X103675000Y-92651899D01*
X103751436Y-93036170D01*
X103901371Y-93398145D01*
X104119043Y-93723914D01*
X104396086Y-94000957D01*
X104721855Y-94218629D01*
X105083830Y-94368564D01*
X105468101Y-94445000D01*
X105859899Y-94445000D01*
X106244170Y-94368564D01*
X106606145Y-94218629D01*
X106931914Y-94000957D01*
X107208957Y-93723914D01*
X107426629Y-93398145D01*
X107576564Y-93036170D01*
X107653000Y-92651899D01*
X107653000Y-92260101D01*
X107576564Y-91875830D01*
X107426629Y-91513855D01*
X107208957Y-91188086D01*
X106931914Y-90911043D01*
X106606145Y-90693371D01*
X106244170Y-90543436D01*
X105859899Y-90467000D01*
X105468101Y-90467000D01*
X105083830Y-90543436D01*
X104721855Y-90693371D01*
X104396086Y-90911043D01*
X104119043Y-91188086D01*
X103901371Y-91513855D01*
X103751436Y-91875830D01*
X103675000Y-92260101D01*
X100674457Y-92260101D01*
X100624376Y-92185150D01*
X100343850Y-91904624D01*
X100013987Y-91684216D01*
X99647462Y-91532397D01*
X99258362Y-91455000D01*
X98861638Y-91455000D01*
X98472538Y-91532397D01*
X98106013Y-91684216D01*
X97776150Y-91904624D01*
X97495624Y-92185150D01*
X97275216Y-92515013D01*
X97123397Y-92881538D01*
X97046000Y-93270638D01*
X88374000Y-93270638D01*
X88296603Y-92881538D01*
X88144784Y-92515013D01*
X87924376Y-92185150D01*
X87643850Y-91904624D01*
X87313987Y-91684216D01*
X86947462Y-91532397D01*
X86558362Y-91455000D01*
X86161638Y-91455000D01*
X85772538Y-91532397D01*
X85406013Y-91684216D01*
X85076150Y-91904624D01*
X84795624Y-92185150D01*
X84575216Y-92515013D01*
X84423397Y-92881538D01*
X84346000Y-93270638D01*
X68363444Y-93270638D01*
X68460564Y-93036170D01*
X68537000Y-92651899D01*
X68537000Y-92260101D01*
X68460564Y-91875830D01*
X68310629Y-91513855D01*
X68276194Y-91462318D01*
X73596923Y-91462318D01*
X73609580Y-91527336D01*
X73708123Y-91761184D01*
X73850394Y-91971314D01*
X74030925Y-92149651D01*
X74242779Y-92289341D01*
X74477815Y-92385016D01*
X74727000Y-92433000D01*
X75827000Y-92433000D01*
X75827000Y-91263000D01*
X76065000Y-91263000D01*
X76065000Y-92433000D01*
X77165000Y-92433000D01*
X77414185Y-92385016D01*
X77649221Y-92289341D01*
X77861075Y-92149651D01*
X78041606Y-91971314D01*
X78183877Y-91761184D01*
X78282420Y-91527336D01*
X78295077Y-91462318D01*
X78233157Y-91267290D01*
X83548002Y-91267290D01*
X83695722Y-91496721D01*
X83997424Y-91646513D01*
X84322552Y-91734566D01*
X84658611Y-91757498D01*
X84992686Y-91714428D01*
X85311940Y-91607011D01*
X85518278Y-91496721D01*
X85665998Y-91267290D01*
X84607000Y-90208291D01*
X83548002Y-91267290D01*
X78233157Y-91267290D01*
X78231794Y-91263000D01*
X76065000Y-91263000D01*
X75827000Y-91263000D01*
X73660206Y-91263000D01*
X73596923Y-91462318D01*
X68276194Y-91462318D01*
X68092957Y-91188086D01*
X67815914Y-90911043D01*
X67688163Y-90825682D01*
X73596923Y-90825682D01*
X73660206Y-91025000D01*
X75827000Y-91025000D01*
X75827000Y-89855000D01*
X76065000Y-89855000D01*
X76065000Y-91025000D01*
X78231794Y-91025000D01*
X78295077Y-90825682D01*
X78282420Y-90760664D01*
X78183877Y-90526816D01*
X78041606Y-90316686D01*
X77861075Y-90138349D01*
X77649221Y-89998659D01*
X77414185Y-89902984D01*
X77165000Y-89855000D01*
X76065000Y-89855000D01*
X75827000Y-89855000D01*
X74727000Y-89855000D01*
X74477815Y-89902984D01*
X74242779Y-89998659D01*
X74030925Y-90138349D01*
X73850394Y-90316686D01*
X73708123Y-90526816D01*
X73609580Y-90760664D01*
X73596923Y-90825682D01*
X67688163Y-90825682D01*
X67490145Y-90693371D01*
X67128170Y-90543436D01*
X66743899Y-90467000D01*
X66352101Y-90467000D01*
X65967830Y-90543436D01*
X65605855Y-90693371D01*
X65280086Y-90911043D01*
X65003043Y-91188086D01*
X64785371Y-91513855D01*
X64635436Y-91875830D01*
X64559000Y-92260101D01*
X62161000Y-92260101D01*
X62161000Y-88463000D01*
X79457000Y-88463000D01*
X79457000Y-89563000D01*
X79504984Y-89812185D01*
X79600659Y-90047221D01*
X79740349Y-90259075D01*
X79918686Y-90439606D01*
X80128816Y-90581877D01*
X80362664Y-90680420D01*
X80427682Y-90693077D01*
X80627000Y-90629794D01*
X80627000Y-88463000D01*
X80865000Y-88463000D01*
X80865000Y-90629794D01*
X81064318Y-90693077D01*
X81129336Y-90680420D01*
X81363184Y-90581877D01*
X81573314Y-90439606D01*
X81751651Y-90259075D01*
X81862071Y-90091611D01*
X82889502Y-90091611D01*
X82932572Y-90425686D01*
X83039989Y-90744940D01*
X83150279Y-90951278D01*
X83379710Y-91098998D01*
X84438709Y-90040000D01*
X84775291Y-90040000D01*
X85834290Y-91098998D01*
X86063721Y-90951278D01*
X86213513Y-90649576D01*
X86301566Y-90324448D01*
X86324498Y-89988389D01*
X86281428Y-89654314D01*
X86174011Y-89335060D01*
X86063721Y-89128722D01*
X85921059Y-89036868D01*
X88015500Y-89036868D01*
X88015500Y-89261132D01*
X88059252Y-89481088D01*
X88145074Y-89688282D01*
X88269669Y-89874752D01*
X88428248Y-90033331D01*
X88614718Y-90157926D01*
X88821912Y-90243748D01*
X89041868Y-90287500D01*
X89229374Y-90287500D01*
X89161074Y-90389718D01*
X89075252Y-90596912D01*
X89031500Y-90816868D01*
X89031500Y-91041132D01*
X89075252Y-91261088D01*
X89161074Y-91468282D01*
X89285669Y-91654752D01*
X89444248Y-91813331D01*
X89630718Y-91937926D01*
X89837912Y-92023748D01*
X90057868Y-92067500D01*
X90282132Y-92067500D01*
X90502088Y-92023748D01*
X90709282Y-91937926D01*
X90895752Y-91813331D01*
X91054331Y-91654752D01*
X91178926Y-91468282D01*
X91186000Y-91451204D01*
X91193074Y-91468282D01*
X91317669Y-91654752D01*
X91476248Y-91813331D01*
X91662718Y-91937926D01*
X91869912Y-92023748D01*
X92089868Y-92067500D01*
X92314132Y-92067500D01*
X92534088Y-92023748D01*
X92741282Y-91937926D01*
X92927752Y-91813331D01*
X92992565Y-91748518D01*
X93582774Y-91748518D01*
X93661490Y-91919449D01*
X93865717Y-92012109D01*
X94084098Y-92063146D01*
X94308238Y-92070598D01*
X94529526Y-92034179D01*
X94739457Y-91955289D01*
X94806510Y-91919449D01*
X94885226Y-91748518D01*
X94234000Y-91097291D01*
X93582774Y-91748518D01*
X92992565Y-91748518D01*
X93086331Y-91654752D01*
X93210926Y-91468282D01*
X93217416Y-91452614D01*
X93243551Y-91501510D01*
X93414482Y-91580226D01*
X94065709Y-90929000D01*
X94051566Y-90914858D01*
X94219858Y-90746566D01*
X94234000Y-90760709D01*
X94248142Y-90746566D01*
X94416434Y-90914858D01*
X94402291Y-90929000D01*
X95053518Y-91580226D01*
X95125618Y-91547023D01*
X95125618Y-91678500D01*
X95133129Y-91754757D01*
X95155372Y-91828084D01*
X95191493Y-91895662D01*
X95240105Y-91954895D01*
X95299338Y-92003507D01*
X95366916Y-92039628D01*
X95440243Y-92061871D01*
X95516500Y-92069382D01*
X97015500Y-92069382D01*
X97091757Y-92061871D01*
X97165084Y-92039628D01*
X97232662Y-92003507D01*
X97291895Y-91954895D01*
X97340507Y-91895662D01*
X97376628Y-91828084D01*
X97398871Y-91754757D01*
X97406382Y-91678500D01*
X97406382Y-91267290D01*
X99754002Y-91267290D01*
X99901722Y-91496721D01*
X100203424Y-91646513D01*
X100528552Y-91734566D01*
X100864611Y-91757498D01*
X101198686Y-91714428D01*
X101517940Y-91607011D01*
X101724278Y-91496721D01*
X101871998Y-91267290D01*
X100813000Y-90208291D01*
X99754002Y-91267290D01*
X97406382Y-91267290D01*
X97406382Y-90179500D01*
X97398871Y-90103243D01*
X97395343Y-90091611D01*
X99095502Y-90091611D01*
X99138572Y-90425686D01*
X99245989Y-90744940D01*
X99356279Y-90951278D01*
X99585710Y-91098998D01*
X100644709Y-90040000D01*
X100981291Y-90040000D01*
X102040290Y-91098998D01*
X102269721Y-90951278D01*
X102419513Y-90649576D01*
X102507566Y-90324448D01*
X102530498Y-89988389D01*
X102487428Y-89654314D01*
X102380011Y-89335060D01*
X102269721Y-89128722D01*
X102040290Y-88981002D01*
X100981291Y-90040000D01*
X100644709Y-90040000D01*
X99585710Y-88981002D01*
X99356279Y-89128722D01*
X99206487Y-89430424D01*
X99118434Y-89755552D01*
X99095502Y-90091611D01*
X97395343Y-90091611D01*
X97376628Y-90029916D01*
X97340507Y-89962338D01*
X97291895Y-89903105D01*
X97232662Y-89854493D01*
X97165084Y-89818372D01*
X97091757Y-89796129D01*
X97015500Y-89788618D01*
X96191884Y-89788618D01*
X96258926Y-89688282D01*
X96344748Y-89481088D01*
X96388500Y-89261132D01*
X96388500Y-89036868D01*
X96344748Y-88816912D01*
X96343008Y-88812710D01*
X99754002Y-88812710D01*
X100813000Y-89871709D01*
X101871998Y-88812710D01*
X101724278Y-88583279D01*
X101422576Y-88433487D01*
X101097448Y-88345434D01*
X100761389Y-88322502D01*
X100427314Y-88365572D01*
X100108060Y-88472989D01*
X99901722Y-88583279D01*
X99754002Y-88812710D01*
X96343008Y-88812710D01*
X96258926Y-88609718D01*
X96134331Y-88423248D01*
X95975752Y-88264669D01*
X95789282Y-88140074D01*
X95582088Y-88054252D01*
X95362132Y-88010500D01*
X95137868Y-88010500D01*
X94917912Y-88054252D01*
X94710718Y-88140074D01*
X94524248Y-88264669D01*
X94365669Y-88423248D01*
X94241074Y-88609718D01*
X94234000Y-88626796D01*
X94226926Y-88609718D01*
X94102331Y-88423248D01*
X93943752Y-88264669D01*
X93757282Y-88140074D01*
X93550088Y-88054252D01*
X93330132Y-88010500D01*
X93105868Y-88010500D01*
X92885912Y-88054252D01*
X92678718Y-88140074D01*
X92492248Y-88264669D01*
X92333669Y-88423248D01*
X92209074Y-88609718D01*
X92202584Y-88625386D01*
X92176449Y-88576490D01*
X92005518Y-88497774D01*
X91354291Y-89149000D01*
X91368434Y-89163142D01*
X91200142Y-89331434D01*
X91186000Y-89317291D01*
X91171858Y-89331434D01*
X91003566Y-89163142D01*
X91017709Y-89149000D01*
X90366482Y-88497774D01*
X90195551Y-88576490D01*
X90171301Y-88629938D01*
X90162926Y-88609718D01*
X90038331Y-88423248D01*
X89944565Y-88329482D01*
X90534774Y-88329482D01*
X91186000Y-88980709D01*
X91837226Y-88329482D01*
X91758510Y-88158551D01*
X91554283Y-88065891D01*
X91335902Y-88014854D01*
X91111762Y-88007402D01*
X90890474Y-88043821D01*
X90680543Y-88122711D01*
X90613490Y-88158551D01*
X90534774Y-88329482D01*
X89944565Y-88329482D01*
X89879752Y-88264669D01*
X89693282Y-88140074D01*
X89486088Y-88054252D01*
X89266132Y-88010500D01*
X89041868Y-88010500D01*
X88821912Y-88054252D01*
X88614718Y-88140074D01*
X88428248Y-88264669D01*
X88269669Y-88423248D01*
X88145074Y-88609718D01*
X88059252Y-88816912D01*
X88015500Y-89036868D01*
X85921059Y-89036868D01*
X85834290Y-88981002D01*
X84775291Y-90040000D01*
X84438709Y-90040000D01*
X83379710Y-88981002D01*
X83150279Y-89128722D01*
X83000487Y-89430424D01*
X82912434Y-89755552D01*
X82889502Y-90091611D01*
X81862071Y-90091611D01*
X81891341Y-90047221D01*
X81987016Y-89812185D01*
X82035000Y-89563000D01*
X82035000Y-88812710D01*
X83548002Y-88812710D01*
X84607000Y-89871709D01*
X85665998Y-88812710D01*
X85518278Y-88583279D01*
X85216576Y-88433487D01*
X84891448Y-88345434D01*
X84555389Y-88322502D01*
X84221314Y-88365572D01*
X83902060Y-88472989D01*
X83695722Y-88583279D01*
X83548002Y-88812710D01*
X82035000Y-88812710D01*
X82035000Y-88463000D01*
X80865000Y-88463000D01*
X80627000Y-88463000D01*
X79457000Y-88463000D01*
X62161000Y-88463000D01*
X62161000Y-87125000D01*
X79457000Y-87125000D01*
X79457000Y-88225000D01*
X80627000Y-88225000D01*
X80627000Y-86058206D01*
X80865000Y-86058206D01*
X80865000Y-88225000D01*
X82035000Y-88225000D01*
X82035000Y-87125000D01*
X81987016Y-86875815D01*
X81891341Y-86640779D01*
X81751651Y-86428925D01*
X81573314Y-86248394D01*
X81363184Y-86106123D01*
X81129336Y-86007580D01*
X81064318Y-85994923D01*
X80865000Y-86058206D01*
X80627000Y-86058206D01*
X80427682Y-85994923D01*
X80362664Y-86007580D01*
X80128816Y-86106123D01*
X79918686Y-86248394D01*
X79740349Y-86428925D01*
X79600659Y-86640779D01*
X79504984Y-86875815D01*
X79457000Y-87125000D01*
X62161000Y-87125000D01*
X62161000Y-84444000D01*
X73355118Y-84444000D01*
X73355118Y-86244000D01*
X73362629Y-86320257D01*
X73384872Y-86393584D01*
X73420993Y-86461162D01*
X73469605Y-86520395D01*
X73528838Y-86569007D01*
X73596416Y-86605128D01*
X73669743Y-86627371D01*
X73746000Y-86634882D01*
X78146000Y-86634882D01*
X78222257Y-86627371D01*
X78295584Y-86605128D01*
X78363162Y-86569007D01*
X78422395Y-86520395D01*
X78471007Y-86461162D01*
X78507128Y-86393584D01*
X78529371Y-86320257D01*
X78536882Y-86244000D01*
X78536882Y-84444000D01*
X78529371Y-84367743D01*
X78507128Y-84294416D01*
X78471007Y-84226838D01*
X78422395Y-84167605D01*
X78363162Y-84118993D01*
X78295584Y-84082872D01*
X78222257Y-84060629D01*
X78146000Y-84053118D01*
X73746000Y-84053118D01*
X73669743Y-84060629D01*
X73596416Y-84082872D01*
X73528838Y-84118993D01*
X73469605Y-84167605D01*
X73420993Y-84226838D01*
X73384872Y-84294416D01*
X73362629Y-84367743D01*
X73355118Y-84444000D01*
X62161000Y-84444000D01*
X62161000Y-71550290D01*
X75919000Y-71550290D01*
X75919000Y-71705710D01*
X75949320Y-71858143D01*
X76008797Y-72001732D01*
X76069001Y-72091834D01*
X76069000Y-76933880D01*
X76065909Y-76965262D01*
X76069000Y-76996643D01*
X76078247Y-77090527D01*
X76114785Y-77210979D01*
X76174121Y-77321988D01*
X76253973Y-77419289D01*
X76278359Y-77439302D01*
X85120707Y-86281652D01*
X85140711Y-86306027D01*
X85238011Y-86385879D01*
X85349020Y-86445215D01*
X85469472Y-86481753D01*
X85563356Y-86491000D01*
X85563362Y-86491000D01*
X85594737Y-86494090D01*
X85626112Y-86491000D01*
X89376618Y-86491000D01*
X89408000Y-86494091D01*
X89439382Y-86491000D01*
X89533266Y-86481753D01*
X89653718Y-86445215D01*
X89764727Y-86385879D01*
X89862027Y-86306027D01*
X89882040Y-86281641D01*
X91944813Y-84218868D01*
X96140500Y-84218868D01*
X96140500Y-84443132D01*
X96184252Y-84663088D01*
X96270074Y-84870282D01*
X96394669Y-85056752D01*
X96553248Y-85215331D01*
X96739718Y-85339926D01*
X96946912Y-85425748D01*
X97166868Y-85469500D01*
X97391132Y-85469500D01*
X97611088Y-85425748D01*
X97818282Y-85339926D01*
X98004752Y-85215331D01*
X98069565Y-85150518D01*
X98919774Y-85150518D01*
X98998490Y-85321449D01*
X99202717Y-85414109D01*
X99421098Y-85465146D01*
X99645238Y-85472598D01*
X99866526Y-85436179D01*
X100076457Y-85357289D01*
X100143510Y-85321449D01*
X100222226Y-85150518D01*
X99571000Y-84499291D01*
X98919774Y-85150518D01*
X98069565Y-85150518D01*
X98163331Y-85056752D01*
X98287926Y-84870282D01*
X98373748Y-84663088D01*
X98417500Y-84443132D01*
X98417500Y-84405238D01*
X98429402Y-84405238D01*
X98465821Y-84626526D01*
X98544711Y-84836457D01*
X98580551Y-84903510D01*
X98751482Y-84982226D01*
X99402709Y-84331000D01*
X99739291Y-84331000D01*
X100390518Y-84982226D01*
X100561449Y-84903510D01*
X100654109Y-84699283D01*
X100705146Y-84480902D01*
X100712598Y-84256762D01*
X100676179Y-84035474D01*
X100597289Y-83825543D01*
X100561449Y-83758490D01*
X100390518Y-83679774D01*
X99739291Y-84331000D01*
X99402709Y-84331000D01*
X98751482Y-83679774D01*
X98580551Y-83758490D01*
X98487891Y-83962717D01*
X98436854Y-84181098D01*
X98429402Y-84405238D01*
X98417500Y-84405238D01*
X98417500Y-84218868D01*
X98373748Y-83998912D01*
X98287926Y-83791718D01*
X98163331Y-83605248D01*
X98069565Y-83511482D01*
X98919774Y-83511482D01*
X99571000Y-84162709D01*
X100222226Y-83511482D01*
X100143510Y-83340551D01*
X99939283Y-83247891D01*
X99720902Y-83196854D01*
X99496762Y-83189402D01*
X99275474Y-83225821D01*
X99065543Y-83304711D01*
X98998490Y-83340551D01*
X98919774Y-83511482D01*
X98069565Y-83511482D01*
X98004752Y-83446669D01*
X97818282Y-83322074D01*
X97611088Y-83236252D01*
X97391132Y-83192500D01*
X97166868Y-83192500D01*
X96946912Y-83236252D01*
X96739718Y-83322074D01*
X96553248Y-83446669D01*
X96394669Y-83605248D01*
X96270074Y-83791718D01*
X96184252Y-83998912D01*
X96140500Y-84218868D01*
X91944813Y-84218868D01*
X93482682Y-82681000D01*
X95294168Y-82681000D01*
X95384268Y-82741203D01*
X95527857Y-82800680D01*
X95680290Y-82831000D01*
X95835710Y-82831000D01*
X95988143Y-82800680D01*
X96131732Y-82741203D01*
X96260958Y-82654857D01*
X96370857Y-82544958D01*
X96457203Y-82415732D01*
X96516680Y-82272143D01*
X96547000Y-82119710D01*
X96547000Y-81964290D01*
X96516680Y-81811857D01*
X96457203Y-81668268D01*
X96370857Y-81539042D01*
X96260958Y-81429143D01*
X96131732Y-81342797D01*
X95988143Y-81283320D01*
X95835710Y-81253000D01*
X95680290Y-81253000D01*
X95527857Y-81283320D01*
X95384268Y-81342797D01*
X95294168Y-81403000D01*
X93249382Y-81403000D01*
X93218000Y-81399909D01*
X93186618Y-81403000D01*
X93092734Y-81412247D01*
X92972282Y-81448785D01*
X92861273Y-81508121D01*
X92763973Y-81587973D01*
X92743964Y-81612354D01*
X89143319Y-85213000D01*
X88869083Y-85213000D01*
X89025331Y-85056752D01*
X89149926Y-84870282D01*
X89235748Y-84663088D01*
X89279500Y-84443132D01*
X89279500Y-84218868D01*
X89235748Y-83998912D01*
X89229418Y-83983629D01*
X93316328Y-79896720D01*
X93336316Y-79880316D01*
X93352720Y-79860328D01*
X93352724Y-79860324D01*
X93401798Y-79800528D01*
X93450454Y-79709497D01*
X93450455Y-79709496D01*
X93480418Y-79610722D01*
X93488000Y-79533739D01*
X93488000Y-79533730D01*
X93490534Y-79508001D01*
X93488000Y-79482272D01*
X93488000Y-66631815D01*
X93576857Y-66542958D01*
X93663203Y-66413732D01*
X93722680Y-66270143D01*
X93753000Y-66117710D01*
X93753000Y-65962290D01*
X93722680Y-65809857D01*
X93663203Y-65666268D01*
X93576857Y-65537042D01*
X93466958Y-65427143D01*
X93337732Y-65340797D01*
X93194143Y-65281320D01*
X93041710Y-65251000D01*
X92886290Y-65251000D01*
X92733857Y-65281320D01*
X92590268Y-65340797D01*
X92461042Y-65427143D01*
X92351143Y-65537042D01*
X92264797Y-65666268D01*
X92205320Y-65809857D01*
X92175000Y-65962290D01*
X92175000Y-66117710D01*
X92205320Y-66270143D01*
X92264797Y-66413732D01*
X92351143Y-66542958D01*
X92440000Y-66631815D01*
X92440000Y-71007821D01*
X92321732Y-70928797D01*
X92178143Y-70869320D01*
X92025710Y-70839000D01*
X91870290Y-70839000D01*
X91717857Y-70869320D01*
X91574268Y-70928797D01*
X91445042Y-71015143D01*
X91335143Y-71125042D01*
X91248797Y-71254268D01*
X91189320Y-71397857D01*
X91159000Y-71550290D01*
X91159000Y-71705710D01*
X91189320Y-71858143D01*
X91248797Y-72001732D01*
X91335143Y-72130958D01*
X91424000Y-72219815D01*
X91424001Y-75920252D01*
X91424000Y-75920262D01*
X91424001Y-76744951D01*
X88174953Y-79994000D01*
X87967815Y-79994000D01*
X87878958Y-79905143D01*
X87749732Y-79818797D01*
X87606143Y-79759320D01*
X87453710Y-79729000D01*
X87298290Y-79729000D01*
X87145857Y-79759320D01*
X87002268Y-79818797D01*
X86873042Y-79905143D01*
X86763143Y-80015042D01*
X86676797Y-80144268D01*
X86617320Y-80287857D01*
X86587000Y-80440290D01*
X86587000Y-80595710D01*
X86617320Y-80748143D01*
X86676797Y-80891732D01*
X86763143Y-81020958D01*
X86873042Y-81130857D01*
X87002268Y-81217203D01*
X87145857Y-81276680D01*
X87298290Y-81307000D01*
X87453710Y-81307000D01*
X87606143Y-81276680D01*
X87749732Y-81217203D01*
X87878958Y-81130857D01*
X87967815Y-81042000D01*
X88366271Y-81042000D01*
X88392000Y-81044534D01*
X88417729Y-81042000D01*
X88417739Y-81042000D01*
X88494722Y-81034418D01*
X88593496Y-81004455D01*
X88684527Y-80955798D01*
X88764316Y-80890316D01*
X88780724Y-80870323D01*
X92300328Y-77350720D01*
X92320316Y-77334316D01*
X92336720Y-77314328D01*
X92336723Y-77314325D01*
X92385797Y-77254528D01*
X92409074Y-77210980D01*
X92434455Y-77163496D01*
X92440001Y-77145214D01*
X92440001Y-79290951D01*
X88488371Y-83242582D01*
X88473088Y-83236252D01*
X88253132Y-83192500D01*
X88028868Y-83192500D01*
X87808912Y-83236252D01*
X87601718Y-83322074D01*
X87415248Y-83446669D01*
X87256669Y-83605248D01*
X87132074Y-83791718D01*
X87046252Y-83998912D01*
X87002500Y-84218868D01*
X87002500Y-84443132D01*
X87046252Y-84663088D01*
X87132074Y-84870282D01*
X87256669Y-85056752D01*
X87412917Y-85213000D01*
X86577083Y-85213000D01*
X86733331Y-85056752D01*
X86857926Y-84870282D01*
X86943748Y-84663088D01*
X86987500Y-84443132D01*
X86987500Y-84218868D01*
X86943748Y-83998912D01*
X86857926Y-83791718D01*
X86733331Y-83605248D01*
X86574752Y-83446669D01*
X86388282Y-83322074D01*
X86181088Y-83236252D01*
X85961132Y-83192500D01*
X85736868Y-83192500D01*
X85516912Y-83236252D01*
X85309718Y-83322074D01*
X85123248Y-83446669D01*
X84964669Y-83605248D01*
X84840074Y-83791718D01*
X84754252Y-83998912D01*
X84736181Y-84089760D01*
X77347000Y-76700581D01*
X77347000Y-72392000D01*
X86551542Y-72392000D01*
X88723950Y-74564409D01*
X88795143Y-74670958D01*
X88905042Y-74780857D01*
X89034268Y-74867203D01*
X89177857Y-74926680D01*
X89330290Y-74957000D01*
X89485710Y-74957000D01*
X89638143Y-74926680D01*
X89781732Y-74867203D01*
X89900000Y-74788179D01*
X89900001Y-75220951D01*
X88682953Y-76438000D01*
X85935815Y-76438000D01*
X85846958Y-76349143D01*
X85717732Y-76262797D01*
X85574143Y-76203320D01*
X85421710Y-76173000D01*
X85266290Y-76173000D01*
X85113857Y-76203320D01*
X84970268Y-76262797D01*
X84841042Y-76349143D01*
X84731143Y-76459042D01*
X84644797Y-76588268D01*
X84585320Y-76731857D01*
X84555000Y-76884290D01*
X84555000Y-77039710D01*
X84585320Y-77192143D01*
X84644797Y-77335732D01*
X84731143Y-77464958D01*
X84841042Y-77574857D01*
X84970268Y-77661203D01*
X85113857Y-77720680D01*
X85266290Y-77751000D01*
X85421710Y-77751000D01*
X85574143Y-77720680D01*
X85717732Y-77661203D01*
X85846958Y-77574857D01*
X85935815Y-77486000D01*
X88874271Y-77486000D01*
X88900000Y-77488534D01*
X88925729Y-77486000D01*
X88925739Y-77486000D01*
X89002722Y-77478418D01*
X89101496Y-77448455D01*
X89192527Y-77399798D01*
X89272316Y-77334316D01*
X89288724Y-77314323D01*
X90776328Y-75826720D01*
X90796316Y-75810316D01*
X90812720Y-75790328D01*
X90812723Y-75790325D01*
X90861797Y-75730528D01*
X90910454Y-75639497D01*
X90910455Y-75639496D01*
X90940418Y-75540722D01*
X90948000Y-75463739D01*
X90948000Y-75463730D01*
X90950534Y-75438001D01*
X90948000Y-75412272D01*
X90948000Y-66885815D01*
X91036857Y-66796958D01*
X91123203Y-66667732D01*
X91182680Y-66524143D01*
X91213000Y-66371710D01*
X91213000Y-66216290D01*
X91182680Y-66063857D01*
X91123203Y-65920268D01*
X91036857Y-65791042D01*
X90926958Y-65681143D01*
X90797732Y-65594797D01*
X90654143Y-65535320D01*
X90501710Y-65505000D01*
X90346290Y-65505000D01*
X90193857Y-65535320D01*
X90050268Y-65594797D01*
X89921042Y-65681143D01*
X89811143Y-65791042D01*
X89724797Y-65920268D01*
X89665320Y-66063857D01*
X89635000Y-66216290D01*
X89635000Y-66371710D01*
X89665320Y-66524143D01*
X89724797Y-66667732D01*
X89811143Y-66796958D01*
X89900000Y-66885815D01*
X89900001Y-73547822D01*
X89804409Y-73483950D01*
X87434769Y-71114311D01*
X87410843Y-71085157D01*
X87294509Y-70989684D01*
X87161785Y-70918741D01*
X87017770Y-70875055D01*
X86905526Y-70864000D01*
X86905516Y-70864000D01*
X86868000Y-70860305D01*
X86830484Y-70864000D01*
X76911397Y-70864000D01*
X76785710Y-70839000D01*
X76630290Y-70839000D01*
X76477857Y-70869320D01*
X76334268Y-70928797D01*
X76205042Y-71015143D01*
X76095143Y-71125042D01*
X76008797Y-71254268D01*
X75949320Y-71397857D01*
X75919000Y-71550290D01*
X62161000Y-71550290D01*
X62161000Y-68502290D01*
X67283000Y-68502290D01*
X67283000Y-68657710D01*
X67313320Y-68810143D01*
X67372797Y-68953732D01*
X67459143Y-69082958D01*
X67569042Y-69192857D01*
X67698268Y-69279203D01*
X67841857Y-69338680D01*
X67994290Y-69369000D01*
X68149710Y-69369000D01*
X68302143Y-69338680D01*
X68445732Y-69279203D01*
X68574958Y-69192857D01*
X68684857Y-69082958D01*
X68756054Y-68976404D01*
X72141695Y-65590764D01*
X72170843Y-65566843D01*
X72266316Y-65450509D01*
X72337259Y-65317785D01*
X72380945Y-65173770D01*
X72392000Y-65061526D01*
X72392000Y-65061517D01*
X72395695Y-65024001D01*
X72392000Y-64986485D01*
X72392000Y-58736458D01*
X73086963Y-58041495D01*
X72968774Y-58218378D01*
X72860300Y-58480259D01*
X72805000Y-58758271D01*
X72805000Y-59041729D01*
X72860300Y-59319741D01*
X72968774Y-59581622D01*
X73126255Y-59817309D01*
X73326691Y-60017745D01*
X73562378Y-60175226D01*
X73824259Y-60283700D01*
X74102271Y-60339000D01*
X74385729Y-60339000D01*
X74663741Y-60283700D01*
X74925622Y-60175226D01*
X75161309Y-60017745D01*
X75361745Y-59817309D01*
X75490500Y-59624614D01*
X75619255Y-59817309D01*
X75819691Y-60017745D01*
X76055378Y-60175226D01*
X76317259Y-60283700D01*
X76595271Y-60339000D01*
X76878729Y-60339000D01*
X77156741Y-60283700D01*
X77418622Y-60175226D01*
X77654309Y-60017745D01*
X77854745Y-59817309D01*
X78012226Y-59581622D01*
X78120700Y-59319741D01*
X78176000Y-59041729D01*
X78176000Y-58802592D01*
X78259000Y-58802592D01*
X78259000Y-58997408D01*
X78297007Y-59188481D01*
X78371560Y-59368467D01*
X78479794Y-59530451D01*
X78617549Y-59668206D01*
X78779533Y-59776440D01*
X78959519Y-59850993D01*
X79150592Y-59889000D01*
X79345408Y-59889000D01*
X79536481Y-59850993D01*
X79716467Y-59776440D01*
X79878451Y-59668206D01*
X80016206Y-59530451D01*
X80124440Y-59368467D01*
X80198993Y-59188481D01*
X80237000Y-58997408D01*
X80237000Y-58802592D01*
X80228184Y-58758271D01*
X80298000Y-58758271D01*
X80298000Y-59041729D01*
X80353300Y-59319741D01*
X80461774Y-59581622D01*
X80619255Y-59817309D01*
X80819691Y-60017745D01*
X81055378Y-60175226D01*
X81317259Y-60283700D01*
X81595271Y-60339000D01*
X81878729Y-60339000D01*
X82156741Y-60283700D01*
X82418622Y-60175226D01*
X82654309Y-60017745D01*
X82854745Y-59817309D01*
X82994500Y-59608151D01*
X83134255Y-59817309D01*
X83334691Y-60017745D01*
X83570378Y-60175226D01*
X83832259Y-60283700D01*
X84110271Y-60339000D01*
X84393729Y-60339000D01*
X84671741Y-60283700D01*
X84933622Y-60175226D01*
X85169309Y-60017745D01*
X85369745Y-59817309D01*
X85527226Y-59581622D01*
X85635700Y-59319741D01*
X85691000Y-59041729D01*
X85691000Y-58758271D01*
X85757000Y-58758271D01*
X85757000Y-59041729D01*
X85812300Y-59319741D01*
X85920774Y-59581622D01*
X86078255Y-59817309D01*
X86278691Y-60017745D01*
X86514378Y-60175226D01*
X86672000Y-60240515D01*
X86672001Y-65240952D01*
X86661953Y-65251000D01*
X86536290Y-65251000D01*
X86383857Y-65281320D01*
X86240268Y-65340797D01*
X86111042Y-65427143D01*
X86001143Y-65537042D01*
X85914797Y-65666268D01*
X85855320Y-65809857D01*
X85825000Y-65962290D01*
X85825000Y-66117710D01*
X85855320Y-66270143D01*
X85914797Y-66413732D01*
X86001143Y-66542958D01*
X86111042Y-66652857D01*
X86240268Y-66739203D01*
X86383857Y-66798680D01*
X86536290Y-66829000D01*
X86691710Y-66829000D01*
X86844143Y-66798680D01*
X86987732Y-66739203D01*
X87116958Y-66652857D01*
X87226857Y-66542958D01*
X87313203Y-66413732D01*
X87372680Y-66270143D01*
X87403000Y-66117710D01*
X87403000Y-65992047D01*
X87548323Y-65846724D01*
X87568316Y-65830316D01*
X87633798Y-65750527D01*
X87682455Y-65659496D01*
X87712418Y-65560722D01*
X87720000Y-65483739D01*
X87720000Y-65483730D01*
X87722534Y-65458001D01*
X87720000Y-65432272D01*
X87720000Y-60240515D01*
X87877622Y-60175226D01*
X88113309Y-60017745D01*
X88313745Y-59817309D01*
X88442500Y-59624614D01*
X88571255Y-59817309D01*
X88771691Y-60017745D01*
X89007378Y-60175226D01*
X89269259Y-60283700D01*
X89547271Y-60339000D01*
X89830729Y-60339000D01*
X90108741Y-60283700D01*
X90370622Y-60175226D01*
X90606309Y-60017745D01*
X90806745Y-59817309D01*
X90964226Y-59581622D01*
X91072700Y-59319741D01*
X91128000Y-59041729D01*
X91128000Y-58802592D01*
X91211000Y-58802592D01*
X91211000Y-58997408D01*
X91249007Y-59188481D01*
X91323560Y-59368467D01*
X91431794Y-59530451D01*
X91569549Y-59668206D01*
X91731533Y-59776440D01*
X91911519Y-59850993D01*
X92102592Y-59889000D01*
X92297408Y-59889000D01*
X92488481Y-59850993D01*
X92668467Y-59776440D01*
X92830451Y-59668206D01*
X92968206Y-59530451D01*
X93076440Y-59368467D01*
X93150993Y-59188481D01*
X93189000Y-58997408D01*
X93189000Y-58802592D01*
X93150993Y-58611519D01*
X93076440Y-58431533D01*
X92968206Y-58269549D01*
X92830451Y-58131794D01*
X92668467Y-58023560D01*
X92488481Y-57949007D01*
X92297408Y-57911000D01*
X92102592Y-57911000D01*
X91911519Y-57949007D01*
X91731533Y-58023560D01*
X91569549Y-58131794D01*
X91431794Y-58269549D01*
X91323560Y-58431533D01*
X91249007Y-58611519D01*
X91211000Y-58802592D01*
X91128000Y-58802592D01*
X91128000Y-58758271D01*
X91072700Y-58480259D01*
X90964226Y-58218378D01*
X90806745Y-57982691D01*
X90606309Y-57782255D01*
X90370622Y-57624774D01*
X90108741Y-57516300D01*
X89830729Y-57461000D01*
X89547271Y-57461000D01*
X89269259Y-57516300D01*
X89007378Y-57624774D01*
X88771691Y-57782255D01*
X88571255Y-57982691D01*
X88442500Y-58175386D01*
X88313745Y-57982691D01*
X88113309Y-57782255D01*
X87877622Y-57624774D01*
X87615741Y-57516300D01*
X87337729Y-57461000D01*
X87054271Y-57461000D01*
X86776259Y-57516300D01*
X86514378Y-57624774D01*
X86278691Y-57782255D01*
X86078255Y-57982691D01*
X85920774Y-58218378D01*
X85812300Y-58480259D01*
X85757000Y-58758271D01*
X85691000Y-58758271D01*
X85635700Y-58480259D01*
X85527226Y-58218378D01*
X85369745Y-57982691D01*
X85169309Y-57782255D01*
X84933622Y-57624774D01*
X84671741Y-57516300D01*
X84393729Y-57461000D01*
X84110271Y-57461000D01*
X83832259Y-57516300D01*
X83570378Y-57624774D01*
X83334691Y-57782255D01*
X83134255Y-57982691D01*
X82994500Y-58191849D01*
X82854745Y-57982691D01*
X82654309Y-57782255D01*
X82418622Y-57624774D01*
X82156741Y-57516300D01*
X81878729Y-57461000D01*
X81595271Y-57461000D01*
X81317259Y-57516300D01*
X81055378Y-57624774D01*
X80819691Y-57782255D01*
X80619255Y-57982691D01*
X80461774Y-58218378D01*
X80353300Y-58480259D01*
X80298000Y-58758271D01*
X80228184Y-58758271D01*
X80198993Y-58611519D01*
X80124440Y-58431533D01*
X80016206Y-58269549D01*
X79878451Y-58131794D01*
X79716467Y-58023560D01*
X79536481Y-57949007D01*
X79345408Y-57911000D01*
X79150592Y-57911000D01*
X78959519Y-57949007D01*
X78779533Y-58023560D01*
X78617549Y-58131794D01*
X78479794Y-58269549D01*
X78371560Y-58431533D01*
X78297007Y-58611519D01*
X78259000Y-58802592D01*
X78176000Y-58802592D01*
X78176000Y-58758271D01*
X78120700Y-58480259D01*
X78012226Y-58218378D01*
X77854745Y-57982691D01*
X77654309Y-57782255D01*
X77418622Y-57624774D01*
X77156741Y-57516300D01*
X76878729Y-57461000D01*
X76595271Y-57461000D01*
X76317259Y-57516300D01*
X76055378Y-57624774D01*
X75819691Y-57782255D01*
X75619255Y-57982691D01*
X75490500Y-58175386D01*
X75361745Y-57982691D01*
X75161309Y-57782255D01*
X74925622Y-57624774D01*
X74663741Y-57516300D01*
X74385729Y-57461000D01*
X74102271Y-57461000D01*
X73824259Y-57516300D01*
X73562378Y-57624774D01*
X73385496Y-57742963D01*
X73976459Y-57152000D01*
X94375542Y-57152000D01*
X94684542Y-57461000D01*
X94547271Y-57461000D01*
X94269259Y-57516300D01*
X94007378Y-57624774D01*
X93771691Y-57782255D01*
X93571255Y-57982691D01*
X93413774Y-58218378D01*
X93305300Y-58480259D01*
X93250000Y-58758271D01*
X93250000Y-59041729D01*
X93305300Y-59319741D01*
X93413774Y-59581622D01*
X93571255Y-59817309D01*
X93771691Y-60017745D01*
X94007378Y-60175226D01*
X94269259Y-60283700D01*
X94547271Y-60339000D01*
X94830729Y-60339000D01*
X95108741Y-60283700D01*
X95370622Y-60175226D01*
X95606309Y-60017745D01*
X95806745Y-59817309D01*
X95946500Y-59608151D01*
X96086255Y-59817309D01*
X96286691Y-60017745D01*
X96522378Y-60175226D01*
X96784259Y-60283700D01*
X97062271Y-60339000D01*
X97345729Y-60339000D01*
X97623741Y-60283700D01*
X97885622Y-60175226D01*
X98121309Y-60017745D01*
X98321745Y-59817309D01*
X98479226Y-59581622D01*
X98587700Y-59319741D01*
X98643000Y-59041729D01*
X98643000Y-58758271D01*
X98587700Y-58480259D01*
X98479226Y-58218378D01*
X98321745Y-57982691D01*
X98121309Y-57782255D01*
X97885622Y-57624774D01*
X97623741Y-57516300D01*
X97345729Y-57461000D01*
X97062271Y-57461000D01*
X96881431Y-57496971D01*
X95258769Y-55874311D01*
X95234843Y-55845157D01*
X95118509Y-55749684D01*
X94985785Y-55678741D01*
X94841770Y-55635055D01*
X94729526Y-55624000D01*
X94729516Y-55624000D01*
X94692000Y-55620305D01*
X94654484Y-55624000D01*
X73697519Y-55624000D01*
X73660000Y-55620305D01*
X73622481Y-55624000D01*
X73622474Y-55624000D01*
X73524095Y-55633689D01*
X73510229Y-55635055D01*
X73366215Y-55678741D01*
X73233491Y-55749684D01*
X73117157Y-55845157D01*
X73093235Y-55874306D01*
X71114307Y-57853235D01*
X71085158Y-57877157D01*
X71061236Y-57906306D01*
X70989685Y-57993491D01*
X70918741Y-58126216D01*
X70875056Y-58270230D01*
X70860305Y-58420000D01*
X70864001Y-58457526D01*
X70864000Y-64707541D01*
X67675596Y-67895946D01*
X67569042Y-67967143D01*
X67459143Y-68077042D01*
X67372797Y-68206268D01*
X67313320Y-68349857D01*
X67283000Y-68502290D01*
X62161000Y-68502290D01*
X62161000Y-54668101D01*
X64559000Y-54668101D01*
X64559000Y-55059899D01*
X64635436Y-55444170D01*
X64785371Y-55806145D01*
X65003043Y-56131914D01*
X65280086Y-56408957D01*
X65605855Y-56626629D01*
X65967830Y-56776564D01*
X66352101Y-56853000D01*
X66743899Y-56853000D01*
X67128170Y-56776564D01*
X67490145Y-56626629D01*
X67815914Y-56408957D01*
X68092957Y-56131914D01*
X68310629Y-55806145D01*
X68460564Y-55444170D01*
X68537000Y-55059899D01*
X68537000Y-54934110D01*
X78382181Y-54934110D01*
X78497241Y-55135786D01*
X78752756Y-55258507D01*
X79027303Y-55329021D01*
X79310331Y-55344619D01*
X79590964Y-55304701D01*
X79858418Y-55210801D01*
X79998759Y-55135786D01*
X80113819Y-54934110D01*
X91334181Y-54934110D01*
X91449241Y-55135786D01*
X91704756Y-55258507D01*
X91979303Y-55329021D01*
X92262331Y-55344619D01*
X92542964Y-55304701D01*
X92810418Y-55210801D01*
X92950759Y-55135786D01*
X93065819Y-54934110D01*
X92200000Y-54068291D01*
X91334181Y-54934110D01*
X80113819Y-54934110D01*
X79248000Y-54068291D01*
X78382181Y-54934110D01*
X68537000Y-54934110D01*
X68537000Y-54668101D01*
X68460564Y-54283830D01*
X68310629Y-53921855D01*
X68230940Y-53802592D01*
X73259000Y-53802592D01*
X73259000Y-53997408D01*
X73297007Y-54188481D01*
X73371560Y-54368467D01*
X73479794Y-54530451D01*
X73617549Y-54668206D01*
X73779533Y-54776440D01*
X73959519Y-54850993D01*
X74150592Y-54889000D01*
X74345408Y-54889000D01*
X74536481Y-54850993D01*
X74716467Y-54776440D01*
X74878451Y-54668206D01*
X75016206Y-54530451D01*
X75124440Y-54368467D01*
X75198993Y-54188481D01*
X75237000Y-53997408D01*
X75237000Y-53962331D01*
X77803381Y-53962331D01*
X77843299Y-54242964D01*
X77937199Y-54510418D01*
X78012214Y-54650759D01*
X78213890Y-54765819D01*
X79079709Y-53900000D01*
X79416291Y-53900000D01*
X80282110Y-54765819D01*
X80483786Y-54650759D01*
X80606507Y-54395244D01*
X80677021Y-54120697D01*
X80692619Y-53837669D01*
X80687630Y-53802592D01*
X83259000Y-53802592D01*
X83259000Y-53997408D01*
X83297007Y-54188481D01*
X83371560Y-54368467D01*
X83479794Y-54530451D01*
X83617549Y-54668206D01*
X83779533Y-54776440D01*
X83959519Y-54850993D01*
X84150592Y-54889000D01*
X84345408Y-54889000D01*
X84536481Y-54850993D01*
X84716467Y-54776440D01*
X84878451Y-54668206D01*
X85016206Y-54530451D01*
X85124440Y-54368467D01*
X85198993Y-54188481D01*
X85237000Y-53997408D01*
X85237000Y-53802592D01*
X86211000Y-53802592D01*
X86211000Y-53997408D01*
X86249007Y-54188481D01*
X86323560Y-54368467D01*
X86431794Y-54530451D01*
X86569549Y-54668206D01*
X86731533Y-54776440D01*
X86911519Y-54850993D01*
X87102592Y-54889000D01*
X87297408Y-54889000D01*
X87488481Y-54850993D01*
X87668467Y-54776440D01*
X87830451Y-54668206D01*
X87968206Y-54530451D01*
X88076440Y-54368467D01*
X88150993Y-54188481D01*
X88189000Y-53997408D01*
X88189000Y-53962331D01*
X90755381Y-53962331D01*
X90795299Y-54242964D01*
X90889199Y-54510418D01*
X90964214Y-54650759D01*
X91165890Y-54765819D01*
X92031709Y-53900000D01*
X92368291Y-53900000D01*
X93234110Y-54765819D01*
X93435786Y-54650759D01*
X93558507Y-54395244D01*
X93629021Y-54120697D01*
X93644619Y-53837669D01*
X93639630Y-53802592D01*
X96211000Y-53802592D01*
X96211000Y-53997408D01*
X96249007Y-54188481D01*
X96323560Y-54368467D01*
X96431794Y-54530451D01*
X96569549Y-54668206D01*
X96731533Y-54776440D01*
X96911519Y-54850993D01*
X97102592Y-54889000D01*
X97297408Y-54889000D01*
X97488481Y-54850993D01*
X97668467Y-54776440D01*
X97830451Y-54668206D01*
X97830556Y-54668101D01*
X103675000Y-54668101D01*
X103675000Y-55059899D01*
X103751436Y-55444170D01*
X103901371Y-55806145D01*
X104119043Y-56131914D01*
X104396086Y-56408957D01*
X104721855Y-56626629D01*
X105083830Y-56776564D01*
X105468101Y-56853000D01*
X105859899Y-56853000D01*
X106244170Y-56776564D01*
X106606145Y-56626629D01*
X106931914Y-56408957D01*
X107208957Y-56131914D01*
X107426629Y-55806145D01*
X107576564Y-55444170D01*
X107653000Y-55059899D01*
X107653000Y-54668101D01*
X107576564Y-54283830D01*
X107426629Y-53921855D01*
X107208957Y-53596086D01*
X106931914Y-53319043D01*
X106606145Y-53101371D01*
X106244170Y-52951436D01*
X105859899Y-52875000D01*
X105468101Y-52875000D01*
X105083830Y-52951436D01*
X104721855Y-53101371D01*
X104396086Y-53319043D01*
X104119043Y-53596086D01*
X103901371Y-53921855D01*
X103751436Y-54283830D01*
X103675000Y-54668101D01*
X97830556Y-54668101D01*
X97968206Y-54530451D01*
X98076440Y-54368467D01*
X98150993Y-54188481D01*
X98189000Y-53997408D01*
X98189000Y-53802592D01*
X98150993Y-53611519D01*
X98076440Y-53431533D01*
X97968206Y-53269549D01*
X97830451Y-53131794D01*
X97668467Y-53023560D01*
X97488481Y-52949007D01*
X97297408Y-52911000D01*
X97102592Y-52911000D01*
X96911519Y-52949007D01*
X96731533Y-53023560D01*
X96569549Y-53131794D01*
X96431794Y-53269549D01*
X96323560Y-53431533D01*
X96249007Y-53611519D01*
X96211000Y-53802592D01*
X93639630Y-53802592D01*
X93604701Y-53557036D01*
X93510801Y-53289582D01*
X93435786Y-53149241D01*
X93234110Y-53034181D01*
X92368291Y-53900000D01*
X92031709Y-53900000D01*
X91165890Y-53034181D01*
X90964214Y-53149241D01*
X90841493Y-53404756D01*
X90770979Y-53679303D01*
X90755381Y-53962331D01*
X88189000Y-53962331D01*
X88189000Y-53802592D01*
X88150993Y-53611519D01*
X88076440Y-53431533D01*
X87968206Y-53269549D01*
X87830451Y-53131794D01*
X87668467Y-53023560D01*
X87488481Y-52949007D01*
X87297408Y-52911000D01*
X87102592Y-52911000D01*
X86911519Y-52949007D01*
X86731533Y-53023560D01*
X86569549Y-53131794D01*
X86431794Y-53269549D01*
X86323560Y-53431533D01*
X86249007Y-53611519D01*
X86211000Y-53802592D01*
X85237000Y-53802592D01*
X85198993Y-53611519D01*
X85124440Y-53431533D01*
X85016206Y-53269549D01*
X84878451Y-53131794D01*
X84716467Y-53023560D01*
X84536481Y-52949007D01*
X84345408Y-52911000D01*
X84150592Y-52911000D01*
X83959519Y-52949007D01*
X83779533Y-53023560D01*
X83617549Y-53131794D01*
X83479794Y-53269549D01*
X83371560Y-53431533D01*
X83297007Y-53611519D01*
X83259000Y-53802592D01*
X80687630Y-53802592D01*
X80652701Y-53557036D01*
X80558801Y-53289582D01*
X80483786Y-53149241D01*
X80282110Y-53034181D01*
X79416291Y-53900000D01*
X79079709Y-53900000D01*
X78213890Y-53034181D01*
X78012214Y-53149241D01*
X77889493Y-53404756D01*
X77818979Y-53679303D01*
X77803381Y-53962331D01*
X75237000Y-53962331D01*
X75237000Y-53802592D01*
X75198993Y-53611519D01*
X75124440Y-53431533D01*
X75016206Y-53269549D01*
X74878451Y-53131794D01*
X74716467Y-53023560D01*
X74536481Y-52949007D01*
X74345408Y-52911000D01*
X74150592Y-52911000D01*
X73959519Y-52949007D01*
X73779533Y-53023560D01*
X73617549Y-53131794D01*
X73479794Y-53269549D01*
X73371560Y-53431533D01*
X73297007Y-53611519D01*
X73259000Y-53802592D01*
X68230940Y-53802592D01*
X68092957Y-53596086D01*
X67815914Y-53319043D01*
X67490145Y-53101371D01*
X67128170Y-52951436D01*
X66743899Y-52875000D01*
X66352101Y-52875000D01*
X65967830Y-52951436D01*
X65605855Y-53101371D01*
X65280086Y-53319043D01*
X65003043Y-53596086D01*
X64785371Y-53921855D01*
X64635436Y-54283830D01*
X64559000Y-54668101D01*
X62161000Y-54668101D01*
X62161000Y-53107473D01*
X62184687Y-52865890D01*
X78382181Y-52865890D01*
X79248000Y-53731709D01*
X80113819Y-52865890D01*
X91334181Y-52865890D01*
X92200000Y-53731709D01*
X93065819Y-52865890D01*
X92950759Y-52664214D01*
X92695244Y-52541493D01*
X92420697Y-52470979D01*
X92137669Y-52455381D01*
X91857036Y-52495299D01*
X91589582Y-52589199D01*
X91449241Y-52664214D01*
X91334181Y-52865890D01*
X80113819Y-52865890D01*
X79998759Y-52664214D01*
X79743244Y-52541493D01*
X79468697Y-52470979D01*
X79185669Y-52455381D01*
X78905036Y-52495299D01*
X78637582Y-52589199D01*
X78497241Y-52664214D01*
X78382181Y-52865890D01*
X62184687Y-52865890D01*
X62212754Y-52579650D01*
X62359806Y-52092590D01*
X62598661Y-51643368D01*
X62920226Y-51249090D01*
X63312241Y-50924787D01*
X63759789Y-50682799D01*
X64245809Y-50532351D01*
X64772432Y-50477000D01*
X73891938Y-50477000D01*
X73779533Y-50523560D01*
G37*
%TD.AperFunction*%
%TD*%
M02*
