%TF.GenerationSoftware,KiCad,Pcbnew,(5.1.9)-1*%
%TF.CreationDate,2021-03-06T14:53:08-08:00*%
%TF.ProjectId,ir-repeater-booster,69722d72-6570-4656-9174-65722d626f6f,1.0.0*%
%TF.SameCoordinates,Original*%
%TF.FileFunction,Soldermask,Bot*%
%TF.FilePolarity,Negative*%
%FSLAX46Y46*%
G04 Gerber Fmt 4.6, Leading zero omitted, Abs format (unit mm)*
G04 Created by KiCad (PCBNEW (5.1.9)-1) date 2021-03-06 14:53:08*
%MOMM*%
%LPD*%
G01*
G04 APERTURE LIST*
%ADD10R,4.400000X1.800000*%
%ADD11O,4.000000X1.800000*%
%ADD12O,1.800000X4.000000*%
%ADD13C,3.200000*%
%ADD14O,1.200000X2.000000*%
%ADD15O,2.000000X1.200000*%
%ADD16C,1.200000*%
%ADD17C,1.499000*%
%ADD18C,2.642000*%
%ADD19R,1.499000X1.499000*%
%ADD20C,3.250000*%
G04 APERTURE END LIST*
D10*
%TO.C,J1*%
X75946000Y-85344000D03*
D11*
X75946000Y-91144000D03*
D12*
X80746000Y-88344000D03*
%TD*%
D13*
%TO.C,H2*%
X66548000Y-54864000D03*
%TD*%
%TO.C,H4*%
X105664000Y-92456000D03*
%TD*%
%TO.C,H3*%
X66548000Y-92456000D03*
%TD*%
%TO.C,H1*%
X105664000Y-54864000D03*
%TD*%
D14*
%TO.C,TX1*%
X87198000Y-59650000D03*
X89691000Y-59650000D03*
X94691000Y-59650000D03*
X97206000Y-59650000D03*
D15*
X92202000Y-54650000D03*
D16*
X92202000Y-59650000D03*
X87202000Y-54650000D03*
X97202000Y-54650000D03*
X97202000Y-52150000D03*
X87202000Y-52150000D03*
%TD*%
D14*
%TO.C,RX1*%
X74244000Y-59650000D03*
X76737000Y-59650000D03*
X81737000Y-59650000D03*
X84252000Y-59650000D03*
D15*
X79248000Y-54650000D03*
D16*
X79248000Y-59650000D03*
X74248000Y-54650000D03*
X84248000Y-54650000D03*
X84248000Y-52150000D03*
X74248000Y-52150000D03*
%TD*%
D17*
%TO.C,J2*%
X97279000Y-84331000D03*
X99571000Y-84331000D03*
X85849000Y-84331000D03*
X88141000Y-84331000D03*
X91186000Y-89149000D03*
D18*
X84607000Y-90040000D03*
X100813000Y-90040000D03*
D17*
X90170000Y-90929000D03*
X95250000Y-89149000D03*
X93218000Y-89149000D03*
X94234000Y-90929000D03*
X92202000Y-90929000D03*
D19*
X96266000Y-90929000D03*
D17*
X89154000Y-89149000D03*
D20*
X86360000Y-93469000D03*
X99060000Y-93469000D03*
%TD*%
M02*
