%TF.GenerationSoftware,KiCad,Pcbnew,5.1.9-73d0e3b20d~88~ubuntu18.04.1*%
%TF.CreationDate,2021-03-21T00:17:26-07:00*%
%TF.ProjectId,ir-repeater-booster,69722d72-6570-4656-9174-65722d626f6f,1.1.0*%
%TF.SameCoordinates,Original*%
%TF.FileFunction,Legend,Top*%
%TF.FilePolarity,Positive*%
%FSLAX46Y46*%
G04 Gerber Fmt 4.6, Leading zero omitted, Abs format (unit mm)*
G04 Created by KiCad (PCBNEW 5.1.9-73d0e3b20d~88~ubuntu18.04.1) date 2021-03-21 00:17:26*
%MOMM*%
%LPD*%
G01*
G04 APERTURE LIST*
%ADD10C,0.150000*%
%ADD11C,0.200000*%
%ADD12C,0.120000*%
%ADD13C,0.254000*%
%ADD14C,0.201000*%
G04 APERTURE END LIST*
D10*
X101560761Y-65984380D02*
X101560761Y-65317714D01*
X101560761Y-64984380D02*
X101513142Y-65032000D01*
X101560761Y-65079619D01*
X101608380Y-65032000D01*
X101560761Y-64984380D01*
X101560761Y-65079619D01*
X102465523Y-65984380D02*
X102465523Y-64984380D01*
X102465523Y-65936761D02*
X102370285Y-65984380D01*
X102179809Y-65984380D01*
X102084571Y-65936761D01*
X102036952Y-65889142D01*
X101989333Y-65793904D01*
X101989333Y-65508190D01*
X102036952Y-65412952D01*
X102084571Y-65365333D01*
X102179809Y-65317714D01*
X102370285Y-65317714D01*
X102465523Y-65365333D01*
X103084571Y-65984380D02*
X102989333Y-65936761D01*
X102941714Y-65841523D01*
X102941714Y-64984380D01*
X103846476Y-65936761D02*
X103751238Y-65984380D01*
X103560761Y-65984380D01*
X103465523Y-65936761D01*
X103417904Y-65841523D01*
X103417904Y-65460571D01*
X103465523Y-65365333D01*
X103560761Y-65317714D01*
X103751238Y-65317714D01*
X103846476Y-65365333D01*
X103894095Y-65460571D01*
X103894095Y-65555809D01*
X103417904Y-65651047D01*
X104322666Y-65889142D02*
X104370285Y-65936761D01*
X104322666Y-65984380D01*
X104275047Y-65936761D01*
X104322666Y-65889142D01*
X104322666Y-65984380D01*
X104656000Y-65317714D02*
X105036952Y-65317714D01*
X104798857Y-64984380D02*
X104798857Y-65841523D01*
X104846476Y-65936761D01*
X104941714Y-65984380D01*
X105036952Y-65984380D01*
X105513142Y-65984380D02*
X105417904Y-65936761D01*
X105370285Y-65889142D01*
X105322666Y-65793904D01*
X105322666Y-65508190D01*
X105370285Y-65412952D01*
X105417904Y-65365333D01*
X105513142Y-65317714D01*
X105656000Y-65317714D01*
X105751238Y-65365333D01*
X105798857Y-65412952D01*
X105846476Y-65508190D01*
X105846476Y-65793904D01*
X105798857Y-65889142D01*
X105751238Y-65936761D01*
X105656000Y-65984380D01*
X105513142Y-65984380D01*
X106989333Y-64936761D02*
X106132190Y-66222476D01*
X107846476Y-65984380D02*
X107275047Y-65984380D01*
X107560761Y-65984380D02*
X107560761Y-64984380D01*
X107465523Y-65127238D01*
X107370285Y-65222476D01*
X107275047Y-65270095D01*
X108179809Y-64984380D02*
X108846476Y-64984380D01*
X108417904Y-65984380D01*
X88090952Y-95718380D02*
X88090952Y-96432666D01*
X88043333Y-96575523D01*
X87948095Y-96670761D01*
X87805238Y-96718380D01*
X87710000Y-96718380D01*
X89043333Y-96718380D02*
X88567142Y-96718380D01*
X88567142Y-95718380D01*
X89948095Y-96623142D02*
X89900476Y-96670761D01*
X89757619Y-96718380D01*
X89662380Y-96718380D01*
X89519523Y-96670761D01*
X89424285Y-96575523D01*
X89376666Y-96480285D01*
X89329047Y-96289809D01*
X89329047Y-96146952D01*
X89376666Y-95956476D01*
X89424285Y-95861238D01*
X89519523Y-95766000D01*
X89662380Y-95718380D01*
X89757619Y-95718380D01*
X89900476Y-95766000D01*
X89948095Y-95813619D01*
X90662380Y-95718380D02*
X90662380Y-96432666D01*
X90614761Y-96575523D01*
X90519523Y-96670761D01*
X90376666Y-96718380D01*
X90281428Y-96718380D01*
X91614761Y-96718380D02*
X91138571Y-96718380D01*
X91138571Y-95718380D01*
X92519523Y-96623142D02*
X92471904Y-96670761D01*
X92329047Y-96718380D01*
X92233809Y-96718380D01*
X92090952Y-96670761D01*
X91995714Y-96575523D01*
X91948095Y-96480285D01*
X91900476Y-96289809D01*
X91900476Y-96146952D01*
X91948095Y-95956476D01*
X91995714Y-95861238D01*
X92090952Y-95766000D01*
X92233809Y-95718380D01*
X92329047Y-95718380D01*
X92471904Y-95766000D01*
X92519523Y-95813619D01*
X93233809Y-95718380D02*
X93233809Y-96432666D01*
X93186190Y-96575523D01*
X93090952Y-96670761D01*
X92948095Y-96718380D01*
X92852857Y-96718380D01*
X94186190Y-96718380D02*
X93710000Y-96718380D01*
X93710000Y-95718380D01*
X95090952Y-96623142D02*
X95043333Y-96670761D01*
X94900476Y-96718380D01*
X94805238Y-96718380D01*
X94662380Y-96670761D01*
X94567142Y-96575523D01*
X94519523Y-96480285D01*
X94471904Y-96289809D01*
X94471904Y-96146952D01*
X94519523Y-95956476D01*
X94567142Y-95861238D01*
X94662380Y-95766000D01*
X94805238Y-95718380D01*
X94900476Y-95718380D01*
X95043333Y-95766000D01*
X95090952Y-95813619D01*
X95805238Y-95718380D02*
X95805238Y-96432666D01*
X95757619Y-96575523D01*
X95662380Y-96670761D01*
X95519523Y-96718380D01*
X95424285Y-96718380D01*
X96757619Y-96718380D02*
X96281428Y-96718380D01*
X96281428Y-95718380D01*
X97662380Y-96623142D02*
X97614761Y-96670761D01*
X97471904Y-96718380D01*
X97376666Y-96718380D01*
X97233809Y-96670761D01*
X97138571Y-96575523D01*
X97090952Y-96480285D01*
X97043333Y-96289809D01*
X97043333Y-96146952D01*
X97090952Y-95956476D01*
X97138571Y-95861238D01*
X97233809Y-95766000D01*
X97376666Y-95718380D01*
X97471904Y-95718380D01*
X97614761Y-95766000D01*
X97662380Y-95813619D01*
X102933714Y-62566571D02*
X103124190Y-63099904D01*
X103314666Y-62566571D01*
X104038476Y-63099904D02*
X103581333Y-63099904D01*
X103809904Y-63099904D02*
X103809904Y-62299904D01*
X103733714Y-62414190D01*
X103657523Y-62490380D01*
X103581333Y-62528476D01*
X104381333Y-63023714D02*
X104419428Y-63061809D01*
X104381333Y-63099904D01*
X104343238Y-63061809D01*
X104381333Y-63023714D01*
X104381333Y-63099904D01*
X105181333Y-63099904D02*
X104724190Y-63099904D01*
X104952761Y-63099904D02*
X104952761Y-62299904D01*
X104876571Y-62414190D01*
X104800380Y-62490380D01*
X104724190Y-62528476D01*
X105524190Y-63023714D02*
X105562285Y-63061809D01*
X105524190Y-63099904D01*
X105486095Y-63061809D01*
X105524190Y-63023714D01*
X105524190Y-63099904D01*
X106057523Y-62299904D02*
X106133714Y-62299904D01*
X106209904Y-62338000D01*
X106248000Y-62376095D01*
X106286095Y-62452285D01*
X106324190Y-62604666D01*
X106324190Y-62795142D01*
X106286095Y-62947523D01*
X106248000Y-63023714D01*
X106209904Y-63061809D01*
X106133714Y-63099904D01*
X106057523Y-63099904D01*
X105981333Y-63061809D01*
X105943238Y-63023714D01*
X105905142Y-62947523D01*
X105867047Y-62795142D01*
X105867047Y-62604666D01*
X105905142Y-62452285D01*
X105943238Y-62376095D01*
X105981333Y-62338000D01*
X106057523Y-62299904D01*
D11*
X99394000Y-59740857D02*
X99394000Y-58540857D01*
X100651142Y-59740857D02*
X100251142Y-59169428D01*
X99965428Y-59740857D02*
X99965428Y-58540857D01*
X100422571Y-58540857D01*
X100536857Y-58598000D01*
X100594000Y-58655142D01*
X100651142Y-58769428D01*
X100651142Y-58940857D01*
X100594000Y-59055142D01*
X100536857Y-59112285D01*
X100422571Y-59169428D01*
X99965428Y-59169428D01*
X102765428Y-59740857D02*
X102365428Y-59169428D01*
X102079714Y-59740857D02*
X102079714Y-58540857D01*
X102536857Y-58540857D01*
X102651142Y-58598000D01*
X102708285Y-58655142D01*
X102765428Y-58769428D01*
X102765428Y-58940857D01*
X102708285Y-59055142D01*
X102651142Y-59112285D01*
X102536857Y-59169428D01*
X102079714Y-59169428D01*
X103736857Y-59683714D02*
X103622571Y-59740857D01*
X103394000Y-59740857D01*
X103279714Y-59683714D01*
X103222571Y-59569428D01*
X103222571Y-59112285D01*
X103279714Y-58998000D01*
X103394000Y-58940857D01*
X103622571Y-58940857D01*
X103736857Y-58998000D01*
X103794000Y-59112285D01*
X103794000Y-59226571D01*
X103222571Y-59340857D01*
X104308285Y-58940857D02*
X104308285Y-60140857D01*
X104308285Y-58998000D02*
X104422571Y-58940857D01*
X104651142Y-58940857D01*
X104765428Y-58998000D01*
X104822571Y-59055142D01*
X104879714Y-59169428D01*
X104879714Y-59512285D01*
X104822571Y-59626571D01*
X104765428Y-59683714D01*
X104651142Y-59740857D01*
X104422571Y-59740857D01*
X104308285Y-59683714D01*
X105851142Y-59683714D02*
X105736857Y-59740857D01*
X105508285Y-59740857D01*
X105394000Y-59683714D01*
X105336857Y-59569428D01*
X105336857Y-59112285D01*
X105394000Y-58998000D01*
X105508285Y-58940857D01*
X105736857Y-58940857D01*
X105851142Y-58998000D01*
X105908285Y-59112285D01*
X105908285Y-59226571D01*
X105336857Y-59340857D01*
X106936857Y-59740857D02*
X106936857Y-59112285D01*
X106879714Y-58998000D01*
X106765428Y-58940857D01*
X106536857Y-58940857D01*
X106422571Y-58998000D01*
X106936857Y-59683714D02*
X106822571Y-59740857D01*
X106536857Y-59740857D01*
X106422571Y-59683714D01*
X106365428Y-59569428D01*
X106365428Y-59455142D01*
X106422571Y-59340857D01*
X106536857Y-59283714D01*
X106822571Y-59283714D01*
X106936857Y-59226571D01*
X107336857Y-58940857D02*
X107794000Y-58940857D01*
X107508285Y-58540857D02*
X107508285Y-59569428D01*
X107565428Y-59683714D01*
X107679714Y-59740857D01*
X107794000Y-59740857D01*
X108651142Y-59683714D02*
X108536857Y-59740857D01*
X108308285Y-59740857D01*
X108194000Y-59683714D01*
X108136857Y-59569428D01*
X108136857Y-59112285D01*
X108194000Y-58998000D01*
X108308285Y-58940857D01*
X108536857Y-58940857D01*
X108651142Y-58998000D01*
X108708285Y-59112285D01*
X108708285Y-59226571D01*
X108136857Y-59340857D01*
X109222571Y-59740857D02*
X109222571Y-58940857D01*
X109222571Y-59169428D02*
X109279714Y-59055142D01*
X109336857Y-58998000D01*
X109451142Y-58940857D01*
X109565428Y-58940857D01*
X101679714Y-61112285D02*
X101851142Y-61169428D01*
X101908285Y-61226571D01*
X101965428Y-61340857D01*
X101965428Y-61512285D01*
X101908285Y-61626571D01*
X101851142Y-61683714D01*
X101736857Y-61740857D01*
X101279714Y-61740857D01*
X101279714Y-60540857D01*
X101679714Y-60540857D01*
X101794000Y-60598000D01*
X101851142Y-60655142D01*
X101908285Y-60769428D01*
X101908285Y-60883714D01*
X101851142Y-60998000D01*
X101794000Y-61055142D01*
X101679714Y-61112285D01*
X101279714Y-61112285D01*
X102651142Y-61740857D02*
X102536857Y-61683714D01*
X102479714Y-61626571D01*
X102422571Y-61512285D01*
X102422571Y-61169428D01*
X102479714Y-61055142D01*
X102536857Y-60998000D01*
X102651142Y-60940857D01*
X102822571Y-60940857D01*
X102936857Y-60998000D01*
X102994000Y-61055142D01*
X103051142Y-61169428D01*
X103051142Y-61512285D01*
X102994000Y-61626571D01*
X102936857Y-61683714D01*
X102822571Y-61740857D01*
X102651142Y-61740857D01*
X103736857Y-61740857D02*
X103622571Y-61683714D01*
X103565428Y-61626571D01*
X103508285Y-61512285D01*
X103508285Y-61169428D01*
X103565428Y-61055142D01*
X103622571Y-60998000D01*
X103736857Y-60940857D01*
X103908285Y-60940857D01*
X104022571Y-60998000D01*
X104079714Y-61055142D01*
X104136857Y-61169428D01*
X104136857Y-61512285D01*
X104079714Y-61626571D01*
X104022571Y-61683714D01*
X103908285Y-61740857D01*
X103736857Y-61740857D01*
X104594000Y-61683714D02*
X104708285Y-61740857D01*
X104936857Y-61740857D01*
X105051142Y-61683714D01*
X105108285Y-61569428D01*
X105108285Y-61512285D01*
X105051142Y-61398000D01*
X104936857Y-61340857D01*
X104765428Y-61340857D01*
X104651142Y-61283714D01*
X104594000Y-61169428D01*
X104594000Y-61112285D01*
X104651142Y-60998000D01*
X104765428Y-60940857D01*
X104936857Y-60940857D01*
X105051142Y-60998000D01*
X105451142Y-60940857D02*
X105908285Y-60940857D01*
X105622571Y-60540857D02*
X105622571Y-61569428D01*
X105679714Y-61683714D01*
X105794000Y-61740857D01*
X105908285Y-61740857D01*
X106765428Y-61683714D02*
X106651142Y-61740857D01*
X106422571Y-61740857D01*
X106308285Y-61683714D01*
X106251142Y-61569428D01*
X106251142Y-61112285D01*
X106308285Y-60998000D01*
X106422571Y-60940857D01*
X106651142Y-60940857D01*
X106765428Y-60998000D01*
X106822571Y-61112285D01*
X106822571Y-61226571D01*
X106251142Y-61340857D01*
X107336857Y-61740857D02*
X107336857Y-60940857D01*
X107336857Y-61169428D02*
X107394000Y-61055142D01*
X107451142Y-60998000D01*
X107565428Y-60940857D01*
X107679714Y-60940857D01*
D10*
X71461333Y-52268380D02*
X71128000Y-51792190D01*
X70889904Y-52268380D02*
X70889904Y-51268380D01*
X71270857Y-51268380D01*
X71366095Y-51316000D01*
X71413714Y-51363619D01*
X71461333Y-51458857D01*
X71461333Y-51601714D01*
X71413714Y-51696952D01*
X71366095Y-51744571D01*
X71270857Y-51792190D01*
X70889904Y-51792190D01*
X71794666Y-51268380D02*
X72461333Y-52268380D01*
X72461333Y-51268380D02*
X71794666Y-52268380D01*
X98806095Y-51268380D02*
X99377523Y-51268380D01*
X99091809Y-52268380D02*
X99091809Y-51268380D01*
X99615619Y-51268380D02*
X100282285Y-52268380D01*
X100282285Y-51268380D02*
X99615619Y-52268380D01*
D12*
%TO.C,C6*%
X83769252Y-64156000D02*
X82346748Y-64156000D01*
X83769252Y-62336000D02*
X82346748Y-62336000D01*
%TO.C,U4*%
X94859000Y-65786000D02*
X94859000Y-63836000D01*
X94859000Y-65786000D02*
X94859000Y-67736000D01*
X85989000Y-65786000D02*
X85989000Y-63836000D01*
X85989000Y-65786000D02*
X85989000Y-69236000D01*
%TO.C,R5*%
X86630742Y-81519500D02*
X87105258Y-81519500D01*
X86630742Y-82564500D02*
X87105258Y-82564500D01*
%TO.C,R4*%
X97806742Y-81519500D02*
X98281258Y-81519500D01*
X97806742Y-82564500D02*
X98281258Y-82564500D01*
D13*
%TO.C,RX1*%
X81763000Y-47368000D02*
X81763000Y-50368000D01*
X76763000Y-47368000D02*
X81763000Y-47368000D01*
X76763000Y-50368000D02*
X76763000Y-47368000D01*
X85242000Y-61391000D02*
X85242000Y-50391000D01*
X73242000Y-61391000D02*
X85242000Y-61391000D01*
X73242000Y-50391000D02*
X73242000Y-61391000D01*
X85242000Y-50391000D02*
X73242000Y-50391000D01*
X79996994Y-58912302D02*
G75*
G03*
X79997000Y-58925000I-749994J-6698D01*
G01*
X74999008Y-53906763D02*
G75*
G03*
X74999000Y-53922000I-750008J-7237D01*
G01*
X74998994Y-51391302D02*
G75*
G03*
X74999000Y-51404000I-749994J-6698D01*
G01*
X84998994Y-53931302D02*
G75*
G03*
X84999000Y-53944000I-749994J-6698D01*
G01*
X84998994Y-51391302D02*
G75*
G03*
X84999000Y-51404000I-749994J-6698D01*
G01*
%TO.C,TX1*%
X94715000Y-47368000D02*
X94715000Y-50368000D01*
X89715000Y-47368000D02*
X94715000Y-47368000D01*
X89715000Y-50368000D02*
X89715000Y-47368000D01*
X98194000Y-61391000D02*
X98194000Y-50391000D01*
X86194000Y-61391000D02*
X98194000Y-61391000D01*
X86194000Y-50391000D02*
X86194000Y-61391000D01*
X98194000Y-50391000D02*
X86194000Y-50391000D01*
X92948994Y-58912302D02*
G75*
G03*
X92949000Y-58925000I-749994J-6698D01*
G01*
X87951008Y-53906763D02*
G75*
G03*
X87951000Y-53922000I-750008J-7237D01*
G01*
X87950994Y-51391302D02*
G75*
G03*
X87951000Y-51404000I-749994J-6698D01*
G01*
X97950994Y-53931302D02*
G75*
G03*
X97951000Y-53944000I-749994J-6698D01*
G01*
X97950994Y-51391302D02*
G75*
G03*
X97951000Y-51404000I-749994J-6698D01*
G01*
D12*
%TO.C,TP10*%
X67748000Y-60452000D02*
G75*
G03*
X67748000Y-60452000I-1200000J0D01*
G01*
%TO.C,C5*%
X88849252Y-72030000D02*
X87426748Y-72030000D01*
X88849252Y-70210000D02*
X87426748Y-70210000D01*
%TO.C,J1*%
X80546000Y-90544000D02*
X80546000Y-99044000D01*
X80546000Y-99044000D02*
X71346000Y-99044000D01*
X71346000Y-99044000D02*
X71346000Y-84344000D01*
X78446000Y-84344000D02*
X80546000Y-84344000D01*
X80546000Y-84344000D02*
X80546000Y-86144000D01*
X72746000Y-84044000D02*
X71046000Y-84044000D01*
X71046000Y-84044000D02*
X71046000Y-85644000D01*
X71346000Y-84344000D02*
X73446000Y-84344000D01*
%TO.C,TP9*%
X67748000Y-63754000D02*
G75*
G03*
X67748000Y-63754000I-1200000J0D01*
G01*
%TO.C,TP8*%
X67748000Y-83566000D02*
G75*
G03*
X67748000Y-83566000I-1200000J0D01*
G01*
%TO.C,TP7*%
X67748000Y-86868000D02*
G75*
G03*
X67748000Y-86868000I-1200000J0D01*
G01*
%TO.C,TP6*%
X97720000Y-73660000D02*
G75*
G03*
X97720000Y-73660000I-1200000J0D01*
G01*
%TO.C,TP5*%
X97720000Y-76962000D02*
G75*
G03*
X97720000Y-76962000I-1200000J0D01*
G01*
%TO.C,TP4*%
X84512000Y-80264000D02*
G75*
G03*
X84512000Y-80264000I-1200000J0D01*
G01*
%TO.C,TP3*%
X84512000Y-70358000D02*
G75*
G03*
X84512000Y-70358000I-1200000J0D01*
G01*
%TO.C,TP2*%
X84512000Y-76962000D02*
G75*
G03*
X84512000Y-76962000I-1200000J0D01*
G01*
%TO.C,TP1*%
X84512000Y-73660000D02*
G75*
G03*
X84512000Y-73660000I-1200000J0D01*
G01*
%TO.C,U3*%
X71746000Y-73372000D02*
X71746000Y-72062000D01*
X71746000Y-72062000D02*
X74466000Y-72062000D01*
X75606000Y-76552000D02*
X74466000Y-76552000D01*
X71746000Y-76782000D02*
X71746000Y-75472000D01*
X74466000Y-76782000D02*
X71746000Y-76782000D01*
X74466000Y-76782000D02*
X74466000Y-76552000D01*
X74466000Y-72062000D02*
X74466000Y-72292000D01*
%TO.C,U2*%
X89662000Y-77744000D02*
X91612000Y-77744000D01*
X89662000Y-77744000D02*
X87712000Y-77744000D01*
X89662000Y-72624000D02*
X91612000Y-72624000D01*
X89662000Y-72624000D02*
X86212000Y-72624000D01*
%TO.C,U1*%
X64126000Y-73372000D02*
X64126000Y-72062000D01*
X64126000Y-72062000D02*
X66846000Y-72062000D01*
X67986000Y-76552000D02*
X66846000Y-76552000D01*
X64126000Y-76782000D02*
X64126000Y-75472000D01*
X66846000Y-76782000D02*
X64126000Y-76782000D01*
X66846000Y-76782000D02*
X66846000Y-76552000D01*
X66846000Y-72062000D02*
X66846000Y-72292000D01*
%TO.C,R3*%
X87392742Y-78471500D02*
X87867258Y-78471500D01*
X87392742Y-79516500D02*
X87867258Y-79516500D01*
%TO.C,R2*%
X103615258Y-80532500D02*
X103140742Y-80532500D01*
X103615258Y-79487500D02*
X103140742Y-79487500D01*
%TO.C,R1*%
X82312742Y-66533500D02*
X82787258Y-66533500D01*
X82312742Y-67578500D02*
X82787258Y-67578500D01*
%TO.C,JP2*%
X104186000Y-76980000D02*
X103586000Y-76980000D01*
X104886000Y-74880000D02*
X104886000Y-76280000D01*
X103586000Y-74180000D02*
X104186000Y-74180000D01*
X102886000Y-76280000D02*
X102886000Y-74880000D01*
X103586000Y-76980000D02*
G75*
G02*
X102886000Y-76280000I0J700000D01*
G01*
X104886000Y-76280000D02*
G75*
G02*
X104186000Y-76980000I-700000J0D01*
G01*
X104186000Y-74180000D02*
G75*
G02*
X104886000Y-74880000I0J-700000D01*
G01*
X102886000Y-74880000D02*
G75*
G02*
X103586000Y-74180000I700000J0D01*
G01*
%TO.C,JP1*%
X104186000Y-85362000D02*
X103586000Y-85362000D01*
X104886000Y-83262000D02*
X104886000Y-84662000D01*
X103586000Y-82562000D02*
X104186000Y-82562000D01*
X102886000Y-84662000D02*
X102886000Y-83262000D01*
X103586000Y-85362000D02*
G75*
G02*
X102886000Y-84662000I0J700000D01*
G01*
X104886000Y-84662000D02*
G75*
G02*
X104186000Y-85362000I-700000J0D01*
G01*
X104186000Y-82562000D02*
G75*
G02*
X104886000Y-83262000I0J-700000D01*
G01*
X102886000Y-83262000D02*
G75*
G02*
X103586000Y-82562000I700000J0D01*
G01*
D14*
%TO.C,J2*%
X84526000Y-92616000D02*
X84526000Y-91758000D01*
X100907000Y-88311000D02*
X100907000Y-82995000D01*
X100907000Y-82995000D02*
X99380000Y-82995000D01*
X84526000Y-88311000D02*
X84526000Y-82995000D01*
X84526000Y-82995000D02*
X88344000Y-82995000D01*
X100907000Y-92616000D02*
X100907000Y-91758000D01*
X100907000Y-94310000D02*
X100907000Y-99057000D01*
X100907000Y-99057000D02*
X84526000Y-99057000D01*
X84526000Y-99057000D02*
X84526000Y-94310000D01*
X99652000Y-82995000D02*
X88102000Y-82995000D01*
D13*
X84582000Y-99057000D02*
X83566000Y-97025000D01*
X83566000Y-97025000D02*
X83820000Y-94739000D01*
X83820000Y-94739000D02*
X83566000Y-92453000D01*
X100838000Y-99057000D02*
X101854000Y-97025000D01*
X101854000Y-97025000D02*
X101600000Y-94739000D01*
X101600000Y-94739000D02*
X101854000Y-92453000D01*
D12*
%TO.C,D1*%
X71022000Y-80138000D02*
X71022000Y-83438000D01*
X71022000Y-83438000D02*
X76422000Y-83438000D01*
X71022000Y-80138000D02*
X76422000Y-80138000D01*
%TO.C,C4*%
X74117252Y-71522000D02*
X72694748Y-71522000D01*
X74117252Y-69702000D02*
X72694748Y-69702000D01*
%TO.C,C3*%
X72694748Y-77322000D02*
X74117252Y-77322000D01*
X72694748Y-79142000D02*
X74117252Y-79142000D01*
%TO.C,C2*%
X66497252Y-71522000D02*
X65074748Y-71522000D01*
X66497252Y-69702000D02*
X65074748Y-69702000D01*
%TO.C,C1*%
X65074748Y-77322000D02*
X66497252Y-77322000D01*
X65074748Y-79142000D02*
X66497252Y-79142000D01*
%TO.C,C6*%
D10*
X84415333Y-65453142D02*
X84367714Y-65500761D01*
X84224857Y-65548380D01*
X84129619Y-65548380D01*
X83986761Y-65500761D01*
X83891523Y-65405523D01*
X83843904Y-65310285D01*
X83796285Y-65119809D01*
X83796285Y-64976952D01*
X83843904Y-64786476D01*
X83891523Y-64691238D01*
X83986761Y-64596000D01*
X84129619Y-64548380D01*
X84224857Y-64548380D01*
X84367714Y-64596000D01*
X84415333Y-64643619D01*
X85272476Y-64548380D02*
X85082000Y-64548380D01*
X84986761Y-64596000D01*
X84939142Y-64643619D01*
X84843904Y-64786476D01*
X84796285Y-64976952D01*
X84796285Y-65357904D01*
X84843904Y-65453142D01*
X84891523Y-65500761D01*
X84986761Y-65548380D01*
X85177238Y-65548380D01*
X85272476Y-65500761D01*
X85320095Y-65453142D01*
X85367714Y-65357904D01*
X85367714Y-65119809D01*
X85320095Y-65024571D01*
X85272476Y-64976952D01*
X85177238Y-64929333D01*
X84986761Y-64929333D01*
X84891523Y-64976952D01*
X84843904Y-65024571D01*
X84796285Y-65119809D01*
%TO.C,U4*%
X93472095Y-69810380D02*
X93472095Y-70619904D01*
X93519714Y-70715142D01*
X93567333Y-70762761D01*
X93662571Y-70810380D01*
X93853047Y-70810380D01*
X93948285Y-70762761D01*
X93995904Y-70715142D01*
X94043523Y-70619904D01*
X94043523Y-69810380D01*
X94948285Y-70143714D02*
X94948285Y-70810380D01*
X94710190Y-69762761D02*
X94472095Y-70477047D01*
X95091142Y-70477047D01*
%TO.C,R5*%
X88987333Y-82494380D02*
X88654000Y-82018190D01*
X88415904Y-82494380D02*
X88415904Y-81494380D01*
X88796857Y-81494380D01*
X88892095Y-81542000D01*
X88939714Y-81589619D01*
X88987333Y-81684857D01*
X88987333Y-81827714D01*
X88939714Y-81922952D01*
X88892095Y-81970571D01*
X88796857Y-82018190D01*
X88415904Y-82018190D01*
X89892095Y-81494380D02*
X89415904Y-81494380D01*
X89368285Y-81970571D01*
X89415904Y-81922952D01*
X89511142Y-81875333D01*
X89749238Y-81875333D01*
X89844476Y-81922952D01*
X89892095Y-81970571D01*
X89939714Y-82065809D01*
X89939714Y-82303904D01*
X89892095Y-82399142D01*
X89844476Y-82446761D01*
X89749238Y-82494380D01*
X89511142Y-82494380D01*
X89415904Y-82446761D01*
X89368285Y-82399142D01*
%TO.C,R4*%
X100163333Y-82494380D02*
X99830000Y-82018190D01*
X99591904Y-82494380D02*
X99591904Y-81494380D01*
X99972857Y-81494380D01*
X100068095Y-81542000D01*
X100115714Y-81589619D01*
X100163333Y-81684857D01*
X100163333Y-81827714D01*
X100115714Y-81922952D01*
X100068095Y-81970571D01*
X99972857Y-82018190D01*
X99591904Y-82018190D01*
X101020476Y-81827714D02*
X101020476Y-82494380D01*
X100782380Y-81446761D02*
X100544285Y-82161047D01*
X101163333Y-82161047D01*
%TO.C,TP10*%
X62992095Y-59952000D02*
X62896857Y-59904380D01*
X62754000Y-59904380D01*
X62611142Y-59952000D01*
X62515904Y-60047238D01*
X62468285Y-60142476D01*
X62420666Y-60332952D01*
X62420666Y-60475809D01*
X62468285Y-60666285D01*
X62515904Y-60761523D01*
X62611142Y-60856761D01*
X62754000Y-60904380D01*
X62849238Y-60904380D01*
X62992095Y-60856761D01*
X63039714Y-60809142D01*
X63039714Y-60475809D01*
X62849238Y-60475809D01*
X63468285Y-60904380D02*
X63468285Y-59904380D01*
X64039714Y-60904380D01*
X64039714Y-59904380D01*
X64515904Y-60904380D02*
X64515904Y-59904380D01*
X64754000Y-59904380D01*
X64896857Y-59952000D01*
X64992095Y-60047238D01*
X65039714Y-60142476D01*
X65087333Y-60332952D01*
X65087333Y-60475809D01*
X65039714Y-60666285D01*
X64992095Y-60761523D01*
X64896857Y-60856761D01*
X64754000Y-60904380D01*
X64515904Y-60904380D01*
%TO.C,C5*%
X91273333Y-71477142D02*
X91225714Y-71524761D01*
X91082857Y-71572380D01*
X90987619Y-71572380D01*
X90844761Y-71524761D01*
X90749523Y-71429523D01*
X90701904Y-71334285D01*
X90654285Y-71143809D01*
X90654285Y-71000952D01*
X90701904Y-70810476D01*
X90749523Y-70715238D01*
X90844761Y-70620000D01*
X90987619Y-70572380D01*
X91082857Y-70572380D01*
X91225714Y-70620000D01*
X91273333Y-70667619D01*
X92178095Y-70572380D02*
X91701904Y-70572380D01*
X91654285Y-71048571D01*
X91701904Y-71000952D01*
X91797142Y-70953333D01*
X92035238Y-70953333D01*
X92130476Y-71000952D01*
X92178095Y-71048571D01*
X92225714Y-71143809D01*
X92225714Y-71381904D01*
X92178095Y-71477142D01*
X92130476Y-71524761D01*
X92035238Y-71572380D01*
X91797142Y-71572380D01*
X91701904Y-71524761D01*
X91654285Y-71477142D01*
%TO.C,J1*%
X75612666Y-82296380D02*
X75612666Y-83010666D01*
X75565047Y-83153523D01*
X75469809Y-83248761D01*
X75326952Y-83296380D01*
X75231714Y-83296380D01*
X76612666Y-83296380D02*
X76041238Y-83296380D01*
X76326952Y-83296380D02*
X76326952Y-82296380D01*
X76231714Y-82439238D01*
X76136476Y-82534476D01*
X76041238Y-82582095D01*
%TO.C,TP9*%
X62515904Y-63206380D02*
X63134952Y-63206380D01*
X62801619Y-63587333D01*
X62944476Y-63587333D01*
X63039714Y-63634952D01*
X63087333Y-63682571D01*
X63134952Y-63777809D01*
X63134952Y-64015904D01*
X63087333Y-64111142D01*
X63039714Y-64158761D01*
X62944476Y-64206380D01*
X62658761Y-64206380D01*
X62563523Y-64158761D01*
X62515904Y-64111142D01*
X63420666Y-63206380D02*
X63754000Y-64206380D01*
X64087333Y-63206380D01*
X64325428Y-63206380D02*
X64944476Y-63206380D01*
X64611142Y-63587333D01*
X64754000Y-63587333D01*
X64849238Y-63634952D01*
X64896857Y-63682571D01*
X64944476Y-63777809D01*
X64944476Y-64015904D01*
X64896857Y-64111142D01*
X64849238Y-64158761D01*
X64754000Y-64206380D01*
X64468285Y-64206380D01*
X64373047Y-64158761D01*
X64325428Y-64111142D01*
%TO.C,TP8*%
X64071523Y-83018380D02*
X63595333Y-83018380D01*
X63547714Y-83494571D01*
X63595333Y-83446952D01*
X63690571Y-83399333D01*
X63928666Y-83399333D01*
X64023904Y-83446952D01*
X64071523Y-83494571D01*
X64119142Y-83589809D01*
X64119142Y-83827904D01*
X64071523Y-83923142D01*
X64023904Y-83970761D01*
X63928666Y-84018380D01*
X63690571Y-84018380D01*
X63595333Y-83970761D01*
X63547714Y-83923142D01*
X64404857Y-83018380D02*
X64738190Y-84018380D01*
X65071523Y-83018380D01*
%TO.C,TP7*%
X63134952Y-87320380D02*
X62563523Y-87320380D01*
X62849238Y-87320380D02*
X62849238Y-86320380D01*
X62754000Y-86463238D01*
X62658761Y-86558476D01*
X62563523Y-86606095D01*
X63515904Y-86415619D02*
X63563523Y-86368000D01*
X63658761Y-86320380D01*
X63896857Y-86320380D01*
X63992095Y-86368000D01*
X64039714Y-86415619D01*
X64087333Y-86510857D01*
X64087333Y-86606095D01*
X64039714Y-86748952D01*
X63468285Y-87320380D01*
X64087333Y-87320380D01*
X64373047Y-86320380D02*
X64706380Y-87320380D01*
X65039714Y-86320380D01*
%TO.C,TP6*%
X94559428Y-73588571D02*
X94702285Y-73636190D01*
X94749904Y-73683809D01*
X94797523Y-73779047D01*
X94797523Y-73921904D01*
X94749904Y-74017142D01*
X94702285Y-74064761D01*
X94607047Y-74112380D01*
X94226095Y-74112380D01*
X94226095Y-73112380D01*
X94559428Y-73112380D01*
X94654666Y-73160000D01*
X94702285Y-73207619D01*
X94749904Y-73302857D01*
X94749904Y-73398095D01*
X94702285Y-73493333D01*
X94654666Y-73540952D01*
X94559428Y-73588571D01*
X94226095Y-73588571D01*
%TO.C,TP5*%
X94249904Y-77128666D02*
X94726095Y-77128666D01*
X94154666Y-77414380D02*
X94488000Y-76414380D01*
X94821333Y-77414380D01*
%TO.C,TP4*%
X79256095Y-79716380D02*
X79827523Y-79716380D01*
X79541809Y-80716380D02*
X79541809Y-79716380D01*
X80065619Y-79716380D02*
X80732285Y-80716380D01*
X80732285Y-79716380D02*
X80065619Y-80716380D01*
X81113238Y-80716380D02*
X81113238Y-79716380D01*
X81351333Y-79716380D01*
X81494190Y-79764000D01*
X81589428Y-79859238D01*
X81637047Y-79954476D01*
X81684666Y-80144952D01*
X81684666Y-80287809D01*
X81637047Y-80478285D01*
X81589428Y-80573523D01*
X81494190Y-80668761D01*
X81351333Y-80716380D01*
X81113238Y-80716380D01*
%TO.C,TP3*%
X79851333Y-70810380D02*
X79518000Y-70334190D01*
X79279904Y-70810380D02*
X79279904Y-69810380D01*
X79660857Y-69810380D01*
X79756095Y-69858000D01*
X79803714Y-69905619D01*
X79851333Y-70000857D01*
X79851333Y-70143714D01*
X79803714Y-70238952D01*
X79756095Y-70286571D01*
X79660857Y-70334190D01*
X79279904Y-70334190D01*
X80184666Y-69810380D02*
X80851333Y-70810380D01*
X80851333Y-69810380D02*
X80184666Y-70810380D01*
X81232285Y-70810380D02*
X81232285Y-69810380D01*
X81470380Y-69810380D01*
X81613238Y-69858000D01*
X81708476Y-69953238D01*
X81756095Y-70048476D01*
X81803714Y-70238952D01*
X81803714Y-70381809D01*
X81756095Y-70572285D01*
X81708476Y-70667523D01*
X81613238Y-70762761D01*
X81470380Y-70810380D01*
X81232285Y-70810380D01*
%TO.C,TP2*%
X80311714Y-77414380D02*
X80311714Y-76414380D01*
X80549809Y-76414380D01*
X80692666Y-76462000D01*
X80787904Y-76557238D01*
X80835523Y-76652476D01*
X80883142Y-76842952D01*
X80883142Y-76985809D01*
X80835523Y-77176285D01*
X80787904Y-77271523D01*
X80692666Y-77366761D01*
X80549809Y-77414380D01*
X80311714Y-77414380D01*
X81311714Y-76890571D02*
X81645047Y-76890571D01*
X81787904Y-77414380D02*
X81311714Y-77414380D01*
X81311714Y-76414380D01*
X81787904Y-76414380D01*
%TO.C,TP1*%
X79819619Y-74017142D02*
X79867238Y-74064761D01*
X79819619Y-74112380D01*
X79772000Y-74064761D01*
X79819619Y-74017142D01*
X79819619Y-74112380D01*
X79819619Y-73731428D02*
X79772000Y-73160000D01*
X79819619Y-73112380D01*
X79867238Y-73160000D01*
X79819619Y-73731428D01*
X79819619Y-73112380D01*
X80867238Y-74112380D02*
X80533904Y-73636190D01*
X80295809Y-74112380D02*
X80295809Y-73112380D01*
X80676761Y-73112380D01*
X80772000Y-73160000D01*
X80819619Y-73207619D01*
X80867238Y-73302857D01*
X80867238Y-73445714D01*
X80819619Y-73540952D01*
X80772000Y-73588571D01*
X80676761Y-73636190D01*
X80295809Y-73636190D01*
X81295809Y-73588571D02*
X81629142Y-73588571D01*
X81772000Y-74112380D02*
X81295809Y-74112380D01*
X81295809Y-73112380D01*
X81772000Y-73112380D01*
%TO.C,U3*%
X76200095Y-75652380D02*
X76200095Y-76461904D01*
X76247714Y-76557142D01*
X76295333Y-76604761D01*
X76390571Y-76652380D01*
X76581047Y-76652380D01*
X76676285Y-76604761D01*
X76723904Y-76557142D01*
X76771523Y-76461904D01*
X76771523Y-75652380D01*
X77152476Y-75652380D02*
X77771523Y-75652380D01*
X77438190Y-76033333D01*
X77581047Y-76033333D01*
X77676285Y-76080952D01*
X77723904Y-76128571D01*
X77771523Y-76223809D01*
X77771523Y-76461904D01*
X77723904Y-76557142D01*
X77676285Y-76604761D01*
X77581047Y-76652380D01*
X77295333Y-76652380D01*
X77200095Y-76604761D01*
X77152476Y-76557142D01*
%TO.C,U2*%
X91694095Y-78192380D02*
X91694095Y-79001904D01*
X91741714Y-79097142D01*
X91789333Y-79144761D01*
X91884571Y-79192380D01*
X92075047Y-79192380D01*
X92170285Y-79144761D01*
X92217904Y-79097142D01*
X92265523Y-79001904D01*
X92265523Y-78192380D01*
X92694095Y-78287619D02*
X92741714Y-78240000D01*
X92836952Y-78192380D01*
X93075047Y-78192380D01*
X93170285Y-78240000D01*
X93217904Y-78287619D01*
X93265523Y-78382857D01*
X93265523Y-78478095D01*
X93217904Y-78620952D01*
X92646476Y-79192380D01*
X93265523Y-79192380D01*
%TO.C,U1*%
X68580095Y-75652380D02*
X68580095Y-76461904D01*
X68627714Y-76557142D01*
X68675333Y-76604761D01*
X68770571Y-76652380D01*
X68961047Y-76652380D01*
X69056285Y-76604761D01*
X69103904Y-76557142D01*
X69151523Y-76461904D01*
X69151523Y-75652380D01*
X70151523Y-76652380D02*
X69580095Y-76652380D01*
X69865809Y-76652380D02*
X69865809Y-75652380D01*
X69770571Y-75795238D01*
X69675333Y-75890476D01*
X69580095Y-75938095D01*
%TO.C,R3*%
X89749333Y-79446380D02*
X89416000Y-78970190D01*
X89177904Y-79446380D02*
X89177904Y-78446380D01*
X89558857Y-78446380D01*
X89654095Y-78494000D01*
X89701714Y-78541619D01*
X89749333Y-78636857D01*
X89749333Y-78779714D01*
X89701714Y-78874952D01*
X89654095Y-78922571D01*
X89558857Y-78970190D01*
X89177904Y-78970190D01*
X90082666Y-78446380D02*
X90701714Y-78446380D01*
X90368380Y-78827333D01*
X90511238Y-78827333D01*
X90606476Y-78874952D01*
X90654095Y-78922571D01*
X90701714Y-79017809D01*
X90701714Y-79255904D01*
X90654095Y-79351142D01*
X90606476Y-79398761D01*
X90511238Y-79446380D01*
X90225523Y-79446380D01*
X90130285Y-79398761D01*
X90082666Y-79351142D01*
%TO.C,R2*%
X103211333Y-81986380D02*
X102878000Y-81510190D01*
X102639904Y-81986380D02*
X102639904Y-80986380D01*
X103020857Y-80986380D01*
X103116095Y-81034000D01*
X103163714Y-81081619D01*
X103211333Y-81176857D01*
X103211333Y-81319714D01*
X103163714Y-81414952D01*
X103116095Y-81462571D01*
X103020857Y-81510190D01*
X102639904Y-81510190D01*
X103592285Y-81081619D02*
X103639904Y-81034000D01*
X103735142Y-80986380D01*
X103973238Y-80986380D01*
X104068476Y-81034000D01*
X104116095Y-81081619D01*
X104163714Y-81176857D01*
X104163714Y-81272095D01*
X104116095Y-81414952D01*
X103544666Y-81986380D01*
X104163714Y-81986380D01*
%TO.C,R1*%
X84669333Y-67508380D02*
X84336000Y-67032190D01*
X84097904Y-67508380D02*
X84097904Y-66508380D01*
X84478857Y-66508380D01*
X84574095Y-66556000D01*
X84621714Y-66603619D01*
X84669333Y-66698857D01*
X84669333Y-66841714D01*
X84621714Y-66936952D01*
X84574095Y-66984571D01*
X84478857Y-67032190D01*
X84097904Y-67032190D01*
X85621714Y-67508380D02*
X85050285Y-67508380D01*
X85336000Y-67508380D02*
X85336000Y-66508380D01*
X85240761Y-66651238D01*
X85145523Y-66746476D01*
X85050285Y-66794095D01*
%TO.C,JP2*%
X105238380Y-78675238D02*
X105238380Y-78103809D01*
X106238380Y-78389523D02*
X105238380Y-78389523D01*
X106238380Y-77770476D02*
X105571714Y-77770476D01*
X105762190Y-77770476D02*
X105666952Y-77722857D01*
X105619333Y-77675238D01*
X105571714Y-77580000D01*
X105571714Y-77484761D01*
X106238380Y-76722857D02*
X105714571Y-76722857D01*
X105619333Y-76770476D01*
X105571714Y-76865714D01*
X105571714Y-77056190D01*
X105619333Y-77151428D01*
X106190761Y-76722857D02*
X106238380Y-76818095D01*
X106238380Y-77056190D01*
X106190761Y-77151428D01*
X106095523Y-77199047D01*
X106000285Y-77199047D01*
X105905047Y-77151428D01*
X105857428Y-77056190D01*
X105857428Y-76818095D01*
X105809809Y-76722857D01*
X105571714Y-76246666D02*
X106238380Y-76246666D01*
X105666952Y-76246666D02*
X105619333Y-76199047D01*
X105571714Y-76103809D01*
X105571714Y-75960952D01*
X105619333Y-75865714D01*
X105714571Y-75818095D01*
X106238380Y-75818095D01*
X106190761Y-75389523D02*
X106238380Y-75294285D01*
X106238380Y-75103809D01*
X106190761Y-75008571D01*
X106095523Y-74960952D01*
X106047904Y-74960952D01*
X105952666Y-75008571D01*
X105905047Y-75103809D01*
X105905047Y-75246666D01*
X105857428Y-75341904D01*
X105762190Y-75389523D01*
X105714571Y-75389523D01*
X105619333Y-75341904D01*
X105571714Y-75246666D01*
X105571714Y-75103809D01*
X105619333Y-75008571D01*
X106238380Y-74532380D02*
X105571714Y-74532380D01*
X105666952Y-74532380D02*
X105619333Y-74484761D01*
X105571714Y-74389523D01*
X105571714Y-74246666D01*
X105619333Y-74151428D01*
X105714571Y-74103809D01*
X106238380Y-74103809D01*
X105714571Y-74103809D02*
X105619333Y-74056190D01*
X105571714Y-73960952D01*
X105571714Y-73818095D01*
X105619333Y-73722857D01*
X105714571Y-73675238D01*
X106238380Y-73675238D01*
X106238380Y-73199047D02*
X105571714Y-73199047D01*
X105238380Y-73199047D02*
X105286000Y-73246666D01*
X105333619Y-73199047D01*
X105286000Y-73151428D01*
X105238380Y-73199047D01*
X105333619Y-73199047D01*
X105571714Y-72865714D02*
X105571714Y-72484761D01*
X105238380Y-72722857D02*
X106095523Y-72722857D01*
X106190761Y-72675238D01*
X106238380Y-72580000D01*
X106238380Y-72484761D01*
%TO.C,JP1*%
X105238380Y-88223904D02*
X105238380Y-87652476D01*
X106238380Y-87938190D02*
X105238380Y-87938190D01*
X106190761Y-86938190D02*
X106238380Y-87033428D01*
X106238380Y-87223904D01*
X106190761Y-87319142D01*
X106095523Y-87366761D01*
X105714571Y-87366761D01*
X105619333Y-87319142D01*
X105571714Y-87223904D01*
X105571714Y-87033428D01*
X105619333Y-86938190D01*
X105714571Y-86890571D01*
X105809809Y-86890571D01*
X105905047Y-87366761D01*
X106238380Y-86462000D02*
X105571714Y-86462000D01*
X105762190Y-86462000D02*
X105666952Y-86414380D01*
X105619333Y-86366761D01*
X105571714Y-86271523D01*
X105571714Y-86176285D01*
X106238380Y-85842952D02*
X105571714Y-85842952D01*
X105666952Y-85842952D02*
X105619333Y-85795333D01*
X105571714Y-85700095D01*
X105571714Y-85557238D01*
X105619333Y-85462000D01*
X105714571Y-85414380D01*
X106238380Y-85414380D01*
X105714571Y-85414380D02*
X105619333Y-85366761D01*
X105571714Y-85271523D01*
X105571714Y-85128666D01*
X105619333Y-85033428D01*
X105714571Y-84985809D01*
X106238380Y-84985809D01*
X106238380Y-84509619D02*
X105571714Y-84509619D01*
X105238380Y-84509619D02*
X105286000Y-84557238D01*
X105333619Y-84509619D01*
X105286000Y-84462000D01*
X105238380Y-84509619D01*
X105333619Y-84509619D01*
X105571714Y-84033428D02*
X106238380Y-84033428D01*
X105666952Y-84033428D02*
X105619333Y-83985809D01*
X105571714Y-83890571D01*
X105571714Y-83747714D01*
X105619333Y-83652476D01*
X105714571Y-83604857D01*
X106238380Y-83604857D01*
X106238380Y-82700095D02*
X105714571Y-82700095D01*
X105619333Y-82747714D01*
X105571714Y-82842952D01*
X105571714Y-83033428D01*
X105619333Y-83128666D01*
X106190761Y-82700095D02*
X106238380Y-82795333D01*
X106238380Y-83033428D01*
X106190761Y-83128666D01*
X106095523Y-83176285D01*
X106000285Y-83176285D01*
X105905047Y-83128666D01*
X105857428Y-83033428D01*
X105857428Y-82795333D01*
X105809809Y-82700095D01*
X105571714Y-82366761D02*
X105571714Y-81985809D01*
X105238380Y-82223904D02*
X106095523Y-82223904D01*
X106190761Y-82176285D01*
X106238380Y-82081047D01*
X106238380Y-81985809D01*
X106238380Y-81652476D02*
X105571714Y-81652476D01*
X105238380Y-81652476D02*
X105286000Y-81700095D01*
X105333619Y-81652476D01*
X105286000Y-81604857D01*
X105238380Y-81652476D01*
X105333619Y-81652476D01*
X106238380Y-81033428D02*
X106190761Y-81128666D01*
X106143142Y-81176285D01*
X106047904Y-81223904D01*
X105762190Y-81223904D01*
X105666952Y-81176285D01*
X105619333Y-81128666D01*
X105571714Y-81033428D01*
X105571714Y-80890571D01*
X105619333Y-80795333D01*
X105666952Y-80747714D01*
X105762190Y-80700095D01*
X106047904Y-80700095D01*
X106143142Y-80747714D01*
X106190761Y-80795333D01*
X106238380Y-80890571D01*
X106238380Y-81033428D01*
X105571714Y-80271523D02*
X106238380Y-80271523D01*
X105666952Y-80271523D02*
X105619333Y-80223904D01*
X105571714Y-80128666D01*
X105571714Y-79985809D01*
X105619333Y-79890571D01*
X105714571Y-79842952D01*
X106238380Y-79842952D01*
%TO.C,D1*%
X78001904Y-82240380D02*
X78001904Y-81240380D01*
X78240000Y-81240380D01*
X78382857Y-81288000D01*
X78478095Y-81383238D01*
X78525714Y-81478476D01*
X78573333Y-81668952D01*
X78573333Y-81811809D01*
X78525714Y-82002285D01*
X78478095Y-82097523D01*
X78382857Y-82192761D01*
X78240000Y-82240380D01*
X78001904Y-82240380D01*
X79525714Y-82240380D02*
X78954285Y-82240380D01*
X79240000Y-82240380D02*
X79240000Y-81240380D01*
X79144761Y-81383238D01*
X79049523Y-81478476D01*
X78954285Y-81526095D01*
%TO.C,C4*%
X76590333Y-70969142D02*
X76542714Y-71016761D01*
X76399857Y-71064380D01*
X76304619Y-71064380D01*
X76161761Y-71016761D01*
X76066523Y-70921523D01*
X76018904Y-70826285D01*
X75971285Y-70635809D01*
X75971285Y-70492952D01*
X76018904Y-70302476D01*
X76066523Y-70207238D01*
X76161761Y-70112000D01*
X76304619Y-70064380D01*
X76399857Y-70064380D01*
X76542714Y-70112000D01*
X76590333Y-70159619D01*
X77447476Y-70397714D02*
X77447476Y-71064380D01*
X77209380Y-70016761D02*
X76971285Y-70731047D01*
X77590333Y-70731047D01*
%TO.C,C3*%
X76541333Y-78589142D02*
X76493714Y-78636761D01*
X76350857Y-78684380D01*
X76255619Y-78684380D01*
X76112761Y-78636761D01*
X76017523Y-78541523D01*
X75969904Y-78446285D01*
X75922285Y-78255809D01*
X75922285Y-78112952D01*
X75969904Y-77922476D01*
X76017523Y-77827238D01*
X76112761Y-77732000D01*
X76255619Y-77684380D01*
X76350857Y-77684380D01*
X76493714Y-77732000D01*
X76541333Y-77779619D01*
X76874666Y-77684380D02*
X77493714Y-77684380D01*
X77160380Y-78065333D01*
X77303238Y-78065333D01*
X77398476Y-78112952D01*
X77446095Y-78160571D01*
X77493714Y-78255809D01*
X77493714Y-78493904D01*
X77446095Y-78589142D01*
X77398476Y-78636761D01*
X77303238Y-78684380D01*
X77017523Y-78684380D01*
X76922285Y-78636761D01*
X76874666Y-78589142D01*
%TO.C,C2*%
X68921333Y-70969142D02*
X68873714Y-71016761D01*
X68730857Y-71064380D01*
X68635619Y-71064380D01*
X68492761Y-71016761D01*
X68397523Y-70921523D01*
X68349904Y-70826285D01*
X68302285Y-70635809D01*
X68302285Y-70492952D01*
X68349904Y-70302476D01*
X68397523Y-70207238D01*
X68492761Y-70112000D01*
X68635619Y-70064380D01*
X68730857Y-70064380D01*
X68873714Y-70112000D01*
X68921333Y-70159619D01*
X69302285Y-70159619D02*
X69349904Y-70112000D01*
X69445142Y-70064380D01*
X69683238Y-70064380D01*
X69778476Y-70112000D01*
X69826095Y-70159619D01*
X69873714Y-70254857D01*
X69873714Y-70350095D01*
X69826095Y-70492952D01*
X69254666Y-71064380D01*
X69873714Y-71064380D01*
%TO.C,C1*%
X68921333Y-78589142D02*
X68873714Y-78636761D01*
X68730857Y-78684380D01*
X68635619Y-78684380D01*
X68492761Y-78636761D01*
X68397523Y-78541523D01*
X68349904Y-78446285D01*
X68302285Y-78255809D01*
X68302285Y-78112952D01*
X68349904Y-77922476D01*
X68397523Y-77827238D01*
X68492761Y-77732000D01*
X68635619Y-77684380D01*
X68730857Y-77684380D01*
X68873714Y-77732000D01*
X68921333Y-77779619D01*
X69873714Y-78684380D02*
X69302285Y-78684380D01*
X69588000Y-78684380D02*
X69588000Y-77684380D01*
X69492761Y-77827238D01*
X69397523Y-77922476D01*
X69302285Y-77970095D01*
%TD*%
M02*
